<svg width="244" height="128" viewBox="0 0 244 128" fill="none" xmlns="http://www.w3.org/2000/svg">
<path d="M124.126 36.1976C124.024 36.1976 123.934 36.1976 123.855 36.2089C123.775 36.2089 123.685 36.2202 123.617 36.2316V34.2764H135.043C137.643 34.2764 139.677 34.7058 141.135 35.5535C142.593 36.4011 143.565 37.6556 144.039 39.3169C144.277 40.1532 144.39 40.9443 144.39 41.7015C144.39 43.0125 144.039 44.1766 143.35 45.1938C142.66 46.2109 141.655 46.9907 140.332 47.5558C139.01 48.1096 137.45 48.3921 135.653 48.3921H132.523V51.5792L132.579 52.246C132.625 52.7545 132.726 53.1275 132.862 53.3535C132.998 53.5796 133.257 53.7943 133.642 53.9751C133.834 54.0994 133.981 54.1673 134.094 54.1673C134.162 54.1786 134.252 54.1899 134.354 54.2012C134.455 54.2125 134.523 54.2238 134.535 54.2238H134.908L135.36 54.1899V56.1789H123.64V54.1899L123.821 54.2238L124.646 54.1673C124.985 54.1673 125.256 54.0881 125.482 53.9412C125.844 53.7491 126.092 53.5231 126.228 53.2857C126.363 53.0484 126.431 52.698 126.431 52.2347V38.8422V38.2093C126.431 37.6556 126.284 37.1922 125.991 36.8192C125.697 36.4463 125.256 36.2542 124.68 36.2202L124.126 36.1976ZM132.512 46.1657H134.806C135.665 46.1657 136.388 46.0075 136.964 45.7023C137.541 45.3972 137.982 44.9112 138.275 44.2557C138.569 43.6002 138.716 42.7526 138.716 41.7128C138.716 41.2495 138.682 40.7409 138.626 40.1871C138.366 37.5538 137.157 36.2316 134.975 36.2316H133.924C133.823 36.2316 133.755 36.2429 133.721 36.2655C133.325 36.2994 133.02 36.3898 132.805 36.5706C132.591 36.7401 132.478 36.9662 132.478 37.2374L132.512 46.1657Z" fill="white"/>
<path d="M151.486 47.4992C151.52 47.4992 151.656 47.4766 151.916 47.4314C152.176 47.3862 152.379 47.3523 152.548 47.3184V46.0187C152.548 45.3858 152.368 44.8885 151.995 44.5382C151.622 44.1878 151.091 44.007 150.379 44.007C150.017 44.007 149.734 44.0296 149.531 44.0635C149.124 44.1426 148.457 44.4591 147.519 45.0129C146.581 45.5666 146.039 45.9057 145.892 46.0187L144.807 44.5043C145.078 44.267 145.282 44.0974 145.406 44.007C146.536 43.0803 147.621 42.3683 148.661 41.8936C149.7 41.4076 150.74 41.1025 151.791 40.9669C152.334 40.9104 152.831 40.8765 153.294 40.8765C154.967 40.8765 156.199 41.272 156.979 42.0631C157.759 42.8543 158.143 44.0409 158.143 45.6232V51.7373L158.177 52.2798C158.177 52.9014 158.403 53.2066 158.843 53.2066C158.911 53.2066 159.024 53.184 159.183 53.15C159.262 53.1274 159.409 52.9692 159.635 52.6528C159.861 52.3476 160.03 52.1216 160.132 51.9747C160.381 51.9747 160.505 52.0086 160.527 52.0651C160.55 52.1103 160.561 52.3024 160.561 52.6415V54.4158C160.527 54.4497 160.482 54.4949 160.426 54.5741C160.369 54.6532 160.313 54.7097 160.279 54.7549C158.957 56.0207 157.589 56.6536 156.188 56.6536C155.882 56.6536 155.656 56.6423 155.498 56.6196C154.04 56.4275 153.023 55.8398 152.458 54.8679L151.972 55.2408C151.938 55.2748 151.735 55.3991 151.396 55.5912C151.045 55.7833 150.639 55.9755 150.175 56.1676C149.712 56.3597 149.26 56.484 148.842 56.5405C148.446 56.5744 148.175 56.597 148.005 56.597C146.615 56.597 145.553 56.0772 144.841 55.0261C144.377 54.3254 144.151 53.6247 144.151 52.924C144.151 52.2233 144.389 51.5226 144.875 50.8445C145.361 50.1664 146.084 49.5561 147.056 49.0023C148.028 48.4486 149.248 48.0078 150.706 47.6688C150.853 47.6348 151 47.5896 151.158 47.5557C151.305 47.5218 151.418 47.4992 151.486 47.4992ZM152.481 48.7537C151.995 48.8441 151.497 49.0815 151.011 49.477C150.299 50.0421 149.859 50.7202 149.712 51.5113C149.655 51.7712 149.621 52.0086 149.621 52.2007C149.621 52.7432 149.746 53.1726 149.994 53.4891C150.243 53.8055 150.571 53.9638 150.978 53.9638C151.136 53.9638 151.305 53.9299 151.475 53.8734C151.644 53.8394 151.769 53.7829 151.848 53.7264L152.481 53.297V48.7537Z" fill="white"/>
<path d="M158.73 43.0911L158.571 43.125V41.2603H168.087V43.125L167.884 43.0911H167.68H167.533L167.307 43.125L167.161 43.1589L167.048 43.1928C166.708 43.3285 166.528 43.5884 166.528 43.9613C166.528 44.3117 166.641 44.7186 166.855 45.1819L166.957 45.408L167.161 45.9278L169.749 52.1889L172.371 45.9278L172.676 45.1932C172.913 44.6733 173.026 44.2778 173.026 44.0066C173.026 43.8596 172.992 43.724 172.936 43.611C172.834 43.4076 172.687 43.2719 172.484 43.2154L172.337 43.1815L172.19 43.1476L172.009 43.1137H171.851H171.817H171.613L171.41 43.1476V41.2603H177.219V43.125L177.106 43.0911H176.993H176.835L176.688 43.125L176.541 43.1589L176.428 43.1928C176.111 43.3172 175.795 43.5432 175.456 43.8596C175.264 44.1083 175.015 44.549 174.733 45.1819L174.473 45.9165L170.189 56.1784H165.737L161.306 45.9165L161.001 45.1819C160.73 44.549 160.481 44.1083 160.278 43.8596C160.04 43.5771 159.758 43.3511 159.408 43.1928L159.272 43.1589L159.159 43.125L159.012 43.0911H158.899H158.865H158.73Z" fill="white"/>
<path d="M186.436 56.1677H176.208V54.3256H177.09L177.271 54.2917L177.452 54.2351C177.61 54.2012 177.723 54.1447 177.791 54.0882C178.118 53.9074 178.322 53.704 178.424 53.4666C178.525 53.2293 178.571 52.8224 178.571 52.2461V51.5567V51.7375V47.6576V46.9908C178.571 46.437 178.401 45.9849 178.073 45.6346C177.734 45.2955 177.305 45.1147 176.762 45.1147H176.581H176.525L176.276 45.1486V43.5551C178.186 43.0013 180.085 42.2328 181.972 41.227H184.21V51.5341V52.2234C184.21 52.7772 184.255 53.1728 184.357 53.4101C184.459 53.6588 184.651 53.8735 184.956 54.0543C185.012 54.1108 185.125 54.1673 185.295 54.2012L185.442 54.2577L185.623 54.2917H186.436V56.1677ZM179.113 39.2266C178.469 38.5485 178.141 37.78 178.141 36.9097C178.175 35.9717 178.491 35.1919 179.113 34.5816C179.746 33.96 180.503 33.6436 181.396 33.6436C181.825 33.6436 182.244 33.7227 182.65 33.8922C183.057 34.0617 183.408 34.299 183.69 34.6155C184.323 35.271 184.628 36.0395 184.628 36.921C184.628 37.7913 184.3 38.5598 183.656 39.2379C183.035 39.8821 182.277 40.2098 181.385 40.2098C180.492 40.1985 179.735 39.8708 179.113 39.2266Z" fill="white"/>
<path d="M186.871 37.0789L186.622 37.1128V35.4854C187.244 35.3045 187.73 35.1463 188.091 34.9994C189.561 34.4795 190.962 33.8692 192.284 33.1572H194.545V51.5676V52.257C194.545 52.8108 194.59 53.2063 194.691 53.4437C194.793 53.6923 194.985 53.907 195.29 54.0879C195.347 54.1444 195.46 54.2009 195.618 54.2348L195.776 54.2913L195.98 54.3252H196.183H196.341H196.398H196.579H196.782V56.1674H186.633V54.3252H186.859H187.04H187.074H187.255H187.458L187.651 54.2913L187.831 54.2348C188.091 54.167 188.306 54.0314 188.464 53.8392C188.656 53.681 188.769 53.5115 188.815 53.3307C188.86 53.1498 188.894 52.7882 188.916 52.2457V51.5563V51.6693V39.6105V38.9098C188.916 38.3447 188.747 37.8926 188.396 37.5762C188.057 37.2484 187.617 37.0902 187.097 37.0902H186.916H186.871V37.0789Z" fill="white"/>
<path d="M197.248 37.0789L197 37.1128V35.4854C197.621 35.3045 198.107 35.1463 198.469 34.9994C199.938 34.4795 201.339 33.8692 202.662 33.1572H204.922V51.5676V52.257C204.922 52.8108 204.967 53.2063 205.069 53.4437C205.171 53.6923 205.363 53.907 205.668 54.0879C205.724 54.1444 205.837 54.2009 205.996 54.2348L206.154 54.2913L206.357 54.3252H206.561H206.719H206.775H206.956H207.16V56.1674H197.011V54.3252H197.237H197.418H197.452H197.632H197.836L198.028 54.2913L198.209 54.2348C198.469 54.167 198.683 54.0314 198.842 53.8392C199.034 53.681 199.147 53.5115 199.192 53.3307C199.237 53.1498 199.271 52.7882 199.294 52.2457V51.5563V51.6693V39.6105V38.9098C199.294 38.3447 199.124 37.8926 198.774 37.5762C198.435 37.2484 197.994 37.0902 197.474 37.0902H197.293H197.248V37.0789Z" fill="white"/>
<path d="M211.523 55.6247C210.246 54.8788 209.308 53.9181 208.709 52.7541C208.11 51.59 207.816 50.2225 207.816 48.6629C207.828 47.3632 208.099 46.1765 208.653 45.1142C209.195 44.0518 209.941 43.159 210.89 42.4244C211.964 41.6333 213.128 41.1473 214.405 40.9778C215.049 40.8987 215.524 40.8647 215.829 40.8647C216.745 40.8647 217.615 41.0004 218.463 41.2829C219.31 41.5654 220.056 41.9497 220.723 42.4583C221.39 42.9669 221.955 43.5771 222.418 44.3004C222.893 45.0237 223.232 45.8262 223.447 46.6964C223.661 47.6118 223.774 48.4368 223.774 49.1941C223.774 50.5616 223.458 51.7934 222.814 52.8897C222.181 53.9746 221.254 54.8901 220.033 55.6134C219.265 56.0768 218.372 56.3932 217.355 56.5514C216.846 56.6305 216.304 56.6644 215.728 56.6644C214.1 56.687 212.699 56.3367 211.523 55.6247ZM213.693 46.1087V49.7252C213.727 51.5787 213.919 52.9123 214.247 53.7373C214.575 54.5623 215.049 54.9692 215.682 54.9692C215.807 54.9692 216.033 54.9353 216.349 54.8562C216.892 54.6527 217.265 54.2007 217.491 53.5C217.717 52.7993 217.841 51.5335 217.864 49.7139V46.1878C217.864 44.2665 217.355 43.1477 216.315 42.8199C216.112 42.7634 215.92 42.7295 215.739 42.7295C215.129 42.7295 214.643 43.0121 214.258 43.5771C213.885 44.1196 213.693 44.9785 213.693 46.1087Z" fill="white"/>
<path d="M233.954 56.1678H224.348V54.3256H224.596H224.8H224.981H225.229L225.376 54.2917L225.557 54.2352C225.613 54.2239 225.738 54.1787 225.93 54.0883C226.235 53.9075 226.427 53.7153 226.518 53.4893C226.608 53.2633 226.664 52.8564 226.676 52.2574V51.568V51.715V47.669V47.0022C226.676 46.4484 226.506 45.9963 226.179 45.646C225.851 45.3069 225.41 45.1261 224.868 45.1261H224.63L224.528 45.16H224.382V43.5665C225.41 43.25 226.382 42.911 227.297 42.5493C228.213 42.1764 229.14 41.7469 230.078 41.2496H232.259V43.8716C232.338 43.7699 232.406 43.7021 232.451 43.6456C232.496 43.5891 232.553 43.5326 232.609 43.4648C233.445 42.5719 234.293 41.9051 235.163 41.4757C236.067 41.0575 236.904 40.8428 237.695 40.8428C238.735 40.8428 239.616 41.1592 240.328 41.8034C241.04 42.4363 241.447 43.2387 241.537 44.1881C241.594 44.6401 241.628 45.2843 241.628 46.1206V51.5793V52.2687C241.628 52.8112 241.673 53.2068 241.775 53.4554C241.876 53.704 242.08 53.9188 242.408 54.1109C242.509 54.1674 242.622 54.2239 242.758 54.2578L242.95 54.3143L243.131 54.3482H243.334H243.527H243.56H243.764H244.001V56.1904H234.361V54.3482H234.508H234.643H234.677H234.79H234.937L235.05 54.3143L235.163 54.2578C235.401 54.1674 235.604 53.9527 235.762 53.591C235.853 53.3989 235.909 52.9581 235.921 52.2687V51.5793V47.2056V46.4145V46.1771C235.898 46.0754 235.875 46.0076 235.864 45.9511C235.841 45.8946 235.83 45.8381 235.819 45.7816C235.728 45.4651 235.559 45.2165 235.31 45.0357C235.062 44.8549 234.756 44.7644 234.406 44.7644C233.852 44.7644 233.31 44.9792 232.79 45.3973C232.722 45.4425 232.643 45.5104 232.541 45.6008L232.394 45.7477L232.281 45.8833V51.5793L232.315 52.2687C232.315 52.9694 232.361 53.4215 232.462 53.591C232.62 53.9414 232.835 54.1674 233.095 54.2578L233.208 54.3143L233.355 54.3482H233.513H233.626H233.66H233.807H233.954V56.1678Z" fill="white"/>
<path d="M165.484 60.0889C168.683 59.7273 171.881 59.5577 175.068 59.5916C178.255 59.6256 181.454 59.8064 184.652 60.1228C186.268 60.2471 187.884 60.428 189.5 60.6427C191.105 60.8574 192.733 61.0835 194.349 61.3208C195.061 61.4338 195.773 61.5468 196.485 61.6825C197.197 61.8068 197.92 61.9311 198.655 62.0215C199.389 62.1232 200.124 62.1797 200.859 62.2136C201.593 62.2475 202.316 62.2023 203.028 62.0667C203.695 61.9537 204.339 61.7503 204.938 61.4338C205.549 61.1174 206.069 60.7105 206.532 60.2132C206.747 59.9759 206.995 59.8177 207.278 59.7273C207.56 59.6369 207.854 59.603 208.148 59.6256C208.453 59.6482 208.758 59.6934 209.075 59.7499C209.391 59.8177 209.674 59.8742 209.934 59.942C211.313 60.2245 212.68 60.5636 214.014 60.9591C215.359 61.3547 216.692 61.7729 218.037 62.2023C218.749 62.4397 219.122 62.7674 219.156 63.1969C219.19 63.615 218.896 64.0784 218.297 64.5757C217.393 65.2877 216.398 65.8075 215.325 66.1127C214.251 66.4291 213.155 66.6891 212.036 66.9038C209.29 67.4463 206.464 67.6045 203.571 67.3785C200.678 67.1524 197.931 66.5535 195.332 65.5815C191.806 64.2818 188.235 63.4229 184.595 62.9821C180.968 62.5527 177.306 62.3945 173.633 62.5301C169.96 62.6544 166.287 63.0047 162.602 63.5698C158.929 64.1349 155.302 64.7452 151.708 65.4233C151.403 65.4685 151.075 65.5024 150.702 65.525C150.329 65.5476 150.046 65.5363 149.843 65.4798C149.639 65.4233 149.56 65.3216 149.617 65.1747C149.673 65.0277 149.979 64.813 150.544 64.5305C152.838 63.276 155.245 62.304 157.754 61.592C160.297 60.8913 162.874 60.3828 165.484 60.0889ZM162.241 83.7207H162.049L161.563 82.7487C161.472 82.6018 161.348 82.4775 161.19 82.3871C161.032 82.2966 160.862 82.2514 160.692 82.2288C160.523 82.2062 160.353 82.2288 160.207 82.274C160.06 82.3306 159.947 82.421 159.879 82.5453C159.743 82.8504 159.641 83.1556 159.551 83.4494C159.461 83.7546 159.483 84.0823 159.619 84.4214C159.664 84.5344 159.698 84.6474 159.721 84.783C159.743 84.9073 159.777 85.0316 159.822 85.1447C159.924 85.4724 160.037 85.8002 160.15 86.1392C160.252 86.4783 160.399 86.7947 160.568 87.0998C160.806 87.5519 161.133 87.9136 161.551 88.1735C161.97 88.4334 162.399 88.6821 162.829 88.9194C163.394 89.2472 163.913 89.3715 164.388 89.3037C164.863 89.2358 165.383 88.9872 165.948 88.5578C166.276 88.2752 166.569 87.9814 166.818 87.6875C167.078 87.3824 167.293 87.0546 167.462 86.6817C167.575 86.4443 167.688 86.2183 167.824 86.0036C167.948 85.7889 168.061 85.5628 168.152 85.3255C168.513 84.3535 168.875 83.3816 169.203 82.4097C169.542 81.4377 169.892 80.4658 170.254 79.4938L171.135 76.9623L172.107 74.2386C172.243 73.8543 172.514 73.6961 172.955 73.7865C173.475 73.8995 173.995 73.9899 174.514 74.0804C175.034 74.1708 175.554 74.2386 176.074 74.3064C176.447 74.3516 176.809 74.329 177.159 74.2386C177.521 74.1482 177.848 73.9786 178.142 73.7187C178.775 73.1988 178.99 72.5772 178.786 71.8426C178.696 71.5149 178.515 71.3341 178.233 71.2888C177.95 71.2436 177.679 71.2097 177.419 71.1871C176.899 71.1419 176.379 71.1306 175.859 71.1419C175.339 71.1532 174.82 71.1419 174.3 71.1306C174.13 71.1306 173.949 71.1306 173.768 71.1193C173.588 71.108 173.384 71.0967 173.17 71.0741C173.294 70.5316 173.429 70.0231 173.554 69.5371C173.689 69.0511 173.802 68.5538 173.915 68.0566C173.983 67.6949 174.028 67.3333 174.04 66.9829C174.062 66.6326 174.074 66.2822 174.074 65.9093C174.074 65.6041 174.006 65.3781 173.859 65.2086C173.723 65.0503 173.554 64.9712 173.362 64.9712C172.989 64.9938 172.638 65.0051 172.288 65.0164C171.938 65.0277 171.599 65.0503 171.248 65.0955C171.056 65.1182 170.853 65.1408 170.649 65.1634C170.446 65.186 170.254 65.2425 170.084 65.3216C169.711 65.4911 169.361 65.6719 169.01 65.8415C168.66 66.011 168.332 66.2144 168.005 66.4517C167.767 66.6213 167.541 66.8134 167.327 67.0168C167.112 67.2203 166.954 67.4463 166.841 67.6836C166.626 68.2261 166.445 68.7799 166.309 69.3337C166.174 69.8987 166.038 70.4525 165.903 71.0176C165.857 71.2549 165.79 71.4245 165.688 71.5149C165.586 71.6166 165.405 71.6505 165.123 71.6279C164.648 71.6053 164.196 71.7409 163.767 72.0122C163.337 72.2947 163.156 72.7694 163.213 73.4362C163.258 73.6735 163.326 73.8543 163.427 73.9673C163.529 74.0917 163.687 74.1369 163.925 74.1143C163.993 74.1143 164.06 74.1143 164.117 74.103C164.185 74.0917 164.241 74.0917 164.309 74.0917C164.761 74.1369 164.931 74.3629 164.795 74.7697C164.75 74.8941 164.716 75.0297 164.682 75.154C164.648 75.2783 164.614 75.4139 164.569 75.5383C164.456 76.1033 164.354 76.6571 164.241 77.2109C164.128 77.7647 164.015 78.3185 163.88 78.8836C163.767 79.313 163.642 79.7538 163.507 80.1945C163.371 80.6353 163.224 81.0761 163.066 81.5055C162.93 81.8785 162.795 82.2401 162.648 82.6131C162.501 82.986 162.343 83.3477 162.196 83.7207H162.241ZM165.417 75.4592V75.4931H165.383V75.4592H165.417ZM165.484 75.4592H165.45V75.4931H165.518C165.518 75.4705 165.507 75.4592 165.484 75.4592ZM165.609 75.2557L165.575 75.2218H165.609V75.1879V75.2218V75.2557ZM165.677 75.2218C165.677 75.1992 165.677 75.1879 165.665 75.1766C165.654 75.1653 165.654 75.1766 165.654 75.1879C165.654 75.1653 165.654 75.1653 165.665 75.1766C165.677 75.1879 165.677 75.2105 165.677 75.2218L165.643 75.1879L165.677 75.2218Z" fill="white"/>
<path d="M187.984 75.8095C188.131 75.7643 188.21 75.7304 188.21 75.7078C188.334 75.1088 188.628 74.6906 189.069 74.4759C189.51 74.2612 189.984 74.0803 190.482 73.9221C190.764 73.8317 191.047 73.7865 191.341 73.7639C191.634 73.7413 191.928 73.73 192.233 73.73C192.731 73.73 193.092 73.9108 193.341 74.2838C193.578 74.6567 193.612 75.0636 193.443 75.5156C193.183 76.205 192.911 76.8831 192.629 77.5386C192.346 78.1941 192.075 78.8722 191.815 79.5616C191.555 80.251 191.295 80.9404 191.035 81.6185C190.775 82.2966 190.527 82.986 190.289 83.6754C190.165 84.0484 190.052 84.4213 189.95 84.7943C189.849 85.1672 189.747 85.5402 189.645 85.9131C189.815 86.0262 189.973 86.1279 190.097 86.2183C190.233 86.32 190.38 86.4217 190.549 86.5234C190.855 86.1731 191.171 85.8227 191.51 85.4498C191.849 85.0881 192.177 84.7039 192.505 84.3196C192.595 84.2066 192.674 84.1162 192.742 84.0258C192.821 83.9354 192.923 83.9467 193.047 84.0597C193.092 84.1049 193.104 84.1953 193.092 84.3309C193.081 84.4665 193.058 84.5796 193.013 84.6361C192.708 85.0203 192.414 85.4159 192.143 85.8001C191.86 86.1844 191.544 86.546 191.205 86.8738C190.9 87.1563 190.572 87.3937 190.233 87.6084C189.883 87.8118 189.532 88.0153 189.159 88.2074C188.945 88.3204 188.719 88.4108 188.481 88.4786C188.244 88.5577 188.007 88.6368 187.769 88.7273C187.464 88.8403 187.148 88.8516 186.797 88.7725C186.447 88.6933 186.13 88.5577 185.837 88.3656C185.543 88.1735 185.305 87.9135 185.125 87.6084C184.944 87.2919 184.853 86.9416 184.853 86.5573C184.853 86.4669 184.842 86.3878 184.819 86.2974C184.797 86.207 184.774 86.1053 184.752 85.9697C184.56 86.1618 184.379 86.3426 184.198 86.5234C184.028 86.693 183.836 86.8625 183.644 87.0094C183.011 87.5067 182.344 87.9248 181.632 88.2752C180.92 88.6255 180.152 88.8064 179.327 88.829C178.457 88.8516 177.711 88.5803 177.055 88.004C176.411 87.4276 175.982 86.7382 175.789 85.9131C175.53 84.7491 175.518 83.6415 175.744 82.5905C175.97 81.5394 176.366 80.5223 176.931 79.5277C177.62 78.3184 178.457 77.2674 179.429 76.3633C180.401 75.4704 181.542 74.7584 182.83 74.2386C183.113 74.1255 183.407 74.069 183.723 74.0464C184.04 74.0238 184.345 73.9899 184.65 73.9447C185 73.8995 185.339 73.8995 185.667 73.9334C186.006 73.9673 186.323 74.0803 186.628 74.2725C186.933 74.442 187.215 74.6454 187.475 74.8714C187.735 75.0975 187.893 75.4139 187.961 75.8321L187.984 75.8095ZM178.219 84.5004H178.185V84.6022C178.231 84.6022 178.253 84.5909 178.253 84.5683L178.219 84.5004ZM179.655 85.9923H179.756L179.655 85.6984V85.9923ZM180.107 84.8282C180.174 85.3933 180.242 85.7888 180.321 86.0149C180.401 86.2409 180.559 86.5121 180.796 86.8399C181.079 87.2128 181.406 87.3033 181.768 87.1337C181.881 87.0885 181.983 87.0433 182.073 87.0094C182.175 86.9642 182.277 86.9077 182.378 86.8512C183.068 86.3539 183.655 85.7775 184.13 85.1107C184.605 84.4552 185.012 83.7432 185.362 82.986C185.475 82.7035 185.554 82.4209 185.611 82.1271C185.667 81.8333 185.746 81.5507 185.848 81.2682C186.017 80.7709 186.221 80.2736 186.436 79.7764C186.65 79.2791 186.842 78.7818 187.023 78.2845C187.136 78.002 187.227 77.7195 187.295 77.4369C187.374 77.1544 187.419 76.8605 187.441 76.5667C187.487 76.2163 187.374 75.9451 187.102 75.7191C186.831 75.5043 186.537 75.38 186.21 75.3574C185.837 75.3348 185.531 75.4026 185.272 75.5495C185.012 75.6965 184.752 75.8773 184.492 76.0694C183.667 76.7023 183 77.4256 182.469 78.2619C181.938 79.0983 181.485 80.0024 181.124 80.9743C181.011 81.2795 180.932 81.5733 180.864 81.8672C180.796 82.161 180.728 82.4548 180.672 82.76L180.186 84.8056L180.107 84.8282Z" fill="white"/>
<path d="M208.416 86.546C208.653 86.1957 208.902 85.8566 209.162 85.5289C209.422 85.1898 209.671 84.8395 209.908 84.4778C210.077 84.2179 210.247 83.9579 210.405 83.6867C210.563 83.4154 210.733 83.1555 210.902 82.8956C210.948 82.8278 211.015 82.7826 211.117 82.7486C211.219 82.7147 211.309 82.6808 211.388 82.6356C211.411 82.7487 211.434 82.873 211.468 83.0086C211.501 83.1442 211.49 83.2459 211.456 83.2798C211.287 83.4041 211.14 83.5624 211.015 83.7545C210.891 83.9353 210.789 84.1274 210.71 84.3196C210.62 84.5117 210.53 84.7038 210.439 84.9073C210.337 85.0994 210.224 85.2802 210.1 85.4271C209.727 85.834 209.377 86.2635 209.049 86.6929C208.71 87.1224 208.326 87.5066 207.896 87.8231C207.354 88.2526 206.777 88.5916 206.156 88.8289C205.545 89.0663 204.867 89.0663 204.133 88.8289C203.398 88.5916 202.89 88.0717 202.607 87.2693C202.494 86.9868 202.426 86.6929 202.381 86.3878C202.336 86.0826 202.279 85.7775 202.223 85.4497C202.053 85.6419 201.872 85.8453 201.692 86.0713C201.511 86.2861 201.319 86.5008 201.127 86.7155C201.014 86.8285 200.901 86.919 200.788 86.9868C200.663 87.0659 200.55 87.145 200.448 87.2241C199.409 88.0039 198.245 88.4899 196.945 88.682C196.278 88.795 195.589 88.6481 194.888 88.2639C194.187 87.8796 193.69 87.2806 193.408 86.4782C193.215 85.9131 193.102 85.3367 193.068 84.7377C193.035 84.1387 193.102 83.5398 193.283 82.9408C193.498 82.2514 193.69 81.5507 193.848 80.8387C194.007 80.1267 194.199 79.426 194.413 78.7253C194.538 78.3184 194.685 77.9002 194.854 77.4934C195.012 77.0865 195.227 76.7023 195.487 76.3632C195.894 75.8207 196.391 75.4139 196.968 75.1426C197.544 74.8714 198.177 74.7132 198.866 74.668C199.036 74.6454 199.205 74.6228 199.352 74.6002C199.499 74.5776 199.669 74.5889 199.838 74.6341C200.245 74.7019 200.561 74.8827 200.765 75.1653C200.968 75.4591 201.025 75.8094 200.912 76.2163C200.821 76.6006 200.72 76.9848 200.607 77.3691C200.482 77.742 200.369 78.115 200.268 78.4879C200.098 79.0304 199.929 79.5616 199.77 80.0815C199.612 80.6013 199.443 81.1325 199.273 81.675C199.104 82.1723 198.934 82.6695 198.787 83.1781C198.64 83.6867 198.505 84.1953 198.403 84.7151C198.358 84.9751 198.369 85.2463 198.437 85.5289C198.505 85.8114 198.561 86.0939 198.595 86.3765C198.595 86.4217 198.64 86.4669 198.719 86.5008C198.81 86.546 198.878 86.5799 198.945 86.6025C199.307 86.6703 199.635 86.6138 199.906 86.4443C200.177 86.2748 200.437 86.0939 200.697 85.9244C201.059 85.6871 201.364 85.4045 201.601 85.0655C201.839 84.7264 202.076 84.3761 202.313 84.0144C202.596 83.5398 202.822 83.0538 202.991 82.5678C203.161 82.0819 203.364 81.5846 203.579 81.0873C203.794 80.6352 203.975 80.1719 204.11 79.6972C204.246 79.2225 204.393 78.7366 204.551 78.2393C204.641 77.9568 204.732 77.6855 204.845 77.4256C204.958 77.1656 205.037 76.8831 205.105 76.578C205.15 76.3858 205.308 76.2163 205.579 76.0581C205.851 75.9112 206.099 75.7642 206.337 75.6399C206.789 75.4026 207.263 75.2331 207.749 75.1426C208.235 75.0409 208.733 74.9844 209.23 74.9618C209.591 74.9392 209.874 74.9957 210.077 75.1426C210.27 75.2783 210.428 75.5382 210.53 75.8999C210.643 76.1824 210.676 76.4423 210.643 76.6797C210.609 76.917 210.541 77.1769 210.428 77.4595C210.258 77.8324 210.123 78.2054 210.021 78.5783C209.919 78.9513 209.806 79.3243 209.682 79.6972C209.512 80.2623 209.32 80.8274 209.128 81.4038C208.936 81.9801 208.755 82.5452 208.574 83.1103C208.439 83.4946 208.326 83.8901 208.213 84.2744C208.1 84.6586 207.998 85.0542 207.885 85.4384C207.84 85.6532 207.862 85.834 207.93 85.9922C208.009 86.1391 208.19 86.2748 208.495 86.3765L208.416 86.546Z" fill="white"/>
<path d="M220.339 77.2666C220.033 77.504 219.74 77.73 219.468 77.9447C219.186 78.1595 218.937 78.3968 218.722 78.6567C218.463 78.9619 218.225 79.2896 218.01 79.64C217.796 79.9903 217.615 80.3633 217.457 80.7249C217.129 81.5273 216.835 82.3298 216.564 83.1435C216.293 83.9572 215.987 84.7596 215.637 85.562C215.4 86.1271 215.083 86.6357 214.676 87.099C214.281 87.5624 213.795 87.9354 213.23 88.2179C212.8 88.4326 212.348 88.6022 211.885 88.7039C211.422 88.8169 210.947 88.9073 210.472 88.9977C210.065 89.0881 209.738 88.9864 209.512 88.6926C209.286 88.3987 209.24 88.0484 209.365 87.6415C209.466 87.3364 209.591 87.0312 209.704 86.7374C209.828 86.4323 209.941 86.1271 210.043 85.8333C210.258 85.2117 210.472 84.5788 210.676 83.9346C210.879 83.3017 211.071 82.6575 211.241 82.002C211.354 81.5952 211.444 81.177 211.512 80.7701C211.591 80.3633 211.682 79.9451 211.783 79.5383C211.919 79.1088 212.054 78.6793 212.224 78.2612C212.382 77.843 212.552 77.4135 212.733 76.9841C212.8 76.8146 212.857 76.6337 212.913 76.4529C212.97 76.2721 213.038 76.0913 213.128 75.9217C213.298 75.6166 213.535 75.4132 213.829 75.3114C214.123 75.1984 214.405 75.0854 214.688 74.9498C215.185 74.7351 215.694 74.5768 216.191 74.4977C216.688 74.4186 217.219 74.4073 217.762 74.4977C218.146 74.5655 218.451 74.7577 218.655 75.0854C218.858 75.4132 218.915 75.7635 218.835 76.1591C218.79 76.419 218.745 76.6789 218.689 76.9389C218.632 77.1988 218.587 77.4814 218.542 77.7865C218.824 77.5944 219.084 77.4022 219.333 77.2214C219.581 77.0406 219.83 76.8598 220.067 76.6902C220.7 76.2382 221.367 75.8652 222.079 75.5827C222.791 75.3001 223.526 75.0967 224.283 74.9724C224.927 74.8594 225.526 75.0176 226.08 75.4245C226.634 75.8313 226.995 76.3851 227.165 77.0745C227.278 77.5718 227.278 78.0464 227.176 78.4985C227.074 78.9506 226.973 79.4026 226.871 79.8547C226.701 80.5441 226.509 81.2222 226.317 81.9003C226.125 82.5671 225.933 83.2565 225.729 83.9459C225.616 84.2962 225.503 84.6353 225.39 84.9856C225.266 85.336 225.153 85.6863 225.017 86.0593C225.063 86.1045 225.13 86.1723 225.21 86.2514C225.3 86.3418 225.357 86.3757 225.402 86.3531C225.571 86.2853 225.752 86.2175 225.933 86.1271C226.114 86.0367 226.272 85.935 226.408 85.7994C226.713 85.4942 227.007 85.1891 227.3 84.8726C227.594 84.5562 227.922 84.2397 228.295 83.912C228.295 84.025 228.306 84.138 228.329 84.2736C228.351 84.4093 228.34 84.511 228.295 84.6014C227.843 85.4038 227.3 86.1271 226.69 86.7713C226.08 87.4155 225.368 87.9693 224.565 88.4213C224.068 88.7265 223.56 88.9186 223.028 89.0203C222.497 89.122 221.955 89.0768 221.39 88.9073C221.198 88.8395 221.005 88.7378 220.825 88.6022C220.644 88.4665 220.474 88.297 220.327 88.1049C220.18 87.9128 220.045 87.7093 219.943 87.4946C219.83 87.2799 219.774 87.0764 219.751 86.873C219.638 86.161 219.672 85.4716 219.83 84.7935C219.988 84.1267 220.214 83.4712 220.497 82.8496C220.757 82.2506 220.971 81.6291 221.13 80.9962C221.288 80.3746 221.424 79.7304 221.537 79.0862C221.582 78.9167 221.616 78.7358 221.65 78.555C221.683 78.3742 221.695 78.1934 221.695 78.0238C221.695 77.8995 221.672 77.7639 221.627 77.6396C221.582 77.5153 221.537 77.3796 221.491 77.2553C221.254 77.3005 221.039 77.3683 220.858 77.4475C220.678 77.5379 220.497 77.4475 220.327 77.1875V77.2666H220.339ZM215.321 77.6622L215.287 77.6283C215.264 77.6283 215.253 77.6283 215.242 77.6396C215.23 77.6509 215.219 77.6509 215.196 77.6509H215.321V77.6622Z" fill="white"/>
<path d="M234.16 84.4997C234.024 84.8727 234.013 85.223 234.092 85.5734C234.182 85.9237 234.341 86.2289 234.578 86.5114C234.815 86.7939 235.109 87.02 235.471 87.1895C235.832 87.359 236.217 87.4607 236.657 87.4833C237.087 87.5059 237.482 87.4607 237.821 87.3364C238.172 87.2121 238.477 87.0652 238.748 86.8618C239.019 86.6696 239.268 86.4323 239.505 86.1611C239.743 85.8898 239.969 85.6073 240.184 85.3021C240.376 84.997 240.568 84.9405 240.771 85.1439C240.839 85.2343 240.896 85.3586 240.929 85.5169C240.975 85.6751 240.975 85.7768 240.929 85.822C240.624 86.1271 240.319 86.4323 240.025 86.7261C239.72 87.0313 239.392 87.3138 239.053 87.5738C238.149 88.2632 237.189 88.7265 236.183 88.9639C235.177 89.2012 234.126 89.2803 233.018 89.1899C232.589 89.1447 232.205 89.0204 231.888 88.8169C231.56 88.6135 231.255 88.3875 230.95 88.1501C230.69 87.958 230.419 87.7659 230.136 87.5851C229.854 87.4042 229.628 87.1895 229.458 86.9522C229.221 86.6244 229.006 86.2741 228.825 85.9011C228.645 85.5282 228.475 85.1439 228.317 84.7483C228.125 84.2285 228.023 83.7199 228.012 83.2226C228 82.7254 228.057 82.2394 228.17 81.7647C228.294 81.29 228.441 80.8154 228.645 80.352C228.837 79.8886 229.04 79.4253 229.266 78.9732C229.617 78.2612 230.035 77.6057 230.543 77.0067C231.052 76.4077 231.651 75.8992 232.34 75.4697C232.837 75.1646 233.357 74.8933 233.911 74.656C234.465 74.4186 235.019 74.1813 235.584 73.944C235.912 73.8197 236.239 73.6953 236.59 73.6049C236.94 73.5032 237.279 73.458 237.629 73.458C238.149 73.4806 238.669 73.5371 239.189 73.6162C239.709 73.7066 240.229 73.7745 240.749 73.8423C241.076 73.8875 241.37 73.9666 241.641 74.1022C241.913 74.2265 242.161 74.396 242.399 74.5882C242.726 74.8481 242.998 75.1307 243.224 75.4471C243.45 75.7635 243.54 76.1591 243.495 76.6338C243.472 76.8259 243.461 77.018 243.461 77.2215C243.461 77.4136 243.45 77.6057 243.427 77.8091C243.337 78.4985 243.122 79.1201 242.783 79.6626C242.444 80.2051 242.06 80.725 241.653 81.2222C241.506 81.3918 241.325 81.55 241.122 81.6969C240.918 81.8325 240.703 81.9568 240.489 82.0699C239.924 82.375 239.37 82.6688 238.839 82.9627C238.296 83.2565 237.731 83.5052 237.155 83.7199C236.703 83.8894 236.217 84.0137 235.708 84.0816C235.2 84.1494 234.691 84.2285 234.171 84.3415V84.4997H234.16ZM234.182 81.4822L234.284 81.5839C234.397 81.5387 234.51 81.4935 234.646 81.4596C234.77 81.4144 234.894 81.3579 235.007 81.3013C235.674 80.9397 236.262 80.4989 236.77 79.9904C237.279 79.4818 237.742 78.9167 238.183 78.2838C238.398 77.9561 238.579 77.6057 238.714 77.2328C238.85 76.8598 238.986 76.4868 239.121 76.1139C239.234 75.8314 239.223 75.6392 239.11 75.5488C238.986 75.4471 238.805 75.4584 238.545 75.5601C238.307 75.6731 238.07 75.7974 237.833 75.9444C237.595 76.0913 237.392 76.2721 237.223 76.4642C236.917 76.792 236.624 77.1197 236.33 77.4701C236.036 77.8204 235.765 78.1708 235.505 78.5437C235.2 78.9958 234.94 79.4705 234.725 79.9678C234.51 80.465 234.329 80.9736 234.171 81.4935H234.182V81.4822ZM235.426 88.0032V88.0371H235.459L235.426 88.0032Z" fill="white"/>
<path d="M128.825 72.6566L129.085 72.8488V71.6282V71.2891C129.085 71.0179 129.006 70.8032 128.836 70.6562C128.678 70.498 128.463 70.4302 128.226 70.4302H128.124L127.989 70.4415V69.6617C128.316 69.5713 128.554 69.4922 128.712 69.4357C129.435 69.1644 130.102 68.8819 130.701 68.5654H131.797V78.1153L132.769 77.9006V78.9064C131.865 79.1664 131.006 79.4376 130.193 79.7088H129.085V78.5561C128.882 78.7934 128.656 78.9855 128.418 79.1551C127.898 79.5167 127.356 79.6975 126.813 79.6975C126.248 79.6975 125.762 79.4941 125.322 79.0986C124.881 78.703 124.587 78.1266 124.417 77.392C124.361 77.1208 124.316 76.8834 124.304 76.68C124.282 76.4314 124.271 76.2392 124.271 76.1149C124.271 75.5046 124.361 74.9396 124.553 74.4197C124.723 73.9676 124.96 73.5721 125.265 73.233C125.57 72.9053 125.921 72.6453 126.305 72.4758C126.689 72.3063 127.073 72.2159 127.446 72.2159C127.977 72.2385 128.43 72.3741 128.825 72.6566ZM129.096 73.7642L128.938 73.5947C128.904 73.5608 128.859 73.5155 128.791 73.4703C128.554 73.2782 128.328 73.1878 128.102 73.1878C127.91 73.1878 127.729 73.2669 127.559 73.4138C127.39 73.5721 127.254 73.7981 127.152 74.1032C126.994 74.5327 126.926 75.143 126.926 75.9341C126.926 76.0019 126.938 76.0697 126.938 76.1262C126.938 76.1827 126.938 76.2618 126.938 76.3523C126.949 76.8495 127.006 77.279 127.119 77.6632C127.277 78.1379 127.559 78.3753 127.966 78.3753C128.226 78.3753 128.475 78.2848 128.701 78.0927C128.769 78.0362 128.848 77.9571 128.949 77.8554C129.04 77.7537 129.085 77.6972 129.085 77.6859V73.7642H129.096Z" fill="white"/>
<path d="M139.766 74.6336C139.845 74.8257 139.912 75.0066 139.935 75.1761L135.9 76.8713L135.946 77.0183C136.047 77.3008 136.239 77.5833 136.511 77.8659C136.827 78.1936 137.234 78.3857 137.743 78.4423C138.229 78.4423 138.635 78.3744 138.963 78.2275C139.008 78.2049 139.087 78.171 139.189 78.1032L139.46 77.945L139.845 78.6909C139.743 78.7813 139.619 78.8491 139.506 78.9056C138.76 79.3351 138.025 79.595 137.302 79.6854C137.166 79.708 136.974 79.708 136.714 79.708C136.002 79.708 135.381 79.5611 134.838 79.2673C134.296 78.9734 133.866 78.5553 133.561 78.0241C133.256 77.4816 133.109 76.86 133.109 76.1593C133.109 75.8542 133.131 75.549 133.188 75.2326C133.312 74.5771 133.55 74.012 133.889 73.5486C134.239 73.0853 134.68 72.7349 135.211 72.5089C135.72 72.2942 136.206 72.1812 136.669 72.1812C137.358 72.1812 137.969 72.3959 138.511 72.814C139.054 73.2661 139.472 73.8651 139.766 74.6336ZM136.545 75.4247C136.737 75.3569 136.872 75.2665 136.94 75.1761C137.008 75.0857 137.053 74.9501 137.053 74.7805C137.053 74.6788 137.042 74.5319 137.008 74.3511C136.974 74.1363 136.895 73.9329 136.782 73.7408C136.669 73.5486 136.556 73.4017 136.443 73.3226C136.307 73.2209 136.172 73.1644 136.025 73.1644C135.731 73.1644 135.505 73.3339 135.381 73.6617C135.324 73.7973 135.279 74.012 135.256 74.3172C135.256 74.7692 135.301 75.2213 135.381 75.6621C135.381 75.6847 135.392 75.7186 135.403 75.7638C135.414 75.809 135.426 75.8655 135.437 75.922L136.545 75.4247Z" fill="white"/>
<path d="M144.415 70.4292L144.291 70.4405V69.6607C144.585 69.5816 144.822 69.5025 144.992 69.4347C145.692 69.186 146.359 68.8922 146.981 68.5645H148.054V77.3232V77.651C148.054 77.9109 148.077 78.103 148.122 78.2161C148.167 78.3291 148.269 78.4308 148.405 78.5212C148.439 78.5438 148.484 78.5777 148.563 78.589L148.642 78.6116L148.744 78.6229H148.846H148.925H148.947H149.026H149.128V79.4931H144.302V78.6229H144.404H144.483H144.494H144.574H144.675L144.766 78.6116L144.845 78.589C144.969 78.5551 145.071 78.4986 145.15 78.3969C145.24 78.3178 145.297 78.2387 145.319 78.1595C145.342 78.0691 145.353 77.8996 145.365 77.651V77.3119V77.3684V71.6272V71.2881C145.365 71.0169 145.286 70.8022 145.116 70.6553C144.958 70.497 144.743 70.4292 144.506 70.4292H144.427H144.415Z" fill="white"/>
<path d="M152.903 75.3797C152.914 75.3797 152.982 75.3684 153.106 75.3458C153.23 75.3232 153.332 75.3119 153.411 75.2893V74.679C153.411 74.3739 153.321 74.1365 153.151 73.9783C152.982 73.8088 152.722 73.7297 152.383 73.7297C152.213 73.7297 152.078 73.741 151.976 73.7523C151.784 73.7862 151.467 73.9444 151.027 74.2043C150.586 74.4643 150.326 74.6225 150.258 74.679L149.738 73.9557C149.874 73.8427 149.964 73.7636 150.021 73.7184C150.552 73.2776 151.072 72.9386 151.569 72.7125C152.066 72.4865 152.564 72.3396 153.061 72.2718C153.321 72.2492 153.558 72.2266 153.773 72.2266C154.575 72.2266 155.152 72.4187 155.525 72.7916C155.898 73.1646 156.078 73.7297 156.078 74.4869V77.3914L156.09 77.6514C156.09 77.9452 156.191 78.0921 156.406 78.0921C156.44 78.0921 156.497 78.0808 156.564 78.0695C156.598 78.0582 156.677 77.9791 156.779 77.8322C156.881 77.6853 156.971 77.5722 157.017 77.5044C157.13 77.5044 157.197 77.5157 157.209 77.5496C157.22 77.5722 157.22 77.6627 157.22 77.8209V78.6685C157.209 78.6798 157.186 78.7137 157.152 78.7476C157.118 78.7815 157.096 78.8154 157.084 78.8267C156.451 79.4257 155.807 79.7309 155.14 79.7309C154.994 79.7309 154.88 79.7309 154.813 79.7196C154.112 79.6291 153.637 79.3466 153.366 78.8832L153.14 79.0528C153.117 79.0754 153.027 79.1319 152.869 79.2223C152.699 79.3127 152.507 79.4031 152.292 79.4935C152.066 79.5839 151.863 79.6404 151.66 79.6743C151.467 79.6969 151.343 79.6969 151.264 79.6969C150.597 79.6969 150.1 79.4483 149.761 78.951C149.546 78.6233 149.433 78.2842 149.433 77.9565C149.433 77.6174 149.546 77.2897 149.772 76.9733C149.998 76.6568 150.349 76.363 150.812 76.103C151.275 75.8431 151.852 75.6284 152.552 75.4701C152.62 75.4475 152.688 75.4362 152.767 75.4136C152.824 75.391 152.88 75.3797 152.903 75.3797ZM153.389 75.9787C153.151 76.0239 152.925 76.1369 152.688 76.3178C152.349 76.589 152.146 76.9054 152.078 77.2784C152.055 77.4027 152.032 77.5157 152.032 77.6061C152.032 77.8661 152.089 78.0695 152.213 78.2164C152.338 78.3634 152.485 78.4425 152.677 78.4425C152.756 78.4425 152.835 78.4312 152.914 78.3973C152.993 78.3747 153.05 78.3521 153.084 78.3294L153.389 78.126V75.9787Z" fill="white"/>
<mask id="path-18-inside-1_248_22297" fill="white">
<path d="M52.0476 24.0179C53.335 25.544 57.3718 30.2523 58.2228 30.4255C58.2228 30.4255 64.1472 29.7003 68.3804 30.3497C68.3804 30.3497 71.3698 27.6546 74.5993 24.072C74.8611 24.1478 75.1229 24.2236 75.3957 24.2993C74.9047 24.8405 74.4138 25.3817 73.9228 25.9337C70.3115 29.96 68.6204 31.1831 68.6204 31.1831C68.6204 31.1831 66.0128 30.88 63.2525 30.88C60.1758 30.88 57.8846 31.1831 57.8846 31.1831C57.8846 31.1831 56.1935 29.96 52.5822 25.9337C52.0803 25.3817 51.5894 24.8297 51.0875 24.2777C51.4039 24.2019 51.7203 24.1045 52.0476 24.0179ZM31.3943 81.6207C30.6306 84.0344 29.7251 85.8852 29.1141 87C28.9832 86.816 28.8631 86.6428 28.7431 86.4588C30.1178 84.1751 31.3289 79.088 31.3289 79.088C30.6743 78.0706 30.6743 76.328 30.6743 76.328L30.0196 77.3454C25.9283 65.4504 31.2634 57.0405 31.2634 57.0405C28.634 57.0405 27.8267 55.9581 27.8267 55.9581C30.3797 55.233 33.5328 52.04 33.5328 52.04C31.3398 52.1158 31.4162 50.8819 31.4162 50.8819C35.8785 49.5723 35.5075 45.0047 35.5839 39.712C35.6275 36.4217 35.7257 34.0838 35.8021 32.785C36.053 32.5685 36.304 32.352 36.5549 32.1464C36.1622 38.7596 36.4131 45.5784 35.5839 47.8946C34.602 50.633 32.7909 51.0659 32.7909 51.0659C32.7909 51.0659 33.2709 51.304 34.0455 51.304C34.8202 51.304 35.202 51.12 35.202 51.12C35.202 51.12 34.1983 52.6137 32.4308 53.9883C30.6633 55.3629 29.4087 55.9473 29.4087 55.9473C29.4087 55.9473 30.2597 56.2287 31.2961 56.2396C32.3217 56.2504 32.8454 56.0989 32.8454 56.0989C32.8454 56.0989 30.216 59.7031 29.5396 65.656C28.9068 71.2301 30.1178 76.5012 30.1178 76.5012C30.1178 76.5012 30.2378 75.7435 30.6306 74.5313C31.0234 73.3191 31.5798 72.5398 31.5798 72.5398C31.5798 72.5398 31.2198 73.5897 31.2416 75.3539C31.2743 77.1181 31.7653 78.233 31.7653 78.233C31.7653 78.233 31.7544 76.945 32.038 75.9059C32.3217 74.8885 32.5727 74.3581 32.5836 74.3257C32.4963 76.0466 32.2344 78.969 31.3943 81.6207ZM42.632 96.1892C42.632 96.1892 43.2102 98.2998 44.3013 100.216C41.65 98.8626 39.1625 97.2391 36.8822 95.3774C36.4022 94.6089 35.8239 93.5699 35.2893 92.2278C35.4093 92.3793 35.5294 92.5417 35.6494 92.704C36.8495 94.3059 38.8788 95.4099 38.8788 95.4099C38.8788 95.4099 36.7295 92.8231 35.7367 88.9591C34.9293 85.8094 34.7329 83.3092 34.6893 82.4433C34.8202 82.768 34.962 83.0927 35.1148 83.4174C37.3514 88.2664 40.8536 91.6866 40.8536 91.6866C40.8536 91.6866 40.4063 90.2038 40.2208 88.5369C40.1117 87.5953 40.1226 86.7727 40.1553 86.1991C40.5481 87.9633 41.4864 90.9614 43.7776 95.4099C44.6068 97.0659 45.5559 98.6353 46.3851 99.9233C44.0394 97.9318 42.632 96.1892 42.632 96.1892ZM46.1887 73.9901C46.4288 73.7304 46.7343 73.5139 46.7343 73.5139C46.7343 73.5139 46.4288 74.0334 46.276 74.5854C46.1124 75.1483 46.0033 75.8843 46.0033 75.8843C46.0033 75.8843 46.4397 74.8993 46.9416 74.1741C47.3125 73.6438 47.6398 73.2866 47.7926 73.1351C48.0762 73.633 48.349 74.1958 48.589 74.8019C48.1962 75.2673 47.3234 76.4904 46.8215 78.4927C46.1451 81.112 46.4724 83.5473 46.4724 83.5473C46.4724 83.5473 46.9525 81.8805 48.0435 80.5167C48.829 79.5318 49.4946 78.9581 49.8001 78.7092C50.1819 80.3652 50.1928 81.1878 50.1928 81.1878C50.1928 81.1878 49.7237 82.4108 49.6146 85.7661C49.5055 89.1214 50.6293 92.2061 50.6293 92.2061C50.6293 92.2061 49.2982 90.3228 48.8836 86.4805C48.469 82.649 49.3637 80.2894 49.3637 80.2894C49.3637 80.2894 47.6507 81.8588 46.9852 85.16C46.3197 88.4612 47.1161 92.0438 47.1161 92.0438C47.1161 92.0438 45.5669 88.7101 45.3377 84.6621C45.1195 80.6033 45.6214 76.8259 45.6214 76.8259C45.6214 76.8259 44.7268 78.3845 44.454 81.1337C44.1812 83.8937 44.2903 86.513 44.2903 86.513C44.2903 86.513 42.1956 82.7464 42.7738 77.6485C43.3411 72.5614 45.4359 70.1153 45.4359 70.1153C45.4359 70.1153 46.1887 70.7647 47.0507 71.9553C46.8434 72.2043 46.4942 72.6588 46.2433 73.1892C45.8723 73.9685 45.7742 74.5313 45.7742 74.5313C45.7742 74.5313 45.9487 74.2499 46.1887 73.9901ZM57.1645 104.296C56.4117 103.982 55.3534 103.528 54.2951 102.965C52.4295 101.98 51.5239 100.995 51.5239 100.995C51.5239 100.995 51.9821 101.98 52.7459 102.867C52.9968 103.16 53.215 103.376 53.4114 103.571C53.2805 103.538 53.1386 103.506 53.0077 103.473C52.004 102.878 50.2256 101.514 48.0435 98.5054C46.9852 97.0984 46.0796 95.4099 45.2941 93.6998C45.3486 93.7755 45.4032 93.8621 45.4578 93.9379C48.2508 97.8993 50.8147 99.9449 50.8147 99.9449C50.8147 99.9449 50.1056 98.9059 49.5164 97.5097C48.9272 96.1134 48.469 94.728 48.469 94.728C48.469 94.728 50.4983 98.0292 54.0769 100.952C56.0844 102.586 57.5573 103.636 58.7684 104.491C58.2228 104.437 57.6882 104.372 57.1645 104.296ZM62.1178 104.718C61.7905 104.253 61.245 103.549 60.4049 102.651C58.8229 100.984 57.0773 99.9774 54.4479 96.3299C51.8185 92.6824 51.9712 88.721 51.9712 88.721C52.1894 89.2838 52.0694 90.4202 53.7169 93.2452C55.3643 96.0701 57.47 97.9101 57.47 97.9101C57.47 97.9101 57.1645 97.2607 56.9682 96.384C56.7609 95.5073 56.7936 94.6306 56.7936 94.6306C56.7936 94.6306 56.99 95.6805 57.6664 97.0551C58.3429 98.4297 58.7356 99.0899 60.2849 101.2C61.3105 102.597 61.9651 103.95 62.2815 104.718C62.2269 104.718 62.1724 104.718 62.1178 104.718ZM60.7213 93.0179C58.9647 92.5741 57.6446 91.2104 57.6446 91.2104C57.6446 91.2104 58.3647 91.3511 59.2593 91.2212C60.154 91.0913 60.9613 90.7341 61.8123 90.4419C62.2815 90.2904 62.7943 90.2146 63.2961 90.2146C63.798 90.2146 64.289 90.3012 64.7036 90.4419C65.5546 90.7341 66.3619 91.0913 67.2566 91.2212C68.1403 91.3511 68.8604 91.1995 68.8604 91.1995C68.8604 91.1995 67.5294 92.5308 65.7837 93.0071C64.0708 93.4833 62.1287 93.3642 60.7213 93.0179ZM66.1001 102.651C65.2491 103.538 64.7145 104.242 64.3872 104.718C64.3326 104.718 64.289 104.718 64.2344 104.718C64.5617 103.95 65.2055 102.597 66.231 101.2C67.7803 99.0899 68.1731 98.4405 68.8495 97.0551C69.5259 95.6805 69.7223 94.6306 69.7223 94.6306C69.7223 94.6306 69.7442 95.5073 69.5478 96.384C69.3405 97.2607 69.0459 97.9101 69.0459 97.9101C69.0459 97.9101 71.1516 96.0701 72.799 93.2452C74.4465 90.4202 74.3156 89.2838 74.5447 88.721C74.5447 88.721 74.7084 92.6824 72.079 96.3299C69.4278 99.9774 67.6821 100.984 66.1001 102.651ZM73.7482 103.387C73.5846 103.43 73.4209 103.473 73.2573 103.506C73.4428 103.322 73.6391 103.116 73.8573 102.856C74.6211 101.969 75.0793 100.984 75.0793 100.984C75.0793 100.984 74.1737 101.969 72.3081 102.954C71.3043 103.484 70.2897 103.928 69.5369 104.242C68.9477 104.328 68.3585 104.404 67.7585 104.469C68.9695 103.614 70.4315 102.564 72.4281 100.941C76.0067 98.0184 78.036 94.7172 78.036 94.7172C78.036 94.7172 77.5778 96.1026 76.9886 97.4988C76.3995 98.8951 75.6903 99.9341 75.6903 99.9341C75.6903 99.9341 78.2542 97.8885 81.0473 93.9271C81.2109 93.6998 81.3636 93.4617 81.5164 93.2235C80.6763 95.096 79.7053 96.9577 78.5488 98.4946C76.4867 101.363 74.7738 102.748 73.7482 103.387ZM76.9013 85.7661C76.7922 82.4108 76.3231 81.1878 76.3231 81.1878C76.3231 81.1878 76.3231 80.3652 76.7159 78.7092C77.0213 78.9581 77.6869 79.5318 78.4724 80.5167C79.5635 81.8805 80.0435 83.5473 80.0435 83.5473C80.0435 83.5473 80.3599 81.1228 79.6944 78.4927C79.1816 76.5012 78.3088 75.2781 77.9269 74.8019C78.1669 74.1958 78.4397 73.633 78.7234 73.1351C78.8761 73.2866 79.2034 73.6438 79.5744 74.1741C80.0762 74.8885 80.5126 75.8843 80.5126 75.8843C80.5126 75.8843 80.3926 75.1483 80.2399 74.5854C80.0653 74.0334 79.7707 73.5139 79.7707 73.5139C79.7707 73.5139 80.0762 73.7304 80.3163 73.9901C80.5563 74.2499 80.7527 74.5421 80.7527 74.5421C80.7527 74.5421 80.6545 73.9793 80.2835 73.2C80.0326 72.6697 79.6835 72.2151 79.4762 71.9661C80.3272 70.7756 81.0909 70.1261 81.0909 70.1261C81.0909 70.1261 83.1857 72.5614 83.753 77.6593C84.3204 82.7464 82.2365 86.5238 82.2365 86.5238C82.2365 86.5238 82.3347 83.9045 82.0728 81.1445C81.8001 78.3845 80.9054 76.8367 80.9054 76.8367C80.9054 76.8367 81.4073 80.6141 81.1891 84.673C80.9709 88.7318 79.4107 92.0546 79.4107 92.0546C79.4107 92.0546 80.2072 88.472 79.5416 85.1708C78.8761 81.8697 77.1632 80.3003 77.1632 80.3003C77.1632 80.3003 78.0469 82.6598 77.6432 86.4913C77.2286 90.3228 75.8976 92.2169 75.8976 92.2169C75.8976 92.2169 77.0213 89.1214 76.9013 85.7661ZM90.8229 92.7148C91.0302 92.4442 91.2266 92.1845 91.423 91.9355C90.9211 93.2344 90.3756 94.2734 89.9064 95.0635C87.5935 96.9901 85.0732 98.6786 82.3674 100.075C83.4039 98.2024 83.9603 96.1892 83.9603 96.1892C83.9603 96.1892 82.5529 97.9318 80.2181 99.9341C81.0473 98.6461 81.9964 97.0767 82.8256 95.4207C84.9641 91.2537 85.9242 88.3746 86.3606 86.5671C86.3715 87.1083 86.3606 87.7901 86.2733 88.5369C86.0878 90.2038 85.6405 91.6866 85.6405 91.6866C85.6405 91.6866 89.1318 88.2664 91.3793 83.4174C91.5321 83.0927 91.663 82.7788 91.8048 82.465C91.7612 84.6405 91.1284 87.4654 90.7465 88.9699C89.7537 92.8339 87.6044 95.4207 87.6044 95.4207C87.6044 95.4207 89.6228 94.3167 90.8229 92.7148ZM91.5975 65.9916C90.4738 65.2014 89.4482 64.7577 89.4482 64.7577C89.4482 64.7577 91.1939 68.3186 90.8338 73.5139C90.4738 78.72 88.5972 82.6706 88.5972 82.6706C88.5972 82.6706 88.619 80.008 87.9208 77.1831C87.2225 74.3581 85.9896 72.9511 85.9896 72.9511C85.9896 72.9511 86.4697 74.1308 86.9607 76.0466C87.4516 77.9624 87.4625 79.2504 87.4625 79.2504C87.4625 79.2504 86.7206 76.4254 85.2477 73.7196C83.7639 71.0028 81.7892 69.2061 81.7892 69.2061C81.7892 69.2061 82.3783 69.4767 83.0875 70.0071C83.7967 70.5374 84.3313 71.2085 84.3313 71.2085C84.3313 71.2085 84.004 70.4076 83.6112 69.704C83.2184 69.0005 82.7384 68.4701 82.7384 68.4701C82.7384 68.4701 83.273 68.6541 84.6913 69.6932C86.0987 70.7323 87.2771 72.6156 87.2771 72.6156C87.2771 72.6156 86.5788 70.6673 85.4223 69.3036C84.2658 67.9398 83.0329 67.3228 83.0329 67.3228C83.0329 67.3228 83.6439 67.193 84.7568 67.3986C85.9024 67.6151 86.9061 68.1346 86.9061 68.1346C86.9061 68.1346 85.7823 66.7817 83.8839 66.1756C81.9855 65.5694 80.0544 65.7318 80.0544 65.7318C80.0544 65.7318 82.1601 65.1473 84.7131 65.5803C87.2661 66.0024 88.75 67.6692 88.75 67.6692C88.75 67.6692 88.2262 66.3054 86.2515 64.8984C84.2658 63.5021 82.2474 63.2424 82.2474 63.2424C82.2474 63.2424 82.7493 62.2791 84.0258 60.9153C85.2914 59.5516 86.4588 58.8156 86.4588 58.8156C86.4588 58.8156 84.1021 59.216 80.1635 62.8636C76.2249 66.5111 74.0974 69.401 74.0974 69.401C74.0974 69.401 74.5556 69.1087 75.0902 68.8057C75.6248 68.5026 76.1485 68.232 76.1485 68.232C76.1485 68.232 75.3412 69.5417 74.0756 71.7713C72.81 74.001 71.9044 76.9774 71.9044 76.9774C71.9044 76.9774 73.5628 74.2391 76.1594 71.3059C78.7561 68.3727 81.3855 66.9007 81.3855 66.9007C81.3855 66.9007 79.5962 68.6541 77.6869 71.9012C75.7776 75.1483 74.7084 79.0123 74.7084 79.0123C74.7084 79.0123 74.2828 78.4927 73.9883 77.4753C73.6937 76.4687 74.0101 75.4513 74.0101 75.4513C74.0101 75.4513 73.5955 75.9276 73.2791 76.8151C72.9627 77.7026 72.9081 78.6984 73.29 80.7115C73.6719 82.7355 73.8028 86.0475 70.6061 88.2231C67.3984 90.3986 64.1799 88.1257 64.1799 88.1257C64.1799 88.1257 64.9872 88.1798 66.1983 87.8875C67.4093 87.5953 67.9549 86.4155 67.6494 86.0367C67.3439 85.6579 66.3074 86.1991 65.7401 85.5497C65.1727 84.9002 65.4782 83.3741 66.5692 83.3308C67.4639 83.2876 67.7476 83.872 67.7476 83.872C67.7476 83.872 67.4966 83.6772 66.8747 83.7097C66.2638 83.7421 65.7619 84.4565 66.0455 84.976C66.3183 85.4955 67.7257 85.6471 68.784 84.3374C69.8423 83.0278 69.1441 80.6358 67.6275 79.5751C66.3619 78.6767 64.0162 78.6875 63.2961 78.7092C62.5652 78.6875 60.2303 78.6875 58.9647 79.5751C57.4482 80.6466 56.7499 83.0386 57.8082 84.3374C58.8666 85.6471 60.274 85.4955 60.5467 84.976C60.8195 84.4565 60.3285 83.7421 59.7176 83.7097C59.1066 83.6772 58.8447 83.872 58.8447 83.872C58.8447 83.872 59.1284 83.2876 60.023 83.3308C61.1141 83.385 61.4196 84.9002 60.8522 85.5497C60.2849 86.1991 59.2484 85.6579 58.9429 86.0367C58.6374 86.4155 59.183 87.5953 60.394 87.8875C61.605 88.1798 62.4124 88.1257 62.4124 88.1257C62.4124 88.1257 59.183 90.3986 55.9862 88.2231C52.7786 86.0475 52.9204 82.7355 53.3023 80.7115C53.6841 78.6875 53.6296 77.7026 53.3132 76.8151C52.9968 75.9276 52.5822 75.4513 52.5822 75.4513C52.5822 75.4513 52.8986 76.4579 52.604 77.4753C52.3094 78.4819 51.8839 79.0123 51.8839 79.0123C51.8839 79.0123 50.8038 75.1483 48.9054 71.9012C46.9961 68.6541 45.2068 66.9007 45.2068 66.9007C45.2068 66.9007 47.8253 68.3727 50.422 71.3059C53.0186 74.2391 54.677 76.9774 54.677 76.9774C54.677 76.9774 53.7714 74.001 52.5058 71.7713C51.2402 69.5417 50.4329 68.232 50.4329 68.232C50.4329 68.232 50.9566 68.5026 51.4912 68.8057C52.0258 69.1087 52.484 69.401 52.484 69.401C52.484 69.401 50.3129 66.5219 46.3633 62.8744C42.4247 59.2269 40.0681 58.8264 40.0681 58.8264C40.0681 58.8264 41.2245 59.5624 42.5011 60.9261C43.7667 62.2899 44.2794 63.2532 44.2794 63.2532C44.2794 63.2532 42.2501 63.5021 40.2753 64.9092C38.2897 66.3054 37.7769 67.68 37.7769 67.68C37.7769 67.68 39.2607 66.0132 41.8137 65.5911C44.3667 65.169 46.4724 65.7426 46.4724 65.7426C46.4724 65.7426 44.5413 65.5694 42.6429 66.1864C40.7445 66.8033 39.6207 68.1454 39.6207 68.1454C39.6207 68.1454 40.6245 67.6259 41.7701 67.4094C42.8829 67.2038 43.4939 67.3337 43.4939 67.3337C43.4939 67.3337 42.261 67.9506 41.1045 69.3144C39.948 70.6781 39.2498 72.6264 39.2498 72.6264C39.2498 72.6264 40.4172 70.7431 41.8355 69.704C43.243 68.665 43.7885 68.481 43.7885 68.481C43.7885 68.481 43.3084 69.0113 42.9156 69.7148C42.5229 70.4184 42.1956 71.2193 42.1956 71.2193C42.1956 71.2193 42.7302 70.5483 43.4393 70.0179C44.1485 69.4876 44.7377 69.217 44.7377 69.217C44.7377 69.217 42.752 71.0137 41.2791 73.7304C39.7953 76.4471 39.0643 79.2612 39.0643 79.2612C39.0643 79.2612 39.0752 77.9732 39.5662 76.0574C40.0571 74.1417 40.5372 72.9619 40.5372 72.9619C40.5372 72.9619 39.2934 74.369 38.6061 77.1939C37.9078 80.0188 37.9296 82.6814 37.9296 82.6814C37.9296 82.6814 36.053 78.72 35.693 73.5247C35.333 68.3186 37.0786 64.7685 37.0786 64.7685C37.0786 64.7685 36.053 65.2123 34.9293 66.0024C33.8055 66.7925 33.3255 67.4311 33.3255 67.4311C33.3255 67.4311 34.0565 65.1257 36.3585 63.0367C38.6715 60.9478 40.439 60.3958 40.439 60.3958C40.439 60.3958 37.4605 60.7963 35.1257 62.5064C32.7909 64.2165 32.2126 65.6669 32.2126 65.6669C32.2126 65.6669 32.5181 61.3916 35.8458 56.521C39.1734 51.6504 42.9156 49.9836 42.9156 49.9836C42.9156 49.9836 42.0537 49.8104 41.1482 49.9944C40.2426 50.1676 39.468 50.568 39.468 50.568C39.468 50.568 40.1881 49.648 40.679 48.6414C41.17 47.6457 41.5082 46.8556 41.5082 46.8556C41.5082 46.8556 41.2027 47.2236 40.6136 47.6132C40.0244 48.0029 39.4789 48.1869 39.4789 48.1869C39.4789 48.1869 40.7772 46.769 41.5846 45.1563C42.392 43.5327 42.752 42.0607 42.752 42.0607C42.752 42.0607 41.5519 42.9807 40.7663 43.9657C39.9699 44.9506 39.7626 45.5351 39.7626 45.5351C39.7626 45.5351 39.5007 44.7125 39.7626 43.5977C40.0244 42.4829 40.5372 41.9309 40.5372 41.9309C40.5372 41.9309 39.9044 42.0932 39.4025 42.6777C38.9116 43.2513 38.7588 43.7384 38.7588 43.7384C38.7588 43.7384 38.3333 41.368 39.0316 40.1342C39.7298 38.9003 40.9409 39.1059 41.4646 39.3549C41.9883 39.6038 42.2392 40.0476 42.2392 40.0476C42.2392 40.0476 42.0756 38.8353 41.0282 38.2292C39.9917 37.6339 39.2934 37.7963 39.2934 37.7963C39.2934 37.7963 38.9225 33.1963 39.5225 28.6396C40.1226 24.0829 41.0063 22.1022 43.2975 21.9073C43.3739 21.8965 43.4393 21.8965 43.5157 21.8965C45.7196 21.8857 47.8471 24.4725 49.2327 27.016C50.662 29.6353 51.0002 31.4429 51.0002 31.4429C51.0002 31.4429 50.6729 31.3779 50.1165 31.4645C49.56 31.5511 49.1127 31.7784 49.1127 31.7784C49.1127 31.7784 50.0837 31.8217 50.782 32.8499C51.4912 33.889 51.4912 35.0687 51.4912 35.0687C51.4912 35.0687 51.0984 34.5384 50.4983 34.1487C49.8983 33.7591 49.5273 33.705 49.5273 33.705C49.5273 33.705 50.1492 34.3436 50.1492 35.296C50.1601 36.2593 49.9201 36.6815 49.6146 36.7031C48.8727 36.7572 47.1707 34.6358 45.8287 32.0923C44.4867 29.5487 44.334 27.8747 44.334 27.8747C44.334 27.8747 44.2249 29.9709 44.7159 32.601C45.2068 35.2203 45.8833 37.3309 45.8833 37.3309C45.8833 37.3309 44.8031 35.7073 44.0503 32.904C43.2866 30.1007 43.1557 28.7478 43.1557 28.7478C43.1557 28.7478 42.752 31.616 43.4939 35.1012C44.2358 38.5864 45.1523 40.2316 45.1741 40.697C45.1959 41.1624 44.4104 42.0607 43.7994 43.1647C43.1775 44.2687 42.992 45.048 42.992 45.048C42.992 45.048 43.3084 44.6692 43.5375 44.3878C43.7776 44.0956 44.0612 43.8358 44.0612 43.8358C44.0612 43.8358 43.9085 45.0264 43.1884 46.5309C42.4792 48.0353 41.6719 48.793 41.6719 48.793C41.6719 48.793 42.6974 48.4142 43.9412 47.2344C45.1741 46.0546 45.5996 45.3836 45.5996 45.3836C45.5996 45.3836 45.7632 46.2494 46.1669 47.2236C46.5706 48.1977 47.0725 48.7389 47.0725 48.7389C47.0725 48.7389 46.7779 45.1671 48.0762 41.7902C49.3746 38.4132 51.0984 37.8071 51.0984 37.8071C51.0984 37.8071 50.7274 38.1967 50.2583 39.0085C49.7892 39.8203 49.7019 40.3073 49.7019 40.3073C49.7019 40.3073 51.7748 37.6989 55.2007 37.4283C58.6265 37.1577 59.663 37.9803 59.663 37.9803C59.663 37.9803 59.4775 39.4306 57.0336 39.9502C54.5897 40.4697 54.6879 40.3398 53.8805 40.7836C53.0732 41.2165 52.6477 41.8118 52.6477 41.8118C52.6477 41.8118 52.7131 41.2923 53.215 40.513C53.7169 39.7337 54.2297 39.344 54.2297 39.344C54.2297 39.344 51.6985 39.7878 49.9965 42.5045C48.2944 45.2212 48.6436 48.9553 47.738 50.1351C46.8325 51.3149 45.9269 51.7262 45.9269 51.7262C45.9269 51.7262 46.2106 51.2932 46.4397 50.7196C46.6688 50.1567 46.6252 49.648 46.6252 49.648C46.6252 49.648 42.8393 51.8993 39.9044 55.2113C36.9695 58.5233 36.2276 60.1901 36.2276 60.1901C36.2276 60.1901 36.4458 60.0603 36.8277 59.9087C36.9259 59.833 37.035 59.7572 37.1441 59.6814C40.8209 57.1054 45.2286 58.2852 45.2286 58.2852C45.2286 58.2852 46.3524 56.64 49.0036 55.9906C51.0657 55.4927 52.5931 56.0447 53.1823 56.3153C53.2586 56.8349 53.1495 57.192 53.1495 57.192C53.1495 57.192 51.9167 56.4127 49.4291 56.8998C46.9416 57.3869 46.0906 58.9779 46.0906 58.9779C46.0906 58.9779 46.8215 58.664 47.6726 58.9021C48.8618 59.2377 48.9927 60.2334 50.5201 61.3591C52.0367 62.4631 53.1168 62.5388 54.2951 63.5887C55.4625 64.6386 55.8007 65.7859 55.8007 65.7859C55.8007 65.7859 55.9317 64.2273 55.7353 62.1384C55.5498 60.0494 55.0479 59.0212 55.0479 59.0212C55.0479 59.0212 55.6589 59.3459 56.499 59.4541C57.3391 59.5624 57.841 59.3459 57.841 59.3459L57.8301 59.3676C57.7428 59.465 57.601 59.5949 57.3937 59.7031C56.9682 59.9304 56.5754 59.9629 56.5754 59.9629C56.5754 59.9629 57.0445 60.6447 57.4264 63.0151C57.4918 63.4372 57.5464 63.881 57.5682 64.3464C58.4738 65.6344 59.4557 66.9765 59.4557 66.9765C59.4557 66.9765 59.3902 66.5111 59.2375 65.8292C59.0738 65.1581 58.9975 64.552 58.9975 64.552C58.9975 64.552 59.8267 65.4937 61.0268 67.6692C62.1178 69.6391 63.1107 72.0744 63.2961 72.5073C63.4707 72.0636 64.4636 69.6391 65.5655 67.6692C66.7656 65.5045 67.5948 64.552 67.5948 64.552C67.5948 64.552 67.5075 65.1473 67.3439 65.8292C67.1802 66.5003 67.1257 66.9765 67.1257 66.9765C67.1257 66.9765 68.0858 65.6669 68.9804 64.3897C69.0132 63.9134 69.0568 63.448 69.1332 63.0151C69.515 60.6556 69.9842 59.9629 69.9842 59.9629C69.9842 59.9629 69.5914 59.9196 69.1659 59.7031C68.9695 59.6057 68.8386 59.4866 68.7513 59.3892C68.7404 59.3676 68.7295 59.3351 68.7295 59.3351C68.7295 59.3351 69.2314 59.5516 70.0715 59.4433C70.9116 59.3351 71.5225 59.0104 71.5225 59.0104C71.5225 59.0104 71.0316 60.0386 70.8352 62.1384C70.6497 64.2273 70.7697 65.7859 70.7697 65.7859C70.7697 65.7859 71.097 64.6386 72.2753 63.5887C73.4428 62.5388 74.5338 62.4631 76.0503 61.3591C77.5887 60.2443 77.7087 59.2377 78.8979 58.9021C79.7489 58.664 80.4799 58.9779 80.4799 58.9779C80.4799 58.9779 79.6289 57.3977 77.1414 56.8998C74.6538 56.4127 73.4209 57.192 73.4209 57.192C73.4209 57.192 73.3118 56.824 73.3882 56.3045C73.9883 56.0339 75.5048 55.4927 77.545 55.9906C80.1962 56.64 81.32 58.2852 81.32 58.2852C81.32 58.2852 85.7387 57.1054 89.4046 59.6814C89.4919 59.7464 89.59 59.8113 89.6773 59.8763C90.1028 60.0494 90.3538 60.1901 90.3538 60.1901C90.3538 60.1901 89.6119 58.5233 86.677 55.2113C83.7421 51.8993 79.9562 49.648 79.9562 49.648C79.9562 49.648 79.9235 50.1459 80.1417 50.7196C80.3708 51.2824 80.6545 51.7262 80.6545 51.7262C80.6545 51.7262 79.7489 51.3149 78.8434 50.1351C77.9378 48.9553 78.2869 45.2212 76.5849 42.5045C74.8829 39.7878 72.3517 39.344 72.3517 39.344C72.3517 39.344 72.8645 39.7337 73.3664 40.513C73.8683 41.2923 73.9337 41.8118 73.9337 41.8118C73.9337 41.8118 73.5082 41.2273 72.7009 40.7836C71.8935 40.3506 71.9917 40.4697 69.5478 39.9502C67.1039 39.4306 66.9184 37.9803 66.9184 37.9803L67.0384 37.8937C67.4093 37.688 68.6204 37.2118 71.3589 37.4283C74.7847 37.6989 76.8577 40.3073 76.8577 40.3073C76.8577 40.3073 76.7704 39.8203 76.3013 39.0085C75.8321 38.1967 75.4612 37.8071 75.4612 37.8071C75.4612 37.8071 77.185 38.4024 78.4833 41.7902C79.7817 45.1671 79.4871 48.7389 79.4871 48.7389C79.4871 48.7389 79.9889 48.2085 80.3926 47.2236C80.7963 46.2494 80.96 45.3836 80.96 45.3836C80.96 45.3836 81.3855 46.0546 82.6183 47.2344C83.8512 48.4142 84.8877 48.793 84.8877 48.793C84.8877 48.793 84.0803 48.0353 83.3712 46.5309C82.662 45.0264 82.4983 43.8358 82.4983 43.8358C82.4983 43.8358 82.7929 44.1064 83.022 44.3878C83.262 44.68 83.5675 45.048 83.5675 45.048C83.5675 45.048 83.3821 44.2579 82.7602 43.1647C82.1383 42.0607 81.3637 41.1624 81.3855 40.697C81.4073 40.2316 82.3238 38.5864 83.0657 35.1012C83.8076 31.616 83.4039 28.7478 83.4039 28.7478C83.4039 28.7478 83.273 30.1007 82.5092 32.904C81.7455 35.7073 80.6763 37.3309 80.6763 37.3309C80.6763 37.3309 81.3527 35.2203 81.8437 32.601C82.3347 29.9817 82.2256 27.8747 82.2256 27.8747C82.2256 27.8747 82.0728 29.5487 80.7309 32.1031C79.3889 34.6466 77.6869 36.768 76.945 36.7139C76.6395 36.6923 76.3994 36.2702 76.4104 35.3069C76.4213 34.3436 77.0323 33.7158 77.0323 33.7158C77.0323 33.7158 76.6613 33.7807 76.0612 34.1596C75.4612 34.5492 75.0575 35.0796 75.0575 35.0796C75.0575 35.0796 75.0684 33.889 75.7667 32.8607C76.4758 31.8217 77.4359 31.7892 77.4359 31.7892C77.4359 31.7892 76.9886 31.5511 76.4322 31.4753C75.8648 31.3996 75.5485 31.4537 75.5485 31.4537C75.5485 31.4537 75.8867 29.657 77.3159 27.0269C78.7015 24.4833 80.829 21.8965 83.0329 21.9073C83.1093 21.9073 83.1748 21.9073 83.2511 21.9182C85.5314 22.1022 86.4151 24.0829 87.0261 28.6504C87.6262 33.2071 87.2552 37.8071 87.2552 37.8071C87.2552 37.8071 86.557 37.6447 85.5205 38.24C84.484 38.8353 84.3094 40.0584 84.3094 40.0584C84.3094 40.0584 84.5604 39.6146 85.0841 39.3657C85.6078 39.1167 86.8297 38.9111 87.5171 40.145C88.2153 41.3789 87.7898 43.7492 87.7898 43.7492C87.7898 43.7492 87.648 43.273 87.1461 42.6885C86.6552 42.1149 86.0115 41.9417 86.0115 41.9417C86.0115 41.9417 86.5242 42.4937 86.7861 43.6085C87.0479 44.7233 86.7861 45.5459 86.7861 45.5459C86.7861 45.5459 86.5679 44.9723 85.7823 43.9765C84.9859 42.9916 83.7966 42.0716 83.7966 42.0716C83.7966 42.0716 84.1567 43.5436 84.9641 45.1671C85.7714 46.7906 87.0698 48.1977 87.0698 48.1977C87.0698 48.1977 86.5352 48.0137 85.9351 47.624C85.3459 47.2344 85.0404 46.8664 85.0404 46.8664C85.0404 46.8664 85.3787 47.6565 85.8696 48.6523C86.3606 49.648 87.0807 50.5789 87.0807 50.5789C87.0807 50.5789 86.306 50.1784 85.4005 50.0052C84.4949 49.832 83.633 49.9944 83.633 49.9944C83.633 49.9944 87.3752 51.6612 90.7029 56.5318C94.0305 61.4024 94.336 65.6777 94.336 65.6777C94.336 65.6777 93.7578 64.2273 91.423 62.5172C89.0882 60.8071 86.1096 60.4066 86.1096 60.4066C86.1096 60.4066 87.8771 60.9586 90.1901 63.0476C92.5031 65.1365 93.2232 67.4419 93.2232 67.4419C93.2232 67.4419 92.7213 66.7817 91.5975 65.9916ZM64.6818 84.3266C64.6927 83.6231 64.9 82.0212 66.2856 81.7831C66.3838 81.7614 66.4711 81.7614 66.5583 81.7614H66.6456C67.7257 81.7939 68.0312 82.9195 68.0312 82.9195C68.0312 82.9195 67.9112 82.6706 67.4639 82.4108C67.0166 82.1511 66.1328 82.0428 65.4346 82.9412C64.7254 83.8287 64.7363 85.344 64.7363 85.344C64.7363 85.344 64.6818 85.0301 64.6818 84.3266ZM61.7687 85.3548C61.7687 85.3548 61.7687 83.8396 61.0704 82.952C60.3613 82.0645 59.4775 82.1619 59.0411 82.4217C58.5938 82.6814 58.4738 82.9304 58.4738 82.9304C58.4738 82.9304 58.7793 81.8047 59.8594 81.7723C59.8921 81.7723 59.9139 81.7723 59.9467 81.7723C60.034 81.7723 60.1212 81.7831 60.2194 81.8047C61.5941 82.0428 61.8123 83.6339 61.8232 84.3483C61.8232 85.041 61.7687 85.3548 61.7687 85.3548ZM54.186 60.9478C54.186 60.9478 54.6661 61.6513 54.6443 62.1059C54.6224 62.5605 53.9896 62.3007 53.9896 62.3007C53.9896 62.3007 54.2078 62.1817 54.2624 61.8245C54.3169 61.4132 54.186 60.9478 54.186 60.9478ZM51.993 58.6207C51.993 58.8264 51.8294 58.9887 51.633 58.9887C51.5348 58.9887 51.4475 58.9454 51.3712 58.8805C51.3712 58.8913 51.3712 58.9021 51.3712 58.913C51.3712 59.3892 51.7639 59.768 52.244 59.768C52.6477 59.768 52.9859 59.4974 53.0841 59.1186C53.5641 59.7139 53.7714 60.2659 53.7714 60.2659C53.7714 60.2659 52.2113 61.489 50.8802 60.3525C49.6801 59.3243 50.3238 57.7873 50.3238 57.7873C50.3238 57.7873 50.3456 57.7873 50.3783 57.7873C50.5638 57.7873 51.2184 57.7981 51.8949 58.1229C51.8185 58.1553 51.753 58.1986 51.6876 58.2419C51.8621 58.2852 51.993 58.4367 51.993 58.6207ZM72.2426 61.8245C72.2972 62.1817 72.5154 62.3007 72.5154 62.3007C72.5154 62.3007 71.8826 62.5605 71.8608 62.1059C71.8389 61.6513 72.319 60.9478 72.319 60.9478C72.319 60.9478 72.1881 61.4132 72.2426 61.8245ZM75.1229 58.8805C75.0575 58.9563 74.9593 58.9887 74.8611 58.9887C74.6647 58.9887 74.5011 58.8264 74.5011 58.6207C74.5011 58.4367 74.632 58.2852 74.8065 58.2527C74.7411 58.1986 74.6756 58.1553 74.5993 58.1337C75.2757 57.809 75.9303 57.7873 76.1158 57.7981C76.1485 57.7981 76.1703 57.7981 76.1703 57.7981C76.1703 57.7981 76.814 59.3351 75.6139 60.3633C74.2828 61.4998 72.7227 60.2767 72.7227 60.2767C72.7227 60.2767 72.93 59.7247 73.41 59.1294C73.5082 59.5083 73.8573 59.7789 74.2501 59.7789C74.7302 59.7789 75.1229 59.4 75.1229 58.9238C75.1229 58.9021 75.1229 58.8913 75.1229 58.8805ZM95.2089 81.6207C94.4124 79.1097 94.1287 76.3388 94.0305 74.5746C94.1397 74.8344 94.2924 75.2565 94.467 75.8843C94.7506 76.9233 94.7397 78.2113 94.7397 78.2113C94.7397 78.2113 95.2307 77.0965 95.2634 75.3323C95.2961 73.568 94.9361 72.5181 94.9361 72.5181C94.9361 72.5181 95.4925 73.3083 95.8853 74.5097C96.2781 75.7219 96.3981 76.4795 96.3981 76.4795C96.3981 76.4795 97.6091 71.2085 96.9763 65.6344C96.2999 59.6814 93.6705 56.0772 93.6705 56.0772C93.6705 56.0772 94.1942 56.2396 95.2198 56.2179C96.2454 56.2071 97.1073 55.9257 97.1073 55.9257C97.1073 55.9257 95.8526 55.352 94.0851 53.9666C92.3176 52.592 91.3139 51.0984 91.3139 51.0984C91.3139 51.0984 91.6957 51.2824 92.4704 51.2824C93.245 51.2824 93.7251 51.0443 93.7251 51.0443C93.7251 51.0443 91.9139 50.6005 90.932 47.873C90.1028 45.5676 90.3538 38.792 89.961 32.2005C90.2228 32.4278 90.4956 32.6551 90.7574 32.8824C90.8229 34.2029 90.9211 36.4975 90.9647 39.6904C91.0411 44.9831 90.6702 49.5506 95.1325 50.8603C95.1325 50.8603 95.2089 52.0942 93.0159 52.0184C93.0159 52.0184 96.1581 55.2113 98.722 55.9365C98.722 55.9365 97.9146 57.0189 95.2852 57.0189C95.2852 57.0189 100.62 65.4287 96.529 77.3238L95.8744 76.3064C95.8744 76.3064 95.8744 78.049 95.2198 79.0664C95.2198 79.0664 96.3981 84.0127 97.751 86.3398C97.6419 86.5021 97.5328 86.6645 97.4127 86.8268C96.8018 85.7228 95.9399 83.937 95.2089 81.6207Z"/>
</mask>
<path d="M52.0476 24.0179C53.335 25.544 57.3718 30.2523 58.2228 30.4255C58.2228 30.4255 64.1472 29.7003 68.3804 30.3497C68.3804 30.3497 71.3698 27.6546 74.5993 24.072C74.8611 24.1478 75.1229 24.2236 75.3957 24.2993C74.9047 24.8405 74.4138 25.3817 73.9228 25.9337C70.3115 29.96 68.6204 31.1831 68.6204 31.1831C68.6204 31.1831 66.0128 30.88 63.2525 30.88C60.1758 30.88 57.8846 31.1831 57.8846 31.1831C57.8846 31.1831 56.1935 29.96 52.5822 25.9337C52.0803 25.3817 51.5894 24.8297 51.0875 24.2777C51.4039 24.2019 51.7203 24.1045 52.0476 24.0179ZM31.3943 81.6207C30.6306 84.0344 29.7251 85.8852 29.1141 87C28.9832 86.816 28.8631 86.6428 28.7431 86.4588C30.1178 84.1751 31.3289 79.088 31.3289 79.088C30.6743 78.0706 30.6743 76.328 30.6743 76.328L30.0196 77.3454C25.9283 65.4504 31.2634 57.0405 31.2634 57.0405C28.634 57.0405 27.8267 55.9581 27.8267 55.9581C30.3797 55.233 33.5328 52.04 33.5328 52.04C31.3398 52.1158 31.4162 50.8819 31.4162 50.8819C35.8785 49.5723 35.5075 45.0047 35.5839 39.712C35.6275 36.4217 35.7257 34.0838 35.8021 32.785C36.053 32.5685 36.304 32.352 36.5549 32.1464C36.1622 38.7596 36.4131 45.5784 35.5839 47.8946C34.602 50.633 32.7909 51.0659 32.7909 51.0659C32.7909 51.0659 33.2709 51.304 34.0455 51.304C34.8202 51.304 35.202 51.12 35.202 51.12C35.202 51.12 34.1983 52.6137 32.4308 53.9883C30.6633 55.3629 29.4087 55.9473 29.4087 55.9473C29.4087 55.9473 30.2597 56.2287 31.2961 56.2396C32.3217 56.2504 32.8454 56.0989 32.8454 56.0989C32.8454 56.0989 30.216 59.7031 29.5396 65.656C28.9068 71.2301 30.1178 76.5012 30.1178 76.5012C30.1178 76.5012 30.2378 75.7435 30.6306 74.5313C31.0234 73.3191 31.5798 72.5398 31.5798 72.5398C31.5798 72.5398 31.2198 73.5897 31.2416 75.3539C31.2743 77.1181 31.7653 78.233 31.7653 78.233C31.7653 78.233 31.7544 76.945 32.038 75.9059C32.3217 74.8885 32.5727 74.3581 32.5836 74.3257C32.4963 76.0466 32.2344 78.969 31.3943 81.6207ZM42.632 96.1892C42.632 96.1892 43.2102 98.2998 44.3013 100.216C41.65 98.8626 39.1625 97.2391 36.8822 95.3774C36.4022 94.6089 35.8239 93.5699 35.2893 92.2278C35.4093 92.3793 35.5294 92.5417 35.6494 92.704C36.8495 94.3059 38.8788 95.4099 38.8788 95.4099C38.8788 95.4099 36.7295 92.8231 35.7367 88.9591C34.9293 85.8094 34.7329 83.3092 34.6893 82.4433C34.8202 82.768 34.962 83.0927 35.1148 83.4174C37.3514 88.2664 40.8536 91.6866 40.8536 91.6866C40.8536 91.6866 40.4063 90.2038 40.2208 88.5369C40.1117 87.5953 40.1226 86.7727 40.1553 86.1991C40.5481 87.9633 41.4864 90.9614 43.7776 95.4099C44.6068 97.0659 45.5559 98.6353 46.3851 99.9233C44.0394 97.9318 42.632 96.1892 42.632 96.1892ZM46.1887 73.9901C46.4288 73.7304 46.7343 73.5139 46.7343 73.5139C46.7343 73.5139 46.4288 74.0334 46.276 74.5854C46.1124 75.1483 46.0033 75.8843 46.0033 75.8843C46.0033 75.8843 46.4397 74.8993 46.9416 74.1741C47.3125 73.6438 47.6398 73.2866 47.7926 73.1351C48.0762 73.633 48.349 74.1958 48.589 74.8019C48.1962 75.2673 47.3234 76.4904 46.8215 78.4927C46.1451 81.112 46.4724 83.5473 46.4724 83.5473C46.4724 83.5473 46.9525 81.8805 48.0435 80.5167C48.829 79.5318 49.4946 78.9581 49.8001 78.7092C50.1819 80.3652 50.1928 81.1878 50.1928 81.1878C50.1928 81.1878 49.7237 82.4108 49.6146 85.7661C49.5055 89.1214 50.6293 92.2061 50.6293 92.2061C50.6293 92.2061 49.2982 90.3228 48.8836 86.4805C48.469 82.649 49.3637 80.2894 49.3637 80.2894C49.3637 80.2894 47.6507 81.8588 46.9852 85.16C46.3197 88.4612 47.1161 92.0438 47.1161 92.0438C47.1161 92.0438 45.5669 88.7101 45.3377 84.6621C45.1195 80.6033 45.6214 76.8259 45.6214 76.8259C45.6214 76.8259 44.7268 78.3845 44.454 81.1337C44.1812 83.8937 44.2903 86.513 44.2903 86.513C44.2903 86.513 42.1956 82.7464 42.7738 77.6485C43.3411 72.5614 45.4359 70.1153 45.4359 70.1153C45.4359 70.1153 46.1887 70.7647 47.0507 71.9553C46.8434 72.2043 46.4942 72.6588 46.2433 73.1892C45.8723 73.9685 45.7742 74.5313 45.7742 74.5313C45.7742 74.5313 45.9487 74.2499 46.1887 73.9901ZM57.1645 104.296C56.4117 103.982 55.3534 103.528 54.2951 102.965C52.4295 101.98 51.5239 100.995 51.5239 100.995C51.5239 100.995 51.9821 101.98 52.7459 102.867C52.9968 103.16 53.215 103.376 53.4114 103.571C53.2805 103.538 53.1386 103.506 53.0077 103.473C52.004 102.878 50.2256 101.514 48.0435 98.5054C46.9852 97.0984 46.0796 95.4099 45.2941 93.6998C45.3486 93.7755 45.4032 93.8621 45.4578 93.9379C48.2508 97.8993 50.8147 99.9449 50.8147 99.9449C50.8147 99.9449 50.1056 98.9059 49.5164 97.5097C48.9272 96.1134 48.469 94.728 48.469 94.728C48.469 94.728 50.4983 98.0292 54.0769 100.952C56.0844 102.586 57.5573 103.636 58.7684 104.491C58.2228 104.437 57.6882 104.372 57.1645 104.296ZM62.1178 104.718C61.7905 104.253 61.245 103.549 60.4049 102.651C58.8229 100.984 57.0773 99.9774 54.4479 96.3299C51.8185 92.6824 51.9712 88.721 51.9712 88.721C52.1894 89.2838 52.0694 90.4202 53.7169 93.2452C55.3643 96.0701 57.47 97.9101 57.47 97.9101C57.47 97.9101 57.1645 97.2607 56.9682 96.384C56.7609 95.5073 56.7936 94.6306 56.7936 94.6306C56.7936 94.6306 56.99 95.6805 57.6664 97.0551C58.3429 98.4297 58.7356 99.0899 60.2849 101.2C61.3105 102.597 61.9651 103.95 62.2815 104.718C62.2269 104.718 62.1724 104.718 62.1178 104.718ZM60.7213 93.0179C58.9647 92.5741 57.6446 91.2104 57.6446 91.2104C57.6446 91.2104 58.3647 91.3511 59.2593 91.2212C60.154 91.0913 60.9613 90.7341 61.8123 90.4419C62.2815 90.2904 62.7943 90.2146 63.2961 90.2146C63.798 90.2146 64.289 90.3012 64.7036 90.4419C65.5546 90.7341 66.3619 91.0913 67.2566 91.2212C68.1403 91.3511 68.8604 91.1995 68.8604 91.1995C68.8604 91.1995 67.5294 92.5308 65.7837 93.0071C64.0708 93.4833 62.1287 93.3642 60.7213 93.0179ZM66.1001 102.651C65.2491 103.538 64.7145 104.242 64.3872 104.718C64.3326 104.718 64.289 104.718 64.2344 104.718C64.5617 103.95 65.2055 102.597 66.231 101.2C67.7803 99.0899 68.1731 98.4405 68.8495 97.0551C69.5259 95.6805 69.7223 94.6306 69.7223 94.6306C69.7223 94.6306 69.7442 95.5073 69.5478 96.384C69.3405 97.2607 69.0459 97.9101 69.0459 97.9101C69.0459 97.9101 71.1516 96.0701 72.799 93.2452C74.4465 90.4202 74.3156 89.2838 74.5447 88.721C74.5447 88.721 74.7084 92.6824 72.079 96.3299C69.4278 99.9774 67.6821 100.984 66.1001 102.651ZM73.7482 103.387C73.5846 103.43 73.4209 103.473 73.2573 103.506C73.4428 103.322 73.6391 103.116 73.8573 102.856C74.6211 101.969 75.0793 100.984 75.0793 100.984C75.0793 100.984 74.1737 101.969 72.3081 102.954C71.3043 103.484 70.2897 103.928 69.5369 104.242C68.9477 104.328 68.3585 104.404 67.7585 104.469C68.9695 103.614 70.4315 102.564 72.4281 100.941C76.0067 98.0184 78.036 94.7172 78.036 94.7172C78.036 94.7172 77.5778 96.1026 76.9886 97.4988C76.3995 98.8951 75.6903 99.9341 75.6903 99.9341C75.6903 99.9341 78.2542 97.8885 81.0473 93.9271C81.2109 93.6998 81.3636 93.4617 81.5164 93.2235C80.6763 95.096 79.7053 96.9577 78.5488 98.4946C76.4867 101.363 74.7738 102.748 73.7482 103.387ZM76.9013 85.7661C76.7922 82.4108 76.3231 81.1878 76.3231 81.1878C76.3231 81.1878 76.3231 80.3652 76.7159 78.7092C77.0213 78.9581 77.6869 79.5318 78.4724 80.5167C79.5635 81.8805 80.0435 83.5473 80.0435 83.5473C80.0435 83.5473 80.3599 81.1228 79.6944 78.4927C79.1816 76.5012 78.3088 75.2781 77.9269 74.8019C78.1669 74.1958 78.4397 73.633 78.7234 73.1351C78.8761 73.2866 79.2034 73.6438 79.5744 74.1741C80.0762 74.8885 80.5126 75.8843 80.5126 75.8843C80.5126 75.8843 80.3926 75.1483 80.2399 74.5854C80.0653 74.0334 79.7707 73.5139 79.7707 73.5139C79.7707 73.5139 80.0762 73.7304 80.3163 73.9901C80.5563 74.2499 80.7527 74.5421 80.7527 74.5421C80.7527 74.5421 80.6545 73.9793 80.2835 73.2C80.0326 72.6697 79.6835 72.2151 79.4762 71.9661C80.3272 70.7756 81.0909 70.1261 81.0909 70.1261C81.0909 70.1261 83.1857 72.5614 83.753 77.6593C84.3204 82.7464 82.2365 86.5238 82.2365 86.5238C82.2365 86.5238 82.3347 83.9045 82.0728 81.1445C81.8001 78.3845 80.9054 76.8367 80.9054 76.8367C80.9054 76.8367 81.4073 80.6141 81.1891 84.673C80.9709 88.7318 79.4107 92.0546 79.4107 92.0546C79.4107 92.0546 80.2072 88.472 79.5416 85.1708C78.8761 81.8697 77.1632 80.3003 77.1632 80.3003C77.1632 80.3003 78.0469 82.6598 77.6432 86.4913C77.2286 90.3228 75.8976 92.2169 75.8976 92.2169C75.8976 92.2169 77.0213 89.1214 76.9013 85.7661ZM90.8229 92.7148C91.0302 92.4442 91.2266 92.1845 91.423 91.9355C90.9211 93.2344 90.3756 94.2734 89.9064 95.0635C87.5935 96.9901 85.0732 98.6786 82.3674 100.075C83.4039 98.2024 83.9603 96.1892 83.9603 96.1892C83.9603 96.1892 82.5529 97.9318 80.2181 99.9341C81.0473 98.6461 81.9964 97.0767 82.8256 95.4207C84.9641 91.2537 85.9242 88.3746 86.3606 86.5671C86.3715 87.1083 86.3606 87.7901 86.2733 88.5369C86.0878 90.2038 85.6405 91.6866 85.6405 91.6866C85.6405 91.6866 89.1318 88.2664 91.3793 83.4174C91.5321 83.0927 91.663 82.7788 91.8048 82.465C91.7612 84.6405 91.1284 87.4654 90.7465 88.9699C89.7537 92.8339 87.6044 95.4207 87.6044 95.4207C87.6044 95.4207 89.6228 94.3167 90.8229 92.7148ZM91.5975 65.9916C90.4738 65.2014 89.4482 64.7577 89.4482 64.7577C89.4482 64.7577 91.1939 68.3186 90.8338 73.5139C90.4738 78.72 88.5972 82.6706 88.5972 82.6706C88.5972 82.6706 88.619 80.008 87.9208 77.1831C87.2225 74.3581 85.9896 72.9511 85.9896 72.9511C85.9896 72.9511 86.4697 74.1308 86.9607 76.0466C87.4516 77.9624 87.4625 79.2504 87.4625 79.2504C87.4625 79.2504 86.7206 76.4254 85.2477 73.7196C83.7639 71.0028 81.7892 69.2061 81.7892 69.2061C81.7892 69.2061 82.3783 69.4767 83.0875 70.0071C83.7967 70.5374 84.3313 71.2085 84.3313 71.2085C84.3313 71.2085 84.004 70.4076 83.6112 69.704C83.2184 69.0005 82.7384 68.4701 82.7384 68.4701C82.7384 68.4701 83.273 68.6541 84.6913 69.6932C86.0987 70.7323 87.2771 72.6156 87.2771 72.6156C87.2771 72.6156 86.5788 70.6673 85.4223 69.3036C84.2658 67.9398 83.0329 67.3228 83.0329 67.3228C83.0329 67.3228 83.6439 67.193 84.7568 67.3986C85.9024 67.6151 86.9061 68.1346 86.9061 68.1346C86.9061 68.1346 85.7823 66.7817 83.8839 66.1756C81.9855 65.5694 80.0544 65.7318 80.0544 65.7318C80.0544 65.7318 82.1601 65.1473 84.7131 65.5803C87.2661 66.0024 88.75 67.6692 88.75 67.6692C88.75 67.6692 88.2262 66.3054 86.2515 64.8984C84.2658 63.5021 82.2474 63.2424 82.2474 63.2424C82.2474 63.2424 82.7493 62.2791 84.0258 60.9153C85.2914 59.5516 86.4588 58.8156 86.4588 58.8156C86.4588 58.8156 84.1021 59.216 80.1635 62.8636C76.2249 66.5111 74.0974 69.401 74.0974 69.401C74.0974 69.401 74.5556 69.1087 75.0902 68.8057C75.6248 68.5026 76.1485 68.232 76.1485 68.232C76.1485 68.232 75.3412 69.5417 74.0756 71.7713C72.81 74.001 71.9044 76.9774 71.9044 76.9774C71.9044 76.9774 73.5628 74.2391 76.1594 71.3059C78.7561 68.3727 81.3855 66.9007 81.3855 66.9007C81.3855 66.9007 79.5962 68.6541 77.6869 71.9012C75.7776 75.1483 74.7084 79.0123 74.7084 79.0123C74.7084 79.0123 74.2828 78.4927 73.9883 77.4753C73.6937 76.4687 74.0101 75.4513 74.0101 75.4513C74.0101 75.4513 73.5955 75.9276 73.2791 76.8151C72.9627 77.7026 72.9081 78.6984 73.29 80.7115C73.6719 82.7355 73.8028 86.0475 70.6061 88.2231C67.3984 90.3986 64.1799 88.1257 64.1799 88.1257C64.1799 88.1257 64.9872 88.1798 66.1983 87.8875C67.4093 87.5953 67.9549 86.4155 67.6494 86.0367C67.3439 85.6579 66.3074 86.1991 65.7401 85.5497C65.1727 84.9002 65.4782 83.3741 66.5692 83.3308C67.4639 83.2876 67.7476 83.872 67.7476 83.872C67.7476 83.872 67.4966 83.6772 66.8747 83.7097C66.2638 83.7421 65.7619 84.4565 66.0455 84.976C66.3183 85.4955 67.7257 85.6471 68.784 84.3374C69.8423 83.0278 69.1441 80.6358 67.6275 79.5751C66.3619 78.6767 64.0162 78.6875 63.2961 78.7092C62.5652 78.6875 60.2303 78.6875 58.9647 79.5751C57.4482 80.6466 56.7499 83.0386 57.8082 84.3374C58.8666 85.6471 60.274 85.4955 60.5467 84.976C60.8195 84.4565 60.3285 83.7421 59.7176 83.7097C59.1066 83.6772 58.8447 83.872 58.8447 83.872C58.8447 83.872 59.1284 83.2876 60.023 83.3308C61.1141 83.385 61.4196 84.9002 60.8522 85.5497C60.2849 86.1991 59.2484 85.6579 58.9429 86.0367C58.6374 86.4155 59.183 87.5953 60.394 87.8875C61.605 88.1798 62.4124 88.1257 62.4124 88.1257C62.4124 88.1257 59.183 90.3986 55.9862 88.2231C52.7786 86.0475 52.9204 82.7355 53.3023 80.7115C53.6841 78.6875 53.6296 77.7026 53.3132 76.8151C52.9968 75.9276 52.5822 75.4513 52.5822 75.4513C52.5822 75.4513 52.8986 76.4579 52.604 77.4753C52.3094 78.4819 51.8839 79.0123 51.8839 79.0123C51.8839 79.0123 50.8038 75.1483 48.9054 71.9012C46.9961 68.6541 45.2068 66.9007 45.2068 66.9007C45.2068 66.9007 47.8253 68.3727 50.422 71.3059C53.0186 74.2391 54.677 76.9774 54.677 76.9774C54.677 76.9774 53.7714 74.001 52.5058 71.7713C51.2402 69.5417 50.4329 68.232 50.4329 68.232C50.4329 68.232 50.9566 68.5026 51.4912 68.8057C52.0258 69.1087 52.484 69.401 52.484 69.401C52.484 69.401 50.3129 66.5219 46.3633 62.8744C42.4247 59.2269 40.0681 58.8264 40.0681 58.8264C40.0681 58.8264 41.2245 59.5624 42.5011 60.9261C43.7667 62.2899 44.2794 63.2532 44.2794 63.2532C44.2794 63.2532 42.2501 63.5021 40.2753 64.9092C38.2897 66.3054 37.7769 67.68 37.7769 67.68C37.7769 67.68 39.2607 66.0132 41.8137 65.5911C44.3667 65.169 46.4724 65.7426 46.4724 65.7426C46.4724 65.7426 44.5413 65.5694 42.6429 66.1864C40.7445 66.8033 39.6207 68.1454 39.6207 68.1454C39.6207 68.1454 40.6245 67.6259 41.7701 67.4094C42.8829 67.2038 43.4939 67.3337 43.4939 67.3337C43.4939 67.3337 42.261 67.9506 41.1045 69.3144C39.948 70.6781 39.2498 72.6264 39.2498 72.6264C39.2498 72.6264 40.4172 70.7431 41.8355 69.704C43.243 68.665 43.7885 68.481 43.7885 68.481C43.7885 68.481 43.3084 69.0113 42.9156 69.7148C42.5229 70.4184 42.1956 71.2193 42.1956 71.2193C42.1956 71.2193 42.7302 70.5483 43.4393 70.0179C44.1485 69.4876 44.7377 69.217 44.7377 69.217C44.7377 69.217 42.752 71.0137 41.2791 73.7304C39.7953 76.4471 39.0643 79.2612 39.0643 79.2612C39.0643 79.2612 39.0752 77.9732 39.5662 76.0574C40.0571 74.1417 40.5372 72.9619 40.5372 72.9619C40.5372 72.9619 39.2934 74.369 38.6061 77.1939C37.9078 80.0188 37.9296 82.6814 37.9296 82.6814C37.9296 82.6814 36.053 78.72 35.693 73.5247C35.333 68.3186 37.0786 64.7685 37.0786 64.7685C37.0786 64.7685 36.053 65.2123 34.9293 66.0024C33.8055 66.7925 33.3255 67.4311 33.3255 67.4311C33.3255 67.4311 34.0565 65.1257 36.3585 63.0367C38.6715 60.9478 40.439 60.3958 40.439 60.3958C40.439 60.3958 37.4605 60.7963 35.1257 62.5064C32.7909 64.2165 32.2126 65.6669 32.2126 65.6669C32.2126 65.6669 32.5181 61.3916 35.8458 56.521C39.1734 51.6504 42.9156 49.9836 42.9156 49.9836C42.9156 49.9836 42.0537 49.8104 41.1482 49.9944C40.2426 50.1676 39.468 50.568 39.468 50.568C39.468 50.568 40.1881 49.648 40.679 48.6414C41.17 47.6457 41.5082 46.8556 41.5082 46.8556C41.5082 46.8556 41.2027 47.2236 40.6136 47.6132C40.0244 48.0029 39.4789 48.1869 39.4789 48.1869C39.4789 48.1869 40.7772 46.769 41.5846 45.1563C42.392 43.5327 42.752 42.0607 42.752 42.0607C42.752 42.0607 41.5519 42.9807 40.7663 43.9657C39.9699 44.9506 39.7626 45.5351 39.7626 45.5351C39.7626 45.5351 39.5007 44.7125 39.7626 43.5977C40.0244 42.4829 40.5372 41.9309 40.5372 41.9309C40.5372 41.9309 39.9044 42.0932 39.4025 42.6777C38.9116 43.2513 38.7588 43.7384 38.7588 43.7384C38.7588 43.7384 38.3333 41.368 39.0316 40.1342C39.7298 38.9003 40.9409 39.1059 41.4646 39.3549C41.9883 39.6038 42.2392 40.0476 42.2392 40.0476C42.2392 40.0476 42.0756 38.8353 41.0282 38.2292C39.9917 37.6339 39.2934 37.7963 39.2934 37.7963C39.2934 37.7963 38.9225 33.1963 39.5225 28.6396C40.1226 24.0829 41.0063 22.1022 43.2975 21.9073C43.3739 21.8965 43.4393 21.8965 43.5157 21.8965C45.7196 21.8857 47.8471 24.4725 49.2327 27.016C50.662 29.6353 51.0002 31.4429 51.0002 31.4429C51.0002 31.4429 50.6729 31.3779 50.1165 31.4645C49.56 31.5511 49.1127 31.7784 49.1127 31.7784C49.1127 31.7784 50.0837 31.8217 50.782 32.8499C51.4912 33.889 51.4912 35.0687 51.4912 35.0687C51.4912 35.0687 51.0984 34.5384 50.4983 34.1487C49.8983 33.7591 49.5273 33.705 49.5273 33.705C49.5273 33.705 50.1492 34.3436 50.1492 35.296C50.1601 36.2593 49.9201 36.6815 49.6146 36.7031C48.8727 36.7572 47.1707 34.6358 45.8287 32.0923C44.4867 29.5487 44.334 27.8747 44.334 27.8747C44.334 27.8747 44.2249 29.9709 44.7159 32.601C45.2068 35.2203 45.8833 37.3309 45.8833 37.3309C45.8833 37.3309 44.8031 35.7073 44.0503 32.904C43.2866 30.1007 43.1557 28.7478 43.1557 28.7478C43.1557 28.7478 42.752 31.616 43.4939 35.1012C44.2358 38.5864 45.1523 40.2316 45.1741 40.697C45.1959 41.1624 44.4104 42.0607 43.7994 43.1647C43.1775 44.2687 42.992 45.048 42.992 45.048C42.992 45.048 43.3084 44.6692 43.5375 44.3878C43.7776 44.0956 44.0612 43.8358 44.0612 43.8358C44.0612 43.8358 43.9085 45.0264 43.1884 46.5309C42.4792 48.0353 41.6719 48.793 41.6719 48.793C41.6719 48.793 42.6974 48.4142 43.9412 47.2344C45.1741 46.0546 45.5996 45.3836 45.5996 45.3836C45.5996 45.3836 45.7632 46.2494 46.1669 47.2236C46.5706 48.1977 47.0725 48.7389 47.0725 48.7389C47.0725 48.7389 46.7779 45.1671 48.0762 41.7902C49.3746 38.4132 51.0984 37.8071 51.0984 37.8071C51.0984 37.8071 50.7274 38.1967 50.2583 39.0085C49.7892 39.8203 49.7019 40.3073 49.7019 40.3073C49.7019 40.3073 51.7748 37.6989 55.2007 37.4283C58.6265 37.1577 59.663 37.9803 59.663 37.9803C59.663 37.9803 59.4775 39.4306 57.0336 39.9502C54.5897 40.4697 54.6879 40.3398 53.8805 40.7836C53.0732 41.2165 52.6477 41.8118 52.6477 41.8118C52.6477 41.8118 52.7131 41.2923 53.215 40.513C53.7169 39.7337 54.2297 39.344 54.2297 39.344C54.2297 39.344 51.6985 39.7878 49.9965 42.5045C48.2944 45.2212 48.6436 48.9553 47.738 50.1351C46.8325 51.3149 45.9269 51.7262 45.9269 51.7262C45.9269 51.7262 46.2106 51.2932 46.4397 50.7196C46.6688 50.1567 46.6252 49.648 46.6252 49.648C46.6252 49.648 42.8393 51.8993 39.9044 55.2113C36.9695 58.5233 36.2276 60.1901 36.2276 60.1901C36.2276 60.1901 36.4458 60.0603 36.8277 59.9087C36.9259 59.833 37.035 59.7572 37.1441 59.6814C40.8209 57.1054 45.2286 58.2852 45.2286 58.2852C45.2286 58.2852 46.3524 56.64 49.0036 55.9906C51.0657 55.4927 52.5931 56.0447 53.1823 56.3153C53.2586 56.8349 53.1495 57.192 53.1495 57.192C53.1495 57.192 51.9167 56.4127 49.4291 56.8998C46.9416 57.3869 46.0906 58.9779 46.0906 58.9779C46.0906 58.9779 46.8215 58.664 47.6726 58.9021C48.8618 59.2377 48.9927 60.2334 50.5201 61.3591C52.0367 62.4631 53.1168 62.5388 54.2951 63.5887C55.4625 64.6386 55.8007 65.7859 55.8007 65.7859C55.8007 65.7859 55.9317 64.2273 55.7353 62.1384C55.5498 60.0494 55.0479 59.0212 55.0479 59.0212C55.0479 59.0212 55.6589 59.3459 56.499 59.4541C57.3391 59.5624 57.841 59.3459 57.841 59.3459L57.8301 59.3676C57.7428 59.465 57.601 59.5949 57.3937 59.7031C56.9682 59.9304 56.5754 59.9629 56.5754 59.9629C56.5754 59.9629 57.0445 60.6447 57.4264 63.0151C57.4918 63.4372 57.5464 63.881 57.5682 64.3464C58.4738 65.6344 59.4557 66.9765 59.4557 66.9765C59.4557 66.9765 59.3902 66.5111 59.2375 65.8292C59.0738 65.1581 58.9975 64.552 58.9975 64.552C58.9975 64.552 59.8267 65.4937 61.0268 67.6692C62.1178 69.6391 63.1107 72.0744 63.2961 72.5073C63.4707 72.0636 64.4636 69.6391 65.5655 67.6692C66.7656 65.5045 67.5948 64.552 67.5948 64.552C67.5948 64.552 67.5075 65.1473 67.3439 65.8292C67.1802 66.5003 67.1257 66.9765 67.1257 66.9765C67.1257 66.9765 68.0858 65.6669 68.9804 64.3897C69.0132 63.9134 69.0568 63.448 69.1332 63.0151C69.515 60.6556 69.9842 59.9629 69.9842 59.9629C69.9842 59.9629 69.5914 59.9196 69.1659 59.7031C68.9695 59.6057 68.8386 59.4866 68.7513 59.3892C68.7404 59.3676 68.7295 59.3351 68.7295 59.3351C68.7295 59.3351 69.2314 59.5516 70.0715 59.4433C70.9116 59.3351 71.5225 59.0104 71.5225 59.0104C71.5225 59.0104 71.0316 60.0386 70.8352 62.1384C70.6497 64.2273 70.7697 65.7859 70.7697 65.7859C70.7697 65.7859 71.097 64.6386 72.2753 63.5887C73.4428 62.5388 74.5338 62.4631 76.0503 61.3591C77.5887 60.2443 77.7087 59.2377 78.8979 58.9021C79.7489 58.664 80.4799 58.9779 80.4799 58.9779C80.4799 58.9779 79.6289 57.3977 77.1414 56.8998C74.6538 56.4127 73.4209 57.192 73.4209 57.192C73.4209 57.192 73.3118 56.824 73.3882 56.3045C73.9883 56.0339 75.5048 55.4927 77.545 55.9906C80.1962 56.64 81.32 58.2852 81.32 58.2852C81.32 58.2852 85.7387 57.1054 89.4046 59.6814C89.4919 59.7464 89.59 59.8113 89.6773 59.8763C90.1028 60.0494 90.3538 60.1901 90.3538 60.1901C90.3538 60.1901 89.6119 58.5233 86.677 55.2113C83.7421 51.8993 79.9562 49.648 79.9562 49.648C79.9562 49.648 79.9235 50.1459 80.1417 50.7196C80.3708 51.2824 80.6545 51.7262 80.6545 51.7262C80.6545 51.7262 79.7489 51.3149 78.8434 50.1351C77.9378 48.9553 78.2869 45.2212 76.5849 42.5045C74.8829 39.7878 72.3517 39.344 72.3517 39.344C72.3517 39.344 72.8645 39.7337 73.3664 40.513C73.8683 41.2923 73.9337 41.8118 73.9337 41.8118C73.9337 41.8118 73.5082 41.2273 72.7009 40.7836C71.8935 40.3506 71.9917 40.4697 69.5478 39.9502C67.1039 39.4306 66.9184 37.9803 66.9184 37.9803L67.0384 37.8937C67.4093 37.688 68.6204 37.2118 71.3589 37.4283C74.7847 37.6989 76.8577 40.3073 76.8577 40.3073C76.8577 40.3073 76.7704 39.8203 76.3013 39.0085C75.8321 38.1967 75.4612 37.8071 75.4612 37.8071C75.4612 37.8071 77.185 38.4024 78.4833 41.7902C79.7817 45.1671 79.4871 48.7389 79.4871 48.7389C79.4871 48.7389 79.9889 48.2085 80.3926 47.2236C80.7963 46.2494 80.96 45.3836 80.96 45.3836C80.96 45.3836 81.3855 46.0546 82.6183 47.2344C83.8512 48.4142 84.8877 48.793 84.8877 48.793C84.8877 48.793 84.0803 48.0353 83.3712 46.5309C82.662 45.0264 82.4983 43.8358 82.4983 43.8358C82.4983 43.8358 82.7929 44.1064 83.022 44.3878C83.262 44.68 83.5675 45.048 83.5675 45.048C83.5675 45.048 83.3821 44.2579 82.7602 43.1647C82.1383 42.0607 81.3637 41.1624 81.3855 40.697C81.4073 40.2316 82.3238 38.5864 83.0657 35.1012C83.8076 31.616 83.4039 28.7478 83.4039 28.7478C83.4039 28.7478 83.273 30.1007 82.5092 32.904C81.7455 35.7073 80.6763 37.3309 80.6763 37.3309C80.6763 37.3309 81.3527 35.2203 81.8437 32.601C82.3347 29.9817 82.2256 27.8747 82.2256 27.8747C82.2256 27.8747 82.0728 29.5487 80.7309 32.1031C79.3889 34.6466 77.6869 36.768 76.945 36.7139C76.6395 36.6923 76.3994 36.2702 76.4104 35.3069C76.4213 34.3436 77.0323 33.7158 77.0323 33.7158C77.0323 33.7158 76.6613 33.7807 76.0612 34.1596C75.4612 34.5492 75.0575 35.0796 75.0575 35.0796C75.0575 35.0796 75.0684 33.889 75.7667 32.8607C76.4758 31.8217 77.4359 31.7892 77.4359 31.7892C77.4359 31.7892 76.9886 31.5511 76.4322 31.4753C75.8648 31.3996 75.5485 31.4537 75.5485 31.4537C75.5485 31.4537 75.8867 29.657 77.3159 27.0269C78.7015 24.4833 80.829 21.8965 83.0329 21.9073C83.1093 21.9073 83.1748 21.9073 83.2511 21.9182C85.5314 22.1022 86.4151 24.0829 87.0261 28.6504C87.6262 33.2071 87.2552 37.8071 87.2552 37.8071C87.2552 37.8071 86.557 37.6447 85.5205 38.24C84.484 38.8353 84.3094 40.0584 84.3094 40.0584C84.3094 40.0584 84.5604 39.6146 85.0841 39.3657C85.6078 39.1167 86.8297 38.9111 87.5171 40.145C88.2153 41.3789 87.7898 43.7492 87.7898 43.7492C87.7898 43.7492 87.648 43.273 87.1461 42.6885C86.6552 42.1149 86.0115 41.9417 86.0115 41.9417C86.0115 41.9417 86.5242 42.4937 86.7861 43.6085C87.0479 44.7233 86.7861 45.5459 86.7861 45.5459C86.7861 45.5459 86.5679 44.9723 85.7823 43.9765C84.9859 42.9916 83.7966 42.0716 83.7966 42.0716C83.7966 42.0716 84.1567 43.5436 84.9641 45.1671C85.7714 46.7906 87.0698 48.1977 87.0698 48.1977C87.0698 48.1977 86.5352 48.0137 85.9351 47.624C85.3459 47.2344 85.0404 46.8664 85.0404 46.8664C85.0404 46.8664 85.3787 47.6565 85.8696 48.6523C86.3606 49.648 87.0807 50.5789 87.0807 50.5789C87.0807 50.5789 86.306 50.1784 85.4005 50.0052C84.4949 49.832 83.633 49.9944 83.633 49.9944C83.633 49.9944 87.3752 51.6612 90.7029 56.5318C94.0305 61.4024 94.336 65.6777 94.336 65.6777C94.336 65.6777 93.7578 64.2273 91.423 62.5172C89.0882 60.8071 86.1096 60.4066 86.1096 60.4066C86.1096 60.4066 87.8771 60.9586 90.1901 63.0476C92.5031 65.1365 93.2232 67.4419 93.2232 67.4419C93.2232 67.4419 92.7213 66.7817 91.5975 65.9916ZM64.6818 84.3266C64.6927 83.6231 64.9 82.0212 66.2856 81.7831C66.3838 81.7614 66.4711 81.7614 66.5583 81.7614H66.6456C67.7257 81.7939 68.0312 82.9195 68.0312 82.9195C68.0312 82.9195 67.9112 82.6706 67.4639 82.4108C67.0166 82.1511 66.1328 82.0428 65.4346 82.9412C64.7254 83.8287 64.7363 85.344 64.7363 85.344C64.7363 85.344 64.6818 85.0301 64.6818 84.3266ZM61.7687 85.3548C61.7687 85.3548 61.7687 83.8396 61.0704 82.952C60.3613 82.0645 59.4775 82.1619 59.0411 82.4217C58.5938 82.6814 58.4738 82.9304 58.4738 82.9304C58.4738 82.9304 58.7793 81.8047 59.8594 81.7723C59.8921 81.7723 59.9139 81.7723 59.9467 81.7723C60.034 81.7723 60.1212 81.7831 60.2194 81.8047C61.5941 82.0428 61.8123 83.6339 61.8232 84.3483C61.8232 85.041 61.7687 85.3548 61.7687 85.3548ZM54.186 60.9478C54.186 60.9478 54.6661 61.6513 54.6443 62.1059C54.6224 62.5605 53.9896 62.3007 53.9896 62.3007C53.9896 62.3007 54.2078 62.1817 54.2624 61.8245C54.3169 61.4132 54.186 60.9478 54.186 60.9478ZM51.993 58.6207C51.993 58.8264 51.8294 58.9887 51.633 58.9887C51.5348 58.9887 51.4475 58.9454 51.3712 58.8805C51.3712 58.8913 51.3712 58.9021 51.3712 58.913C51.3712 59.3892 51.7639 59.768 52.244 59.768C52.6477 59.768 52.9859 59.4974 53.0841 59.1186C53.5641 59.7139 53.7714 60.2659 53.7714 60.2659C53.7714 60.2659 52.2113 61.489 50.8802 60.3525C49.6801 59.3243 50.3238 57.7873 50.3238 57.7873C50.3238 57.7873 50.3456 57.7873 50.3783 57.7873C50.5638 57.7873 51.2184 57.7981 51.8949 58.1229C51.8185 58.1553 51.753 58.1986 51.6876 58.2419C51.8621 58.2852 51.993 58.4367 51.993 58.6207ZM72.2426 61.8245C72.2972 62.1817 72.5154 62.3007 72.5154 62.3007C72.5154 62.3007 71.8826 62.5605 71.8608 62.1059C71.8389 61.6513 72.319 60.9478 72.319 60.9478C72.319 60.9478 72.1881 61.4132 72.2426 61.8245ZM75.1229 58.8805C75.0575 58.9563 74.9593 58.9887 74.8611 58.9887C74.6647 58.9887 74.5011 58.8264 74.5011 58.6207C74.5011 58.4367 74.632 58.2852 74.8065 58.2527C74.7411 58.1986 74.6756 58.1553 74.5993 58.1337C75.2757 57.809 75.9303 57.7873 76.1158 57.7981C76.1485 57.7981 76.1703 57.7981 76.1703 57.7981C76.1703 57.7981 76.814 59.3351 75.6139 60.3633C74.2828 61.4998 72.7227 60.2767 72.7227 60.2767C72.7227 60.2767 72.93 59.7247 73.41 59.1294C73.5082 59.5083 73.8573 59.7789 74.2501 59.7789C74.7302 59.7789 75.1229 59.4 75.1229 58.9238C75.1229 58.9021 75.1229 58.8913 75.1229 58.8805ZM95.2089 81.6207C94.4124 79.1097 94.1287 76.3388 94.0305 74.5746C94.1397 74.8344 94.2924 75.2565 94.467 75.8843C94.7506 76.9233 94.7397 78.2113 94.7397 78.2113C94.7397 78.2113 95.2307 77.0965 95.2634 75.3323C95.2961 73.568 94.9361 72.5181 94.9361 72.5181C94.9361 72.5181 95.4925 73.3083 95.8853 74.5097C96.2781 75.7219 96.3981 76.4795 96.3981 76.4795C96.3981 76.4795 97.6091 71.2085 96.9763 65.6344C96.2999 59.6814 93.6705 56.0772 93.6705 56.0772C93.6705 56.0772 94.1942 56.2396 95.2198 56.2179C96.2454 56.2071 97.1073 55.9257 97.1073 55.9257C97.1073 55.9257 95.8526 55.352 94.0851 53.9666C92.3176 52.592 91.3139 51.0984 91.3139 51.0984C91.3139 51.0984 91.6957 51.2824 92.4704 51.2824C93.245 51.2824 93.7251 51.0443 93.7251 51.0443C93.7251 51.0443 91.9139 50.6005 90.932 47.873C90.1028 45.5676 90.3538 38.792 89.961 32.2005C90.2228 32.4278 90.4956 32.6551 90.7574 32.8824C90.8229 34.2029 90.9211 36.4975 90.9647 39.6904C91.0411 44.9831 90.6702 49.5506 95.1325 50.8603C95.1325 50.8603 95.2089 52.0942 93.0159 52.0184C93.0159 52.0184 96.1581 55.2113 98.722 55.9365C98.722 55.9365 97.9146 57.0189 95.2852 57.0189C95.2852 57.0189 100.62 65.4287 96.529 77.3238L95.8744 76.3064C95.8744 76.3064 95.8744 78.049 95.2198 79.0664C95.2198 79.0664 96.3981 84.0127 97.751 86.3398C97.6419 86.5021 97.5328 86.6645 97.4127 86.8268C96.8018 85.7228 95.9399 83.937 95.2089 81.6207Z" stroke="white" stroke-width="24" mask="url(#path-18-inside-1_248_22297)"/>
<path d="M82.1591 76.5588L79.8874 76.89L79.5088 76.5588L80.6446 74.9023L81.7805 74.2397L82.1591 76.5588Z" fill="white"/>
<path d="M83.4865 63.5143L88.0299 64.9637L88.7871 64.2873L86.5154 60.9054L85.001 60.3257L83.4865 63.5143Z" fill="white"/>
<path d="M43.0682 63.5143L39.0927 64.9637L38.4302 64.2873L40.4179 60.9054L41.743 60.3257L43.0682 63.5143Z" fill="white"/>
<path d="M44.3956 76.5588L46.6673 76.89L47.0459 76.5588L45.9101 74.9023L44.7742 74.2397L44.3956 76.5588Z" fill="white"/>
<path d="M90.0867 28.5001C97.5347 34.1094 103.031 41.9177 105.8 50.8213C108.568 59.7249 108.468 69.2734 105.514 78.1171C102.559 86.9607 96.9003 94.6522 89.3364 100.104C81.7724 105.556 72.6863 108.493 63.3622 108.5C54.0382 108.506 44.9479 105.582 37.3764 100.14C29.8049 94.6988 24.1351 87.0152 21.1685 78.1757C18.202 69.3362 18.0886 59.7878 20.8446 50.8804C23.6005 41.9729 29.0863 34.157 36.5266 28.5373" stroke="white" stroke-width="1.5"/>
<path d="M48.7004 22.0273C57.9968 18.7883 68.1052 18.7254 77.4412 21.8483" stroke="white" stroke-width="1.5"/>
</svg>
