<svg width="820" height="426" viewBox="0 0 820 426" fill="none" xmlns="http://www.w3.org/2000/svg">
<path d="M416.818 119.883C416.477 119.883 416.173 119.883 415.907 119.921C415.642 119.921 415.338 119.959 415.11 119.997V113.432H453.479C462.208 113.432 469.039 114.874 473.935 117.72C478.831 120.566 482.094 124.779 483.688 130.358C484.485 133.166 484.865 135.823 484.865 138.366C484.865 142.768 483.688 146.677 481.373 150.093C479.058 153.508 475.681 156.127 471.24 158.024C466.8 159.884 461.563 160.833 455.528 160.833H445.016V171.535L445.206 173.774C445.358 175.482 445.699 176.734 446.155 177.493C446.61 178.252 447.483 178.974 448.773 179.581C449.418 179.998 449.912 180.226 450.291 180.226C450.519 180.264 450.823 180.302 451.164 180.34C451.506 180.378 451.733 180.416 451.771 180.416H453.024L454.542 180.302V186.981H415.186V180.302L415.793 180.416L418.564 180.226C419.702 180.226 420.613 179.96 421.372 179.467C422.587 178.822 423.422 178.063 423.877 177.266C424.333 176.469 424.56 175.292 424.56 173.736V128.764V126.639C424.56 124.779 424.067 123.223 423.08 121.971C422.093 120.718 420.613 120.073 418.678 119.959L416.818 119.883ZM444.978 153.356H452.682C455.566 153.356 457.995 152.825 459.931 151.8C461.866 150.776 463.346 149.144 464.333 146.943C465.32 144.741 465.813 141.895 465.813 138.404C465.813 136.848 465.699 135.14 465.51 133.28C464.637 124.438 460.576 119.997 453.251 119.997H449.722C449.38 119.997 449.153 120.035 449.039 120.111C447.71 120.225 446.686 120.529 445.965 121.136C445.244 121.705 444.864 122.464 444.864 123.375L444.978 153.356Z" fill="white"/>
<path d="M508.692 157.833C508.806 157.833 509.261 157.757 510.134 157.606C511.007 157.454 511.69 157.34 512.259 157.226V152.862C512.259 150.736 511.652 149.066 510.4 147.89C509.147 146.713 507.364 146.106 504.973 146.106C503.758 146.106 502.809 146.182 502.126 146.296C500.76 146.562 498.521 147.624 495.371 149.484C492.221 151.344 490.399 152.482 489.906 152.862L486.263 147.776C487.174 146.979 487.857 146.41 488.274 146.106C492.069 142.994 495.713 140.603 499.204 139.009C502.696 137.377 506.187 136.353 509.717 135.897C511.538 135.708 513.208 135.594 514.764 135.594C520.381 135.594 524.518 136.922 527.136 139.579C529.755 142.235 531.045 146.22 531.045 151.533V172.065L531.159 173.887C531.159 175.974 531.918 176.999 533.398 176.999C533.626 176.999 534.005 176.923 534.537 176.809C534.802 176.733 535.296 176.202 536.055 175.139C536.814 174.114 537.383 173.355 537.725 172.862C538.56 172.862 538.977 172.976 539.053 173.166C539.129 173.317 539.167 173.963 539.167 175.101V181.059C539.053 181.173 538.901 181.325 538.711 181.591C538.522 181.856 538.332 182.046 538.218 182.198C533.778 186.448 529.186 188.574 524.48 188.574C523.455 188.574 522.696 188.536 522.165 188.46C517.269 187.815 513.853 185.841 511.956 182.577L510.324 183.83C510.21 183.944 509.527 184.361 508.388 185.006C507.212 185.652 505.846 186.297 504.29 186.942C502.734 187.587 501.216 188.004 499.811 188.194C498.483 188.308 497.572 188.384 497.003 188.384C492.335 188.384 488.767 186.638 486.377 183.109C484.821 180.756 484.062 178.403 484.062 176.05C484.062 173.697 484.858 171.344 486.49 169.067C488.122 166.79 490.551 164.74 493.815 162.881C497.079 161.021 501.178 159.541 506.073 158.402C506.567 158.289 507.06 158.137 507.591 158.023C508.085 157.909 508.464 157.833 508.692 157.833ZM512.032 162.046C510.4 162.349 508.73 163.146 507.098 164.475C504.707 166.372 503.227 168.649 502.734 171.306C502.544 172.179 502.43 172.976 502.43 173.621C502.43 175.443 502.847 176.885 503.682 177.947C504.517 179.01 505.618 179.541 506.984 179.541C507.515 179.541 508.085 179.428 508.654 179.238C509.223 179.124 509.641 178.934 509.906 178.744L512.032 177.302V162.046Z" fill="white"/>
<path d="M533.022 143.034L532.491 143.148V136.886H564.446V143.148L563.763 143.034H563.079H562.586L561.827 143.148L561.334 143.262L560.954 143.375C559.816 143.831 559.208 144.704 559.208 145.956C559.208 147.133 559.588 148.499 560.309 150.055L560.651 150.814L561.334 152.56L570.025 173.585L578.829 152.56L579.854 150.093C580.651 148.347 581.03 147.019 581.03 146.108C581.03 145.615 580.917 145.159 580.727 144.78C580.385 144.096 579.892 143.641 579.209 143.451L578.715 143.337L578.222 143.224L577.615 143.11H577.083H576.97H576.286L575.603 143.224V136.886H595.11V143.148L594.731 143.034H594.351H593.82L593.327 143.148L592.833 143.262L592.454 143.375C591.391 143.793 590.329 144.552 589.19 145.615C588.545 146.449 587.71 147.93 586.761 150.055L585.888 152.522L571.505 186.981H556.552L541.675 152.522L540.65 150.055C539.739 147.93 538.904 146.449 538.221 145.615C537.424 144.666 536.476 143.907 535.299 143.375L534.844 143.262L534.464 143.148L533.971 143.034H533.591H533.477H533.022Z" fill="white"/>
<path d="M626.061 186.944H591.715V180.758H594.676L595.283 180.644L595.89 180.454C596.421 180.34 596.801 180.15 597.029 179.961C598.129 179.353 598.812 178.67 599.154 177.873C599.495 177.076 599.647 175.71 599.647 173.774V171.459V172.067V158.366V156.127C599.647 154.268 599.078 152.749 597.977 151.573C596.839 150.434 595.397 149.827 593.575 149.827H592.968H592.778L591.943 149.941V144.59C598.357 142.73 604.733 140.15 611.071 136.772H618.585V171.384V173.699C618.585 175.558 618.737 176.886 619.078 177.683C619.42 178.518 620.065 179.239 621.09 179.847C621.279 180.036 621.659 180.226 622.228 180.34L622.722 180.53L623.329 180.644H626.061V186.944ZM601.469 130.055C599.306 127.778 598.205 125.197 598.205 122.275C598.319 119.125 599.382 116.506 601.469 114.457C603.594 112.369 606.137 111.307 609.135 111.307C610.577 111.307 611.981 111.572 613.348 112.142C614.714 112.711 615.89 113.508 616.839 114.57C618.964 116.772 619.989 119.352 619.989 122.313C619.989 125.235 618.889 127.815 616.725 130.093C614.638 132.256 612.095 133.356 609.097 133.356C606.099 133.318 603.556 132.218 601.469 130.055Z" fill="white"/>
<path d="M627.515 122.843L626.68 122.957V117.492C628.767 116.885 630.399 116.353 631.613 115.86C636.547 114.114 641.253 112.065 645.693 109.674H653.284V171.496V173.812C653.284 175.671 653.435 176.999 653.777 177.796C654.118 178.631 654.764 179.352 655.788 179.96C655.978 180.149 656.358 180.339 656.889 180.453L657.42 180.643L658.103 180.757H658.787H659.318H659.508H660.115H660.798V186.943H626.718V180.757H627.477H628.084H628.198H628.805H629.488L630.133 180.643L630.741 180.453C631.613 180.225 632.334 179.77 632.866 179.125C633.511 178.593 633.89 178.024 634.042 177.417C634.194 176.81 634.308 175.595 634.384 173.774V171.459V171.838V131.344V128.991C634.384 127.093 633.815 125.575 632.638 124.513C631.5 123.412 630.019 122.881 628.274 122.881H627.666H627.515V122.843Z" fill="white"/>
<path d="M662.367 122.843L661.532 122.957V117.492C663.62 116.885 665.251 116.353 666.466 115.86C671.4 114.114 676.106 112.065 680.546 109.674H688.136V171.496V173.812C688.136 175.671 688.288 176.999 688.629 177.796C688.971 178.631 689.616 179.352 690.641 179.96C690.831 180.149 691.21 180.339 691.741 180.453L692.273 180.643L692.956 180.757H693.639H694.17H694.36H694.967H695.65V186.943H661.57V180.757H662.329H662.936H663.05H663.657H664.341L664.986 180.643L665.593 180.453C666.466 180.225 667.187 179.77 667.718 179.125C668.363 178.593 668.743 178.024 668.895 177.417C669.047 176.81 669.16 175.595 669.236 173.774V171.459V171.838V131.344V128.991C669.236 127.093 668.667 125.575 667.491 124.513C666.352 123.412 664.872 122.881 663.126 122.881H662.519H662.367V122.843Z" fill="white"/>
<path d="M710.303 185.119C706.014 182.614 702.864 179.388 700.853 175.479C698.841 171.57 697.854 166.978 697.854 161.741C697.892 157.377 698.803 153.392 700.663 149.824C702.485 146.257 704.989 143.259 708.177 140.792C711.783 138.135 715.692 136.503 719.98 135.934C722.143 135.669 723.737 135.555 724.762 135.555C727.836 135.555 730.758 136.01 733.605 136.959C736.451 137.908 738.956 139.198 741.195 140.906C743.434 142.614 745.332 144.663 746.888 147.092C748.482 149.521 749.62 152.215 750.341 155.138C751.062 158.212 751.442 160.982 751.442 163.525C751.442 168.117 750.379 172.254 748.216 175.935C746.091 179.578 742.979 182.652 738.88 185.081C736.299 186.637 733.301 187.7 729.885 188.231C728.178 188.497 726.356 188.611 724.42 188.611C718.955 188.687 714.249 187.51 710.303 185.119ZM717.589 153.164V165.309C717.703 171.533 718.348 176.011 719.449 178.781C720.549 181.552 722.143 182.918 724.269 182.918C724.686 182.918 725.445 182.804 726.508 182.538C728.329 181.855 729.582 180.337 730.341 177.984C731.1 175.631 731.517 171.381 731.593 165.271V153.43C731.593 146.978 729.885 143.221 726.394 142.12C725.711 141.931 725.066 141.817 724.458 141.817C722.409 141.817 720.777 142.765 719.487 144.663C718.234 146.485 717.589 149.369 717.589 153.164Z" fill="white"/>
<path d="M785.625 186.944H753.367V180.758H754.202H754.885H755.492H756.327L756.82 180.644L757.427 180.455C757.617 180.417 758.035 180.265 758.68 179.961C759.705 179.354 760.35 178.709 760.653 177.95C760.957 177.191 761.147 175.825 761.185 173.813V171.498V171.992V158.405V156.166C761.185 154.306 760.615 152.788 759.515 151.612C758.414 150.473 756.934 149.866 755.112 149.866H754.315L753.974 149.98H753.481V144.629C756.934 143.566 760.198 142.428 763.272 141.213C766.346 139.961 769.458 138.519 772.608 136.849H779.933V145.653C780.198 145.312 780.426 145.084 780.578 144.894C780.73 144.705 780.919 144.515 781.109 144.287C783.917 141.289 786.764 139.05 789.686 137.608C792.722 136.203 795.531 135.482 798.187 135.482C801.679 135.482 804.639 136.545 807.03 138.708C809.421 140.834 810.787 143.528 811.091 146.716C811.28 148.234 811.394 150.397 811.394 153.206V171.536V173.851C811.394 175.673 811.546 177.001 811.888 177.836C812.229 178.671 812.912 179.392 814.013 180.037C814.354 180.227 814.734 180.417 815.189 180.531L815.835 180.72L816.442 180.834H817.125H817.77H817.884H818.567H819.364V187.02H786.992V180.834H787.485H787.94H788.054H788.434H788.927L789.307 180.72L789.686 180.531C790.483 180.227 791.166 179.506 791.698 178.291C792.001 177.646 792.191 176.166 792.229 173.851V171.536V156.849V154.192V153.395C792.153 153.054 792.077 152.826 792.039 152.636C791.963 152.447 791.925 152.257 791.887 152.067C791.584 151.005 791.014 150.17 790.179 149.562C789.345 148.955 788.32 148.652 787.143 148.652C785.284 148.652 783.462 149.373 781.716 150.777C781.489 150.929 781.223 151.156 780.881 151.46L780.388 151.953L780.009 152.409V171.536L780.122 173.851C780.122 176.204 780.274 177.722 780.616 178.291C781.147 179.468 781.868 180.227 782.741 180.531L783.121 180.72L783.614 180.834H784.145H784.525H784.639H785.132H785.625V186.944Z" fill="white"/>
<path d="M555.704 200.11C566.444 198.895 577.184 198.326 587.886 198.44C598.589 198.554 609.329 199.161 620.069 200.224C625.496 200.641 630.923 201.248 636.35 201.97C641.739 202.691 647.204 203.45 652.631 204.247C655.022 204.626 657.413 205.006 659.804 205.461C662.195 205.878 664.624 206.296 667.091 206.6C669.558 206.941 672.024 207.131 674.491 207.245C676.958 207.359 679.387 207.207 681.778 206.751C684.017 206.372 686.18 205.689 688.192 204.626C690.241 203.563 691.987 202.197 693.543 200.527C694.264 199.73 695.099 199.199 696.048 198.895C696.996 198.592 697.983 198.478 698.97 198.554C699.994 198.63 701.019 198.782 702.082 198.971C703.144 199.199 704.093 199.389 704.966 199.617C709.596 200.565 714.188 201.704 718.666 203.032C723.183 204.36 727.661 205.765 732.177 207.207C734.568 208.004 735.82 209.104 735.934 210.547C736.048 211.951 735.061 213.507 733.05 215.177C730.014 217.568 726.674 219.313 723.069 220.338C719.463 221.401 715.782 222.273 712.025 222.995C702.803 224.816 693.315 225.348 683.599 224.588C673.884 223.829 664.662 221.818 655.933 218.554C644.092 214.19 632.1 211.306 619.879 209.825C607.697 208.383 595.401 207.852 583.067 208.307C570.732 208.725 558.398 209.901 546.026 211.799C533.692 213.696 521.509 215.746 509.441 218.023C508.416 218.175 507.316 218.289 506.063 218.364C504.811 218.44 503.862 218.402 503.179 218.213C502.496 218.023 502.23 217.681 502.42 217.188C502.61 216.695 503.634 215.974 505.532 215.025C513.236 210.812 521.32 207.548 529.745 205.157C538.284 202.804 546.937 201.097 555.704 200.11ZM544.812 279.466H544.166L542.535 276.202C542.231 275.709 541.813 275.291 541.282 274.988C540.751 274.684 540.182 274.532 539.612 274.456C539.043 274.381 538.474 274.456 537.98 274.608C537.487 274.798 537.107 275.102 536.88 275.519C536.424 276.544 536.083 277.568 535.779 278.555C535.476 279.58 535.551 280.681 536.007 281.819C536.159 282.199 536.273 282.578 536.348 283.033C536.424 283.451 536.538 283.868 536.69 284.248C537.032 285.349 537.411 286.449 537.791 287.588C538.132 288.726 538.626 289.789 539.195 290.813C539.992 292.332 541.092 293.546 542.497 294.419C543.901 295.292 545.343 296.127 546.785 296.924C548.683 298.024 550.428 298.442 552.022 298.214C553.616 297.986 555.362 297.151 557.26 295.709C558.36 294.76 559.347 293.774 560.182 292.787C561.055 291.762 561.776 290.662 562.345 289.409C562.725 288.612 563.104 287.853 563.56 287.132C563.977 286.411 564.357 285.652 564.66 284.855C565.875 281.591 567.089 278.328 568.19 275.064C569.328 271.8 570.505 268.536 571.719 265.272L574.679 256.771L577.943 247.625C578.398 246.335 579.309 245.803 580.789 246.107C582.535 246.486 584.281 246.79 586.027 247.094C587.772 247.397 589.518 247.625 591.264 247.853C592.516 248.004 593.731 247.929 594.907 247.625C596.122 247.321 597.222 246.752 598.209 245.879C600.334 244.133 601.055 242.046 600.372 239.579C600.069 238.479 599.461 237.871 598.513 237.72C597.564 237.568 596.653 237.454 595.78 237.378C594.034 237.226 592.289 237.188 590.543 237.226C588.797 237.264 587.051 237.226 585.306 237.188C584.736 237.188 584.129 237.188 583.522 237.15C582.915 237.112 582.232 237.074 581.511 236.999C581.928 235.177 582.383 233.469 582.801 231.837C583.256 230.205 583.636 228.535 584.015 226.866C584.243 225.651 584.395 224.437 584.433 223.26C584.509 222.084 584.547 220.907 584.547 219.655C584.547 218.63 584.319 217.871 583.826 217.302C583.37 216.771 582.801 216.505 582.156 216.505C580.903 216.581 579.727 216.619 578.55 216.657C577.374 216.695 576.235 216.771 575.059 216.922C574.414 216.998 573.731 217.074 573.047 217.15C572.364 217.226 571.719 217.416 571.15 217.681C569.897 218.251 568.721 218.858 567.544 219.427C566.368 219.996 565.267 220.68 564.167 221.476C563.37 222.046 562.611 222.691 561.89 223.374C561.169 224.057 560.637 224.816 560.258 225.613C559.537 227.435 558.929 229.294 558.474 231.154C558.019 233.052 557.563 234.911 557.108 236.809C556.956 237.606 556.728 238.175 556.387 238.479C556.045 238.82 555.438 238.934 554.489 238.858C552.895 238.782 551.377 239.238 549.935 240.149C548.493 241.097 547.886 242.691 548.075 244.93C548.227 245.727 548.455 246.335 548.796 246.714C549.138 247.132 549.669 247.283 550.466 247.207C550.694 247.207 550.922 247.207 551.112 247.17C551.339 247.132 551.529 247.132 551.757 247.132C553.275 247.283 553.844 248.042 553.389 249.409C553.237 249.826 553.123 250.282 553.009 250.699C552.895 251.116 552.781 251.572 552.63 251.989C552.25 253.887 551.908 255.746 551.529 257.606C551.149 259.466 550.77 261.325 550.315 263.223C549.935 264.665 549.518 266.145 549.062 267.625C548.607 269.105 548.113 270.585 547.582 272.028C547.127 273.28 546.671 274.494 546.178 275.747C545.684 276.999 545.153 278.214 544.66 279.466H544.812ZM555.476 251.724V251.838H555.362V251.724H555.476ZM555.704 251.724H555.59V251.838H555.817C555.817 251.762 555.78 251.724 555.704 251.724ZM556.121 251.041L556.007 250.927H556.121V250.813V250.927V251.041ZM556.349 250.927C556.349 250.851 556.349 250.813 556.311 250.775C556.273 250.737 556.273 250.775 556.273 250.813C556.273 250.737 556.273 250.737 556.311 250.775C556.349 250.813 556.349 250.889 556.349 250.927L556.235 250.813L556.349 250.927Z" fill="white"/>
<path d="M631.256 252.9C631.749 252.748 632.015 252.634 632.015 252.558C632.432 250.547 633.419 249.143 634.899 248.422C636.379 247.701 637.973 247.093 639.643 246.562C640.592 246.259 641.54 246.107 642.527 246.031C643.514 245.955 644.501 245.917 645.525 245.917C647.195 245.917 648.41 246.524 649.244 247.777C650.041 249.029 650.155 250.395 649.586 251.913C648.713 254.228 647.802 256.505 646.854 258.707C645.905 260.908 644.994 263.185 644.121 265.5C643.248 267.815 642.375 270.13 641.502 272.407C640.63 274.684 639.795 276.999 638.998 279.314C638.58 280.567 638.201 281.819 637.859 283.071C637.518 284.324 637.176 285.576 636.834 286.828C637.404 287.208 637.935 287.55 638.352 287.853C638.808 288.195 639.301 288.536 639.871 288.878C640.895 287.701 641.958 286.525 643.096 285.272C644.235 284.058 645.336 282.768 646.436 281.477C646.74 281.098 647.005 280.794 647.233 280.491C647.499 280.187 647.84 280.225 648.258 280.604C648.41 280.756 648.448 281.06 648.41 281.515C648.372 281.971 648.296 282.35 648.144 282.54C647.119 283.83 646.132 285.159 645.222 286.449C644.273 287.739 643.21 288.954 642.072 290.054C641.047 291.003 639.946 291.8 638.808 292.521C637.631 293.204 636.455 293.887 635.203 294.533C634.481 294.912 633.722 295.216 632.925 295.443C632.128 295.709 631.332 295.975 630.535 296.278C629.51 296.658 628.447 296.696 627.271 296.43C626.094 296.164 625.032 295.709 624.045 295.064C623.058 294.419 622.261 293.546 621.654 292.521C621.047 291.459 620.743 290.282 620.743 288.992C620.743 288.688 620.705 288.422 620.629 288.119C620.553 287.815 620.477 287.474 620.402 287.018C619.756 287.663 619.149 288.271 618.542 288.878C617.973 289.447 617.328 290.016 616.682 290.51C614.557 292.18 612.318 293.584 609.927 294.76C607.536 295.937 604.955 296.544 602.185 296.62C599.263 296.696 596.758 295.785 594.557 293.849C592.393 291.914 590.951 289.599 590.306 286.828C589.433 282.92 589.395 279.2 590.154 275.671C590.913 272.141 592.242 268.726 594.139 265.386C596.454 261.325 599.263 257.796 602.526 254.76C605.79 251.761 609.623 249.371 613.95 247.625C614.899 247.245 615.885 247.056 616.948 246.98C618.011 246.904 619.035 246.79 620.06 246.638C621.236 246.486 622.375 246.486 623.476 246.6C624.614 246.714 625.677 247.093 626.701 247.739C627.726 248.308 628.675 248.991 629.548 249.75C630.421 250.509 630.952 251.572 631.18 252.976L631.256 252.9ZM598.466 282.085H598.352V282.426C598.504 282.426 598.58 282.388 598.58 282.312L598.466 282.085ZM603.286 287.094H603.627L603.286 286.107V287.094ZM604.804 283.185C605.031 285.083 605.259 286.411 605.525 287.17C605.79 287.929 606.322 288.84 607.119 289.94C608.067 291.193 609.168 291.497 610.382 290.927C610.762 290.775 611.103 290.624 611.407 290.51C611.749 290.358 612.09 290.168 612.432 289.978C614.747 288.309 616.72 286.373 618.314 284.134C619.908 281.933 621.274 279.542 622.451 276.999C622.83 276.05 623.096 275.102 623.286 274.115C623.476 273.128 623.741 272.179 624.083 271.23C624.652 269.561 625.335 267.891 626.056 266.221C626.777 264.551 627.423 262.881 628.03 261.211C628.409 260.263 628.713 259.314 628.941 258.365C629.206 257.416 629.358 256.429 629.434 255.443C629.586 254.266 629.206 253.355 628.295 252.596C627.385 251.875 626.398 251.458 625.297 251.382C624.045 251.306 623.02 251.534 622.147 252.027C621.274 252.521 620.402 253.128 619.529 253.773C616.758 255.898 614.519 258.327 612.735 261.135C610.952 263.944 609.434 266.98 608.219 270.244C607.84 271.268 607.574 272.255 607.346 273.242C607.119 274.229 606.891 275.215 606.701 276.24L605.069 283.109L604.804 283.185Z" fill="white"/>
<path d="M699.869 288.955C700.666 287.779 701.501 286.64 702.374 285.54C703.247 284.401 704.082 283.225 704.879 282.01C705.448 281.137 706.017 280.264 706.549 279.354C707.08 278.443 707.649 277.57 708.219 276.697C708.37 276.469 708.598 276.317 708.94 276.204C709.281 276.09 709.585 275.976 709.851 275.824C709.926 276.204 710.002 276.621 710.116 277.076C710.23 277.532 710.192 277.873 710.078 277.987C709.509 278.405 709.016 278.936 708.598 279.581C708.181 280.188 707.839 280.834 707.573 281.479C707.27 282.124 706.966 282.769 706.663 283.452C706.321 284.097 705.942 284.705 705.524 285.198C704.272 286.564 703.095 288.006 701.995 289.449C700.856 290.891 699.566 292.181 698.124 293.244C696.302 294.686 694.366 295.824 692.279 296.621C690.23 297.418 687.953 297.418 685.486 296.621C683.019 295.824 681.311 294.079 680.362 291.384C679.983 290.435 679.755 289.449 679.603 288.424C679.452 287.399 679.262 286.375 679.072 285.274C678.503 285.919 677.896 286.602 677.288 287.361C676.681 288.082 676.036 288.803 675.391 289.524C675.011 289.904 674.632 290.208 674.252 290.435C673.835 290.701 673.455 290.967 673.114 291.232C669.622 293.851 665.713 295.483 661.349 296.128C659.11 296.508 656.795 296.014 654.442 294.724C652.089 293.433 650.419 291.422 649.47 288.727C648.825 286.83 648.445 284.894 648.332 282.883C648.218 280.872 648.445 278.86 649.053 276.849C649.774 274.534 650.419 272.181 650.95 269.79C651.481 267.399 652.127 265.046 652.848 262.693C653.265 261.327 653.759 259.922 654.328 258.556C654.859 257.19 655.58 255.9 656.453 254.761C657.819 252.939 659.489 251.573 661.425 250.662C663.36 249.752 665.486 249.22 667.801 249.068C668.37 248.992 668.939 248.917 669.432 248.841C669.926 248.765 670.495 248.803 671.064 248.955C672.431 249.182 673.493 249.789 674.176 250.738C674.859 251.725 675.049 252.901 674.67 254.268C674.366 255.558 674.025 256.848 673.645 258.139C673.228 259.391 672.848 260.644 672.506 261.896C671.937 263.718 671.368 265.501 670.837 267.247C670.305 268.993 669.736 270.777 669.167 272.598C668.597 274.268 668.028 275.938 667.535 277.646C667.041 279.354 666.586 281.061 666.245 282.807C666.093 283.68 666.131 284.591 666.358 285.54C666.586 286.488 666.776 287.437 666.89 288.386C666.89 288.538 667.041 288.69 667.307 288.803C667.611 288.955 667.838 289.069 668.066 289.145C669.281 289.373 670.381 289.183 671.292 288.614C672.203 288.044 673.076 287.437 673.949 286.868C675.163 286.071 676.188 285.122 676.985 283.984C677.782 282.845 678.579 281.669 679.376 280.454C680.324 278.86 681.083 277.228 681.653 275.596C682.222 273.964 682.905 272.295 683.626 270.625C684.347 269.107 684.955 267.551 685.41 265.957C685.865 264.363 686.359 262.731 686.89 261.061C687.194 260.112 687.497 259.201 687.877 258.329C688.256 257.456 688.522 256.507 688.75 255.482C688.901 254.837 689.433 254.268 690.344 253.736C691.254 253.243 692.089 252.75 692.886 252.332C694.404 251.535 695.998 250.966 697.63 250.662C699.262 250.321 700.932 250.131 702.602 250.055C703.816 249.979 704.765 250.169 705.448 250.662C706.093 251.118 706.625 251.991 706.966 253.205C707.346 254.154 707.46 255.027 707.346 255.824C707.232 256.621 707.004 257.494 706.625 258.442C706.055 259.695 705.6 260.947 705.258 262.2C704.917 263.452 704.537 264.704 704.12 265.957C703.551 267.854 702.905 269.752 702.26 271.687C701.615 273.623 701.008 275.52 700.401 277.418C699.945 278.708 699.566 280.037 699.186 281.327C698.807 282.617 698.465 283.946 698.086 285.236C697.934 285.957 698.01 286.564 698.237 287.096C698.503 287.589 699.11 288.044 700.135 288.386L699.869 288.955Z" fill="white"/>
<path d="M739.904 257.793C738.879 258.59 737.892 259.349 736.981 260.07C736.033 260.791 735.198 261.588 734.477 262.461C733.604 263.486 732.807 264.586 732.086 265.763C731.365 266.939 730.757 268.192 730.226 269.406C729.126 272.101 728.139 274.795 727.228 277.528C726.317 280.26 725.292 282.955 724.116 285.649C723.319 287.547 722.256 289.255 720.89 290.811C719.562 292.367 717.93 293.619 716.032 294.568C714.59 295.289 713.072 295.858 711.516 296.2C709.96 296.579 708.366 296.883 706.772 297.186C705.406 297.49 704.305 297.149 703.546 296.162C702.787 295.175 702.635 293.999 703.053 292.632C703.395 291.608 703.812 290.583 704.192 289.596C704.609 288.572 704.988 287.547 705.33 286.56C706.051 284.473 706.772 282.348 707.455 280.184C708.138 278.059 708.784 275.896 709.353 273.695C709.732 272.328 710.036 270.924 710.264 269.558C710.529 268.192 710.833 266.787 711.175 265.421C711.63 263.979 712.085 262.537 712.655 261.133C713.186 259.729 713.755 258.286 714.362 256.844C714.59 256.275 714.78 255.668 714.97 255.061C715.159 254.453 715.387 253.846 715.691 253.277C716.26 252.252 717.057 251.569 718.044 251.227C719.03 250.848 719.979 250.468 720.928 250.013C722.598 249.292 724.306 248.761 725.976 248.495C727.645 248.229 729.429 248.191 731.251 248.495C732.541 248.723 733.566 249.368 734.249 250.468C734.932 251.569 735.122 252.746 734.856 254.074C734.704 254.947 734.553 255.82 734.363 256.692C734.173 257.565 734.021 258.514 733.869 259.539C734.818 258.894 735.691 258.248 736.526 257.641C737.361 257.034 738.196 256.427 738.993 255.858C741.118 254.339 743.357 253.087 745.748 252.138C748.139 251.19 750.606 250.506 753.149 250.089C755.312 249.709 757.323 250.241 759.183 251.607C761.043 252.973 762.257 254.833 762.826 257.148C763.206 258.818 763.206 260.412 762.864 261.93C762.523 263.448 762.181 264.966 761.84 266.484C761.27 268.799 760.625 271.076 759.98 273.353C759.335 275.592 758.69 277.907 758.006 280.222C757.627 281.399 757.247 282.537 756.868 283.714C756.45 284.89 756.071 286.067 755.616 287.319C755.767 287.471 755.995 287.699 756.261 287.964C756.564 288.268 756.754 288.382 756.906 288.306C757.475 288.078 758.082 287.85 758.69 287.547C759.297 287.243 759.828 286.902 760.284 286.446C761.308 285.422 762.295 284.397 763.282 283.334C764.268 282.272 765.369 281.209 766.621 280.108C766.621 280.488 766.659 280.867 766.735 281.323C766.811 281.778 766.773 282.12 766.621 282.423C765.103 285.118 763.282 287.547 761.232 289.71C759.183 291.873 756.792 293.733 754.097 295.251C752.428 296.276 750.72 296.921 748.936 297.262C747.152 297.604 745.331 297.452 743.433 296.883C742.788 296.655 742.143 296.314 741.536 295.858C740.928 295.403 740.359 294.833 739.866 294.188C739.372 293.543 738.917 292.86 738.575 292.139C738.196 291.418 738.006 290.735 737.93 290.052C737.551 287.661 737.665 285.346 738.196 283.069C738.727 280.829 739.486 278.628 740.435 276.541C741.308 274.53 742.029 272.442 742.56 270.317C743.092 268.23 743.547 266.066 743.927 263.903C744.078 263.334 744.192 262.727 744.306 262.119C744.42 261.512 744.458 260.905 744.458 260.336C744.458 259.918 744.382 259.463 744.23 259.045C744.078 258.628 743.926 258.173 743.775 257.755C742.978 257.907 742.257 258.135 741.649 258.4C741.042 258.704 740.435 258.4 739.866 257.527V257.793H739.904ZM723.053 259.121L722.939 259.007C722.864 259.007 722.826 259.007 722.788 259.045C722.75 259.083 722.712 259.083 722.636 259.083H723.053V259.121Z" fill="white"/>
<path d="M786.321 282.084C785.865 283.337 785.827 284.513 786.093 285.69C786.397 286.866 786.928 287.891 787.725 288.84C788.522 289.788 789.509 290.547 790.723 291.117C791.938 291.686 793.228 292.028 794.708 292.103C796.15 292.179 797.478 292.028 798.617 291.61C799.793 291.193 800.818 290.699 801.729 290.016C802.64 289.371 803.475 288.574 804.272 287.663C805.069 286.752 805.828 285.803 806.549 284.779C807.194 283.754 807.839 283.564 808.522 284.247C808.75 284.551 808.94 284.969 809.053 285.5C809.205 286.031 809.205 286.373 809.053 286.525C808.029 287.549 807.004 288.574 806.017 289.561C804.993 290.585 803.892 291.534 802.754 292.407C799.718 294.722 796.492 296.278 793.114 297.075C789.736 297.872 786.207 298.138 782.488 297.834C781.045 297.682 779.755 297.265 778.692 296.582C777.592 295.899 776.567 295.14 775.543 294.343C774.67 293.697 773.759 293.052 772.81 292.445C771.861 291.838 771.102 291.117 770.533 290.32C769.736 289.219 769.015 288.043 768.408 286.79C767.8 285.538 767.231 284.248 766.7 282.919C766.055 281.173 765.713 279.466 765.675 277.796C765.637 276.126 765.827 274.494 766.206 272.9C766.624 271.306 767.117 269.712 767.8 268.156C768.446 266.6 769.129 265.044 769.888 263.526C771.064 261.135 772.468 258.934 774.176 256.923C775.884 254.911 777.896 253.203 780.211 251.761C781.88 250.737 783.626 249.826 785.486 249.029C787.345 248.232 789.205 247.435 791.103 246.638C792.203 246.22 793.304 245.803 794.48 245.499C795.657 245.158 796.795 245.006 797.972 245.006C799.717 245.082 801.463 245.272 803.209 245.537C804.955 245.841 806.701 246.068 808.446 246.296C809.547 246.448 810.534 246.714 811.444 247.169C812.355 247.587 813.19 248.156 813.987 248.801C815.088 249.674 815.999 250.623 816.758 251.685C817.517 252.748 817.82 254.076 817.668 255.67C817.593 256.315 817.555 256.961 817.555 257.644C817.555 258.289 817.517 258.934 817.441 259.617C817.137 261.932 816.416 264.019 815.277 265.841C814.139 267.663 812.849 269.409 811.482 271.078C810.989 271.648 810.382 272.179 809.699 272.672C809.016 273.128 808.294 273.545 807.573 273.925C805.676 274.949 803.816 275.936 802.033 276.923C800.211 277.91 798.313 278.745 796.378 279.466C794.86 280.035 793.228 280.452 791.52 280.68C789.812 280.908 788.104 281.173 786.359 281.553V282.084H786.321ZM786.397 271.951L786.738 272.293C787.118 272.141 787.497 271.989 787.953 271.875C788.37 271.724 788.788 271.534 789.167 271.344C791.406 270.13 793.38 268.65 795.087 266.942C796.795 265.234 798.351 263.336 799.831 261.211C800.552 260.11 801.16 258.934 801.615 257.682C802.07 256.429 802.526 255.177 802.981 253.924C803.361 252.976 803.323 252.33 802.943 252.027C802.526 251.685 801.919 251.723 801.046 252.065C800.249 252.444 799.452 252.862 798.655 253.355C797.858 253.849 797.175 254.456 796.605 255.101C795.581 256.201 794.594 257.302 793.607 258.479C792.621 259.655 791.71 260.832 790.837 262.084C789.812 263.602 788.939 265.196 788.218 266.866C787.497 268.536 786.89 270.243 786.359 271.989H786.397V271.951ZM790.571 293.849V293.963H790.685L790.571 293.849Z" fill="white"/>
<path d="M432.596 242.315L433.469 242.96V238.861V237.722C433.469 236.812 433.203 236.091 432.634 235.597C432.102 235.066 431.381 234.838 430.584 234.838H430.243L429.787 234.876V232.257C430.888 231.954 431.685 231.688 432.216 231.498C434.645 230.588 436.884 229.639 438.896 228.576H442.577V260.645L445.841 259.924V263.302C442.805 264.174 439.92 265.085 437.188 265.996H433.469V262.125C432.785 262.922 432.026 263.567 431.229 264.137C429.484 265.351 427.662 265.958 425.84 265.958C423.943 265.958 422.311 265.275 420.831 263.947C419.351 262.618 418.364 260.683 417.795 258.216C417.605 257.305 417.453 256.508 417.415 255.825C417.339 254.99 417.301 254.345 417.301 253.928C417.301 251.878 417.605 249.981 418.25 248.235C418.819 246.717 419.616 245.389 420.641 244.25C421.666 243.149 422.842 242.277 424.133 241.707C425.423 241.138 426.713 240.834 427.966 240.834C429.749 240.91 431.267 241.366 432.596 242.315ZM433.506 246.034L432.975 245.465C432.861 245.351 432.709 245.199 432.482 245.047C431.685 244.402 430.926 244.098 430.167 244.098C429.522 244.098 428.914 244.364 428.345 244.857C427.776 245.389 427.32 246.148 426.979 247.172C426.448 248.614 426.22 250.664 426.22 253.32C426.22 253.548 426.258 253.776 426.258 253.966C426.258 254.155 426.258 254.421 426.258 254.725C426.296 256.394 426.485 257.837 426.865 259.127C427.396 260.721 428.345 261.518 429.711 261.518C430.584 261.518 431.419 261.214 432.178 260.569C432.406 260.379 432.672 260.114 433.013 259.772C433.317 259.431 433.469 259.241 433.469 259.203V246.034H433.506Z" fill="white"/>
<path d="M469.333 248.954C469.599 249.599 469.827 250.207 469.903 250.776L456.354 256.469L456.506 256.962C456.847 257.911 457.492 258.859 458.403 259.808C459.466 260.909 460.832 261.554 462.54 261.744C464.172 261.744 465.538 261.516 466.639 261.023C466.791 260.947 467.056 260.833 467.398 260.605L468.309 260.074L469.599 262.579C469.257 262.882 468.84 263.11 468.46 263.3C465.956 264.742 463.489 265.615 461.06 265.918C460.604 265.994 459.959 265.994 459.086 265.994C456.696 265.994 454.608 265.501 452.787 264.514C450.965 263.527 449.523 262.123 448.498 260.34C447.473 258.518 446.98 256.431 446.98 254.078C446.98 253.053 447.056 252.028 447.246 250.966C447.663 248.764 448.46 246.867 449.599 245.311C450.775 243.755 452.255 242.578 454.039 241.819C455.747 241.098 457.379 240.719 458.935 240.719C461.25 240.719 463.299 241.44 465.121 242.844C466.942 244.362 468.347 246.373 469.333 248.954ZM458.517 251.611C459.162 251.383 459.618 251.079 459.845 250.776C460.073 250.472 460.225 250.017 460.225 249.448C460.225 249.106 460.187 248.613 460.073 248.005C459.959 247.284 459.694 246.601 459.314 245.956C458.935 245.311 458.555 244.817 458.176 244.552C457.72 244.21 457.265 244.021 456.771 244.021C455.785 244.021 455.026 244.59 454.608 245.69C454.418 246.146 454.267 246.867 454.191 247.892C454.191 249.41 454.343 250.928 454.608 252.408C454.608 252.484 454.646 252.597 454.684 252.749C454.722 252.901 454.76 253.091 454.798 253.281L458.517 251.611Z" fill="white"/>
<path d="M484.952 234.834L484.535 234.872V232.254C485.521 231.988 486.318 231.722 486.888 231.495C489.241 230.66 491.48 229.673 493.567 228.572H497.172V257.985V259.085C497.172 259.958 497.248 260.603 497.4 260.983C497.552 261.362 497.894 261.704 498.349 262.007C498.463 262.083 498.615 262.197 498.88 262.235L499.146 262.311L499.487 262.349H499.829H500.095H500.171H500.436H500.778V265.271H484.573V262.349H484.914H485.18H485.218H485.483H485.825L486.129 262.311L486.394 262.235C486.812 262.121 487.153 261.931 487.419 261.59C487.723 261.324 487.912 261.059 487.988 260.793C488.064 260.489 488.102 259.92 488.14 259.085V257.947V258.136V238.857V237.719C488.14 236.808 487.874 236.087 487.305 235.593C486.774 235.062 486.053 234.834 485.256 234.834H484.99H484.952Z" fill="white"/>
<path d="M513.448 251.459C513.486 251.459 513.714 251.421 514.132 251.345C514.549 251.269 514.891 251.231 515.156 251.155V249.106C515.156 248.081 514.853 247.284 514.283 246.753C513.714 246.183 512.841 245.918 511.703 245.918C511.133 245.918 510.678 245.956 510.336 245.994C509.691 246.107 508.629 246.639 507.149 247.512C505.668 248.384 504.796 248.916 504.568 249.106L502.822 246.677C503.277 246.297 503.581 246.031 503.771 245.88C505.555 244.4 507.3 243.261 508.97 242.502C510.64 241.743 512.31 241.25 513.98 241.022C514.853 240.946 515.65 240.87 516.371 240.87C519.065 240.87 521.001 241.515 522.253 242.768C523.506 244.02 524.113 245.918 524.113 248.46V258.214L524.151 259.087C524.151 260.073 524.492 260.567 525.213 260.567C525.327 260.567 525.517 260.529 525.745 260.491C525.858 260.453 526.124 260.187 526.466 259.694C526.807 259.201 527.111 258.821 527.263 258.593C527.642 258.593 527.87 258.631 527.908 258.745C527.946 258.821 527.946 259.125 527.946 259.656V262.502C527.908 262.54 527.832 262.654 527.718 262.768C527.604 262.882 527.528 262.996 527.49 263.034C525.365 265.045 523.202 266.07 520.963 266.07C520.469 266.07 520.09 266.07 519.862 266.032C517.509 265.728 515.915 264.779 515.004 263.223L514.245 263.793C514.169 263.869 513.866 264.058 513.335 264.362C512.765 264.666 512.12 264.969 511.399 265.273C510.64 265.576 509.957 265.766 509.274 265.88C508.629 265.956 508.211 265.956 507.945 265.956C505.706 265.956 504.036 265.121 502.898 263.451C502.177 262.351 501.797 261.212 501.797 260.111C501.797 258.973 502.177 257.872 502.936 256.81C503.695 255.747 504.871 254.76 506.427 253.887C507.983 253.015 509.919 252.293 512.272 251.762C512.5 251.686 512.727 251.648 512.993 251.572C513.183 251.496 513.373 251.459 513.448 251.459ZM515.08 253.47C514.283 253.622 513.524 254.001 512.727 254.608C511.589 255.519 510.906 256.582 510.678 257.834C510.602 258.252 510.526 258.631 510.526 258.935C510.526 259.808 510.716 260.491 511.133 260.984C511.551 261.478 512.044 261.743 512.689 261.743C512.955 261.743 513.221 261.705 513.486 261.592C513.752 261.516 513.942 261.44 514.056 261.364L515.08 260.681V253.47Z" fill="white"/>
<mask id="path-18-inside-1_248_22859" fill="white">
<path d="M174.776 78.9833C179.099 84.108 192.655 99.9184 195.513 100.5C195.513 100.5 215.407 98.0648 229.622 100.246C229.622 100.246 239.661 91.1954 250.505 79.165C251.385 79.4194 252.264 79.6738 253.18 79.9282C251.531 81.7455 249.883 83.5628 248.234 85.4165C236.107 98.9371 230.428 103.044 230.428 103.044C230.428 103.044 221.672 102.026 212.403 102.026C202.071 102.026 194.377 103.044 194.377 103.044C194.377 103.044 188.698 98.9371 176.571 85.4165C174.886 83.5628 173.237 81.7092 171.552 79.8556C172.615 79.6011 173.677 79.274 174.776 78.9833ZM105.422 272.415C102.857 280.521 99.8163 286.736 97.7646 290.479C97.325 289.861 96.9219 289.28 96.5189 288.662C101.135 280.993 105.202 263.911 105.202 263.911C103.004 260.494 103.004 254.642 103.004 254.642L100.805 258.059C87.0665 218.115 104.982 189.874 104.982 189.874C96.1526 189.874 93.4414 186.24 93.4414 186.24C102.015 183.804 112.603 173.082 112.603 173.082C105.239 173.337 105.495 169.193 105.495 169.193C120.48 164.796 119.234 149.458 119.49 131.685C119.637 120.636 119.967 112.785 120.223 108.423C121.066 107.696 121.909 106.969 122.751 106.279C121.432 128.486 122.275 151.384 119.49 159.162C116.193 168.357 110.111 169.811 110.111 169.811C110.111 169.811 111.723 170.611 114.325 170.611C116.926 170.611 118.208 169.993 118.208 169.993C118.208 169.993 114.838 175.009 108.902 179.625C102.967 184.241 98.7538 186.203 98.7538 186.203C98.7538 186.203 101.612 187.148 105.092 187.185C108.536 187.221 110.295 186.712 110.295 186.712C110.295 186.712 101.465 198.815 99.1935 218.805C97.0685 237.523 101.135 255.224 101.135 255.224C101.135 255.224 101.538 252.68 102.857 248.609C104.176 244.538 106.045 241.921 106.045 241.921C106.045 241.921 104.836 245.447 104.909 251.371C105.019 257.296 106.667 261.039 106.667 261.039C106.667 261.039 106.631 256.714 107.583 253.225C108.536 249.808 109.379 248.027 109.415 247.918C109.122 253.697 108.243 263.511 105.422 272.415ZM143.158 321.337C143.158 321.337 145.1 328.424 148.764 334.857C139.861 330.314 131.508 324.862 123.85 318.611C122.238 316.03 120.297 312.541 118.501 308.034C118.904 308.543 119.307 309.088 119.71 309.633C123.74 315.013 130.555 318.72 130.555 318.72C130.555 318.72 123.337 310.033 120.003 297.058C117.292 286.481 116.633 278.085 116.486 275.178C116.926 276.268 117.402 277.358 117.915 278.449C125.426 294.732 137.186 306.217 137.186 306.217C137.186 306.217 135.684 301.238 135.061 295.64C134.695 292.478 134.732 289.716 134.842 287.79C136.16 293.714 139.311 303.782 147.005 318.72C149.79 324.281 152.977 329.551 155.761 333.876C147.884 327.188 143.158 321.337 143.158 321.337ZM155.102 246.792C155.908 245.919 156.934 245.192 156.934 245.192C156.934 245.192 155.908 246.937 155.395 248.791C154.845 250.681 154.479 253.152 154.479 253.152C154.479 253.152 155.945 249.845 157.63 247.41C158.876 245.629 159.975 244.429 160.488 243.92C161.44 245.592 162.356 247.482 163.162 249.518C161.843 251.08 158.912 255.188 157.227 261.911C154.955 270.707 156.054 278.885 156.054 278.885C156.054 278.885 157.667 273.288 161.33 268.708C163.968 265.401 166.203 263.474 167.229 262.638C168.511 268.199 168.548 270.962 168.548 270.962C168.548 270.962 166.972 275.069 166.606 286.336C166.24 297.603 170.013 307.962 170.013 307.962C170.013 307.962 165.544 301.637 164.151 288.735C162.759 275.868 165.763 267.945 165.763 267.945C165.763 267.945 160.011 273.215 157.776 284.3C155.542 295.386 158.216 307.416 158.216 307.416C158.216 307.416 153.014 296.222 152.244 282.629C151.511 268.999 153.197 256.314 153.197 256.314C153.197 256.314 150.193 261.548 149.277 270.78C148.361 280.048 148.727 288.844 148.727 288.844C148.727 288.844 141.693 276.195 143.634 259.077C145.54 241.994 152.574 233.78 152.574 233.78C152.574 233.78 155.102 235.961 157.996 239.959C157.3 240.795 156.128 242.321 155.285 244.102C154.039 246.719 153.71 248.609 153.71 248.609C153.71 248.609 154.296 247.664 155.102 246.792ZM191.959 348.56C189.431 347.506 185.877 345.979 182.323 344.089C176.058 340.782 173.018 337.474 173.018 337.474C173.018 337.474 174.556 340.782 177.121 343.762C177.964 344.743 178.696 345.47 179.356 346.125C178.916 346.016 178.44 345.907 178 345.798C174.63 343.798 168.658 339.219 161.33 329.115C157.776 324.39 154.736 318.72 152.098 312.977C152.281 313.232 152.464 313.522 152.647 313.777C162.026 327.079 170.636 333.949 170.636 333.949C170.636 333.949 168.255 330.46 166.276 325.771C164.298 321.082 162.759 316.43 162.759 316.43C162.759 316.43 169.574 327.516 181.591 337.329C188.332 342.817 193.278 346.343 197.345 349.214C195.513 349.032 193.718 348.814 191.959 348.56ZM208.592 349.977C207.493 348.414 205.661 346.052 202.84 343.035C197.528 337.438 191.666 334.058 182.836 321.809C174.007 309.561 174.52 296.258 174.52 296.258C175.252 298.148 174.849 301.965 180.382 311.451C185.914 320.937 192.985 327.116 192.985 327.116C192.985 327.116 191.959 324.935 191.3 321.991C190.603 319.047 190.713 316.103 190.713 316.103C190.713 316.103 191.373 319.629 193.644 324.244C195.916 328.86 197.235 331.077 202.437 338.165C205.881 342.854 208.079 347.397 209.142 349.977C208.959 349.977 208.776 349.977 208.592 349.977ZM203.903 310.688C198.004 309.197 193.571 304.618 193.571 304.618C193.571 304.618 195.989 305.09 198.993 304.654C201.998 304.218 204.709 303.019 207.566 302.037C209.142 301.528 210.864 301.274 212.549 301.274C214.234 301.274 215.883 301.565 217.275 302.037C220.133 303.019 222.844 304.218 225.848 304.654C228.816 305.09 231.234 304.581 231.234 304.581C231.234 304.581 226.764 309.052 220.902 310.651C215.15 312.25 208.629 311.851 203.903 310.688ZM221.965 343.035C219.107 346.016 217.312 348.378 216.213 349.977C216.03 349.977 215.883 349.977 215.7 349.977C216.799 347.397 218.961 342.854 222.405 338.165C227.607 331.077 228.926 328.897 231.198 324.244C233.469 319.629 234.128 316.103 234.128 316.103C234.128 316.103 234.202 319.047 233.542 321.991C232.846 324.935 231.857 327.116 231.857 327.116C231.857 327.116 238.928 320.937 244.46 311.451C249.992 301.965 249.553 298.148 250.322 296.258C250.322 296.258 250.872 309.561 242.042 321.809C233.139 334.058 227.277 337.438 221.965 343.035ZM247.648 345.507C247.098 345.652 246.549 345.798 245.999 345.907C246.622 345.289 247.281 344.598 248.014 343.726C250.579 340.745 252.117 337.438 252.117 337.438C252.117 337.438 249.077 340.745 242.812 344.053C239.441 345.834 236.034 347.324 233.506 348.378C231.527 348.669 229.549 348.923 227.534 349.141C231.601 346.27 236.51 342.744 243.215 337.293C255.232 327.479 262.046 316.394 262.046 316.394C262.046 316.394 260.507 321.046 258.529 325.735C256.551 330.423 254.169 333.912 254.169 333.912C254.169 333.912 262.779 327.043 272.158 313.741C272.708 312.977 273.22 312.178 273.733 311.378C270.912 317.666 267.652 323.917 263.768 329.078C256.844 338.71 251.092 343.362 247.648 345.507ZM258.236 286.336C257.869 275.069 256.294 270.962 256.294 270.962C256.294 270.962 256.294 268.199 257.613 262.638C258.639 263.474 260.874 265.401 263.512 268.708C267.175 273.288 268.787 278.885 268.787 278.885C268.787 278.885 269.85 270.744 267.615 261.911C265.893 255.224 262.962 251.117 261.68 249.518C262.486 247.482 263.402 245.592 264.354 243.92C264.867 244.429 265.966 245.629 267.212 247.41C268.897 249.808 270.363 253.152 270.363 253.152C270.363 253.152 269.96 250.681 269.447 248.791C268.861 246.937 267.871 245.192 267.871 245.192C267.871 245.192 268.897 245.919 269.703 246.792C270.509 247.664 271.169 248.645 271.169 248.645C271.169 248.645 270.839 246.755 269.593 244.138C268.751 242.357 267.578 240.831 266.882 239.995C269.74 235.997 272.305 233.816 272.305 233.816C272.305 233.816 279.339 241.994 281.244 259.113C283.149 276.195 276.151 288.88 276.151 288.88C276.151 288.88 276.481 280.084 275.602 270.816C274.686 261.548 271.682 256.351 271.682 256.351C271.682 256.351 273.367 269.035 272.634 282.665C271.902 296.295 266.662 307.453 266.662 307.453C266.662 307.453 269.337 295.422 267.102 284.337C264.867 273.251 259.115 267.981 259.115 267.981C259.115 267.981 262.083 275.905 260.727 288.771C259.335 301.637 254.865 307.998 254.865 307.998C254.865 307.998 258.639 297.603 258.236 286.336ZM304.985 309.67C305.681 308.761 306.341 307.889 307 307.053C305.315 311.414 303.483 314.904 301.907 317.557C294.14 324.026 285.677 329.696 276.591 334.385C280.072 328.097 281.94 321.337 281.94 321.337C281.94 321.337 277.214 327.188 269.374 333.912C272.158 329.587 275.345 324.317 278.13 318.756C285.311 304.763 288.535 295.095 290 289.025C290.037 290.843 290 293.132 289.707 295.64C289.084 301.238 287.582 306.217 287.582 306.217C287.582 306.217 299.306 294.732 306.853 278.449C307.366 277.358 307.806 276.304 308.282 275.25C308.136 282.556 306.011 292.042 304.729 297.094C301.395 310.07 294.177 318.756 294.177 318.756C294.177 318.756 300.955 315.049 304.985 309.67ZM307.586 219.932C303.813 217.279 300.369 215.789 300.369 215.789C300.369 215.789 306.231 227.746 305.022 245.192C303.813 262.675 297.511 275.941 297.511 275.941C297.511 275.941 297.584 267 295.239 257.514C292.895 248.027 288.755 243.302 288.755 243.302C288.755 243.302 290.367 247.264 292.015 253.697C293.664 260.131 293.701 264.456 293.701 264.456C293.701 264.456 291.209 254.969 286.263 245.883C281.281 236.76 274.649 230.727 274.649 230.727C274.649 230.727 276.628 231.635 279.009 233.416C281.391 235.197 283.186 237.451 283.186 237.451C283.186 237.451 282.087 234.761 280.768 232.399C279.449 230.036 277.837 228.255 277.837 228.255C277.837 228.255 279.632 228.873 284.395 232.362C289.121 235.852 293.078 242.176 293.078 242.176C293.078 242.176 290.733 235.634 286.85 231.054C282.966 226.474 278.826 224.403 278.826 224.403C278.826 224.403 280.878 223.967 284.615 224.657C288.462 225.384 291.832 227.129 291.832 227.129C291.832 227.129 288.059 222.585 281.684 220.55C275.309 218.515 268.824 219.06 268.824 219.06C268.824 219.06 275.895 217.097 284.468 218.551C293.041 219.968 298.024 225.566 298.024 225.566C298.024 225.566 296.265 220.986 289.634 216.261C282.966 211.573 276.188 210.7 276.188 210.7C276.188 210.7 277.873 207.466 282.16 202.886C286.41 198.306 290.33 195.835 290.33 195.835C290.33 195.835 282.416 197.18 269.19 209.428C255.964 221.677 248.82 231.381 248.82 231.381C248.82 231.381 250.359 230.4 252.154 229.382C253.949 228.364 255.708 227.456 255.708 227.456C255.708 227.456 252.997 231.854 248.747 239.341C244.497 246.828 241.456 256.823 241.456 256.823C241.456 256.823 247.025 247.628 255.744 237.778C264.464 227.928 273.294 222.985 273.294 222.985C273.294 222.985 267.285 228.873 260.874 239.777C254.462 250.681 250.872 263.656 250.872 263.656C250.872 263.656 249.443 261.911 248.454 258.495C247.464 255.115 248.527 251.698 248.527 251.698C248.527 251.698 247.135 253.298 246.072 256.278C245.01 259.258 244.827 262.602 246.109 269.362C247.391 276.159 247.831 287.281 237.096 294.586C226.325 301.892 215.517 294.259 215.517 294.259C215.517 294.259 218.228 294.441 222.295 293.46C226.361 292.478 228.193 288.517 227.167 287.244C226.142 285.972 222.661 287.79 220.756 285.609C218.851 283.428 219.877 278.303 223.54 278.158C226.545 278.013 227.497 279.975 227.497 279.975C227.497 279.975 226.654 279.321 224.566 279.43C222.514 279.539 220.829 281.938 221.782 283.683C222.698 285.427 227.424 285.936 230.978 281.538C234.532 277.14 232.187 269.108 227.094 265.546C222.844 262.529 214.967 262.566 212.549 262.638C210.094 262.566 202.254 262.566 198.004 265.546C192.912 269.144 190.567 277.177 194.121 281.538C197.674 285.936 202.401 285.427 203.317 283.683C204.232 281.938 202.584 279.539 200.532 279.43C198.48 279.321 197.601 279.975 197.601 279.975C197.601 279.975 198.554 278.013 201.558 278.158C205.222 278.34 206.248 283.428 204.342 285.609C202.437 287.79 198.957 285.972 197.931 287.244C196.905 288.517 198.737 292.478 202.804 293.46C206.87 294.441 209.582 294.259 209.582 294.259C209.582 294.259 198.737 301.892 188.002 294.586C177.231 287.281 177.707 276.159 178.989 269.362C180.272 262.566 180.089 259.258 179.026 256.278C177.964 253.298 176.571 251.698 176.571 251.698C176.571 251.698 177.634 255.078 176.645 258.495C175.655 261.875 174.227 263.656 174.227 263.656C174.227 263.656 170.599 250.681 164.225 239.777C157.813 228.873 151.805 222.985 151.805 222.985C151.805 222.985 160.598 227.928 169.317 237.778C178.037 247.628 183.606 256.823 183.606 256.823C183.606 256.823 180.565 246.828 176.315 239.341C172.065 231.854 169.354 227.456 169.354 227.456C169.354 227.456 171.112 228.364 172.908 229.382C174.703 230.4 176.242 231.381 176.242 231.381C176.242 231.381 168.951 221.713 155.688 209.465C142.462 197.216 134.548 195.871 134.548 195.871C134.548 195.871 138.432 198.343 142.719 202.922C146.968 207.502 148.69 210.737 148.69 210.737C148.69 210.737 141.876 211.573 135.245 216.298C128.577 220.986 126.855 225.602 126.855 225.602C126.855 225.602 131.837 220.005 140.41 218.587C148.984 217.17 156.054 219.096 156.054 219.096C156.054 219.096 149.57 218.515 143.195 220.586C136.82 222.658 133.046 227.165 133.046 227.165C133.046 227.165 136.417 225.42 140.264 224.693C144.001 224.003 146.053 224.439 146.053 224.439C146.053 224.439 141.913 226.511 138.029 231.09C134.145 235.67 131.801 242.212 131.801 242.212C131.801 242.212 135.721 235.888 140.484 232.399C145.21 228.91 147.042 228.292 147.042 228.292C147.042 228.292 145.43 230.073 144.111 232.435C142.792 234.798 141.693 237.487 141.693 237.487C141.693 237.487 143.488 235.234 145.869 233.453C148.251 231.672 150.229 230.763 150.229 230.763C150.229 230.763 143.561 236.797 138.615 245.919C133.632 255.042 131.178 264.492 131.178 264.492C131.178 264.492 131.214 260.167 132.863 253.734C134.512 247.301 136.124 243.339 136.124 243.339C136.124 243.339 131.947 248.064 129.639 257.55C127.294 267.036 127.368 275.977 127.368 275.977C127.368 275.977 121.066 262.675 119.857 245.229C118.648 227.746 124.51 215.825 124.51 215.825C124.51 215.825 121.066 217.315 117.292 219.968C113.519 222.622 111.907 224.766 111.907 224.766C111.907 224.766 114.361 217.024 122.092 210.01C129.859 202.995 135.794 201.141 135.794 201.141C135.794 201.141 125.792 202.486 117.952 208.229C110.111 213.971 108.17 218.842 108.17 218.842C108.17 218.842 109.195 204.485 120.37 188.13C131.544 171.774 144.111 166.177 144.111 166.177C144.111 166.177 141.216 165.595 138.176 166.213C135.135 166.795 132.533 168.139 132.533 168.139C132.533 168.139 134.951 165.05 136.6 161.67C138.249 158.326 139.385 155.673 139.385 155.673C139.385 155.673 138.359 156.909 136.38 158.217C134.402 159.525 132.57 160.143 132.57 160.143C132.57 160.143 136.93 155.382 139.641 149.967C142.352 144.515 143.561 139.572 143.561 139.572C143.561 139.572 139.531 142.661 136.893 145.969C134.219 149.276 133.523 151.239 133.523 151.239C133.523 151.239 132.643 148.476 133.523 144.733C134.402 140.989 136.124 139.136 136.124 139.136C136.124 139.136 133.999 139.681 132.314 141.643C130.665 143.57 130.152 145.205 130.152 145.205C130.152 145.205 128.723 137.246 131.068 133.102C133.413 128.959 137.479 129.649 139.238 130.485C140.997 131.321 141.839 132.811 141.839 132.811C141.839 132.811 141.29 128.741 137.772 126.705C134.292 124.706 131.947 125.251 131.947 125.251C131.947 125.251 130.702 109.804 132.717 94.5029C134.732 79.2013 137.699 72.5501 145.393 71.8958C145.65 71.8595 145.869 71.8595 146.126 71.8595C153.527 71.8231 160.671 80.5098 165.324 89.051C170.123 97.8467 171.259 103.916 171.259 103.916C171.259 103.916 170.16 103.698 168.291 103.989C166.423 104.28 164.921 105.043 164.921 105.043C164.921 105.043 168.181 105.189 170.526 108.641C172.908 112.131 172.908 116.092 172.908 116.092C172.908 116.092 171.589 114.311 169.574 113.003C167.559 111.694 166.313 111.513 166.313 111.513C166.313 111.513 168.401 113.657 168.401 116.856C168.438 120.09 167.632 121.508 166.606 121.581C164.115 121.762 158.399 114.638 153.893 106.097C149.387 97.5559 148.874 91.9343 148.874 91.9343C148.874 91.9343 148.507 98.9734 150.156 107.805C151.805 116.601 154.076 123.689 154.076 123.689C154.076 123.689 150.449 118.237 147.921 108.823C145.356 99.4096 144.917 94.8664 144.917 94.8664C144.917 94.8664 143.561 104.498 146.053 116.201C148.544 127.905 151.621 133.429 151.695 134.992C151.768 136.555 149.13 139.572 147.078 143.279C144.99 146.986 144.367 149.603 144.367 149.603C144.367 149.603 145.43 148.331 146.199 147.386C147.005 146.405 147.958 145.532 147.958 145.532C147.958 145.532 147.445 149.53 145.027 154.582C142.645 159.635 139.934 162.179 139.934 162.179C139.934 162.179 143.378 160.907 147.555 156.945C151.695 152.983 153.124 150.73 153.124 150.73C153.124 150.73 153.673 153.637 155.029 156.909C156.384 160.18 158.07 161.997 158.07 161.997C158.07 161.997 157.08 150.003 161.44 138.663C165.8 127.323 171.589 125.288 171.589 125.288C171.589 125.288 170.343 126.596 168.768 129.322C167.192 132.048 166.899 133.684 166.899 133.684C166.899 133.684 173.86 124.924 185.364 124.016C196.868 123.107 200.349 125.869 200.349 125.869C200.349 125.869 199.726 130.74 191.519 132.484C183.313 134.229 183.642 133.793 180.931 135.283C178.22 136.737 176.791 138.736 176.791 138.736C176.791 138.736 177.011 136.991 178.696 134.374C180.382 131.757 182.104 130.449 182.104 130.449C182.104 130.449 173.604 131.939 167.888 141.062C162.173 150.185 163.345 162.724 160.304 166.686C157.264 170.647 154.223 172.028 154.223 172.028C154.223 172.028 155.175 170.575 155.945 168.648C156.714 166.758 156.567 165.05 156.567 165.05C156.567 165.05 143.854 172.61 133.999 183.732C124.143 194.854 121.652 200.451 121.652 200.451C121.652 200.451 122.385 200.015 123.667 199.506C123.997 199.251 124.363 198.997 124.73 198.743C137.076 190.092 151.878 194.054 151.878 194.054C151.878 194.054 155.651 188.529 164.554 186.349C171.479 184.677 176.608 186.53 178.586 187.439C178.843 189.184 178.477 190.383 178.477 190.383C178.477 190.383 174.336 187.766 165.983 189.402C157.63 191.037 154.772 196.38 154.772 196.38C154.772 196.38 157.227 195.326 160.085 196.126C164.078 197.252 164.518 200.596 169.647 204.376C174.74 208.083 178.367 208.338 182.323 211.863C186.244 215.389 187.379 219.242 187.379 219.242C187.379 219.242 187.819 214.008 187.16 206.993C186.537 199.978 184.851 196.525 184.851 196.525C184.851 196.525 186.903 197.616 189.724 197.979C192.545 198.343 194.231 197.616 194.231 197.616L194.194 197.689C193.901 198.016 193.425 198.452 192.728 198.815C191.3 199.579 189.981 199.688 189.981 199.688C189.981 199.688 191.556 201.977 192.838 209.937C193.058 211.355 193.241 212.845 193.315 214.408C196.355 218.733 199.653 223.24 199.653 223.24C199.653 223.24 199.433 221.677 198.92 219.387C198.371 217.134 198.114 215.098 198.114 215.098C198.114 215.098 200.898 218.26 204.929 225.566C208.592 232.181 211.926 240.358 212.549 241.812C213.135 240.322 216.469 232.181 220.17 225.566C224.2 218.297 226.984 215.098 226.984 215.098C226.984 215.098 226.691 217.097 226.142 219.387C225.592 221.64 225.409 223.24 225.409 223.24C225.409 223.24 228.633 218.842 231.637 214.553C231.747 212.954 231.894 211.391 232.15 209.937C233.432 202.014 235.008 199.688 235.008 199.688C235.008 199.688 233.689 199.542 232.26 198.815C231.601 198.488 231.161 198.088 230.868 197.761C230.831 197.689 230.795 197.579 230.795 197.579C230.795 197.579 232.48 198.306 235.301 197.943C238.122 197.579 240.174 196.489 240.174 196.489C240.174 196.489 238.525 199.942 237.866 206.993C237.243 214.008 237.646 219.242 237.646 219.242C237.646 219.242 238.745 215.389 242.702 211.863C246.622 208.338 250.286 208.083 255.378 204.376C260.544 200.633 260.947 197.252 264.94 196.126C267.798 195.326 270.253 196.38 270.253 196.38C270.253 196.38 267.395 191.074 259.042 189.402C250.689 187.766 246.549 190.383 246.549 190.383C246.549 190.383 246.182 189.147 246.439 187.403C248.454 186.494 253.546 184.677 260.397 186.349C269.3 188.529 273.074 194.054 273.074 194.054C273.074 194.054 287.912 190.092 300.222 198.743C300.515 198.961 300.845 199.179 301.138 199.397C302.567 199.978 303.41 200.451 303.41 200.451C303.41 200.451 300.918 194.854 291.063 183.732C281.207 172.61 268.494 165.05 268.494 165.05C268.494 165.05 268.384 166.722 269.117 168.648C269.886 170.538 270.839 172.028 270.839 172.028C270.839 172.028 267.798 170.647 264.757 166.686C261.716 162.724 262.889 150.185 257.173 141.062C251.458 131.939 242.958 130.449 242.958 130.449C242.958 130.449 244.68 131.757 246.365 134.374C248.051 136.991 248.27 138.736 248.27 138.736C248.27 138.736 246.842 136.773 244.13 135.283C241.419 133.829 241.749 134.229 233.542 132.484C225.336 130.74 224.713 125.869 224.713 125.869L225.116 125.579C226.361 124.888 230.428 123.289 239.624 124.016C251.128 124.924 258.089 133.684 258.089 133.684C258.089 133.684 257.796 132.048 256.221 129.322C254.645 126.596 253.4 125.288 253.4 125.288C253.4 125.288 259.188 127.287 263.548 138.663C267.908 150.003 266.919 161.997 266.919 161.997C266.919 161.997 268.604 160.216 269.96 156.909C271.315 153.637 271.865 150.73 271.865 150.73C271.865 150.73 273.294 152.983 277.434 156.945C281.574 160.907 285.054 162.179 285.054 162.179C285.054 162.179 282.343 159.635 279.962 154.582C277.58 149.53 277.031 145.532 277.031 145.532C277.031 145.532 278.02 146.441 278.789 147.386C279.595 148.367 280.621 149.603 280.621 149.603C280.621 149.603 279.998 146.95 277.91 143.279C275.822 139.572 273.22 136.555 273.294 134.992C273.367 133.429 276.445 127.905 278.936 116.201C281.427 104.498 280.072 94.8664 280.072 94.8664C280.072 94.8664 279.632 99.4096 277.067 108.823C274.503 118.237 270.912 123.689 270.912 123.689C270.912 123.689 273.184 116.601 274.833 107.805C276.481 99.0098 276.115 91.9343 276.115 91.9343C276.115 91.9343 275.602 97.5559 271.096 106.134C266.589 114.675 260.874 121.799 258.382 121.617C257.357 121.544 256.551 120.127 256.587 116.892C256.624 113.657 258.675 111.549 258.675 111.549C258.675 111.549 257.43 111.767 255.415 113.039C253.4 114.348 252.044 116.129 252.044 116.129C252.044 116.129 252.081 112.131 254.426 108.678C256.807 105.189 260.031 105.08 260.031 105.08C260.031 105.08 258.529 104.28 256.66 104.025C254.755 103.771 253.693 103.953 253.693 103.953C253.693 103.953 254.829 97.9194 259.628 89.0874C264.281 80.5461 271.425 71.8595 278.826 71.8958C279.082 71.8958 279.302 71.8958 279.559 71.9322C287.216 72.5501 290.184 79.2013 292.235 94.5392C294.25 109.841 293.005 125.288 293.005 125.288C293.005 125.288 290.66 124.743 287.179 126.742C283.699 128.741 283.113 132.848 283.113 132.848C283.113 132.848 283.955 131.358 285.714 130.522C287.472 129.686 291.576 128.995 293.884 133.138C296.229 137.282 294.8 145.242 294.8 145.242C294.8 145.242 294.324 143.642 292.638 141.68C290.99 139.753 288.828 139.172 288.828 139.172C288.828 139.172 290.55 141.025 291.429 144.769C292.308 148.513 291.429 151.275 291.429 151.275C291.429 151.275 290.696 149.349 288.059 146.005C285.384 142.697 281.391 139.608 281.391 139.608C281.391 139.608 282.6 144.551 285.311 150.003C288.022 155.455 292.382 160.18 292.382 160.18C292.382 160.18 290.587 159.562 288.571 158.253C286.593 156.945 285.567 155.709 285.567 155.709C285.567 155.709 286.703 158.362 288.352 161.706C290 165.05 292.418 168.176 292.418 168.176C292.418 168.176 289.817 166.831 286.776 166.249C283.735 165.668 280.841 166.213 280.841 166.213C280.841 166.213 293.408 171.81 304.582 188.166C315.756 204.522 316.782 218.878 316.782 218.878C316.782 218.878 314.84 214.008 307 208.265C299.16 202.523 289.158 201.178 289.158 201.178C289.158 201.178 295.093 203.031 302.86 210.046C310.627 217.061 313.045 224.802 313.045 224.802C313.045 224.802 311.36 222.585 307.586 219.932ZM217.202 281.502C217.239 279.139 217.935 273.76 222.588 272.961C222.917 272.888 223.211 272.888 223.504 272.888H223.797C227.424 272.997 228.45 276.777 228.45 276.777C228.45 276.777 228.047 275.941 226.545 275.069C225.042 274.196 222.075 273.833 219.73 276.85C217.349 279.83 217.385 284.918 217.385 284.918C217.385 284.918 217.202 283.864 217.202 281.502ZM207.42 284.955C207.42 284.955 207.42 279.866 205.075 276.886C202.694 273.906 199.726 274.233 198.261 275.105C196.758 275.977 196.355 276.813 196.355 276.813C196.355 276.813 197.381 273.033 201.008 272.924C201.118 272.924 201.192 272.924 201.302 272.924C201.595 272.924 201.888 272.961 202.217 273.033C206.834 273.833 207.566 279.176 207.603 281.575C207.603 283.901 207.42 284.955 207.42 284.955ZM181.957 202.995C181.957 202.995 183.569 205.357 183.496 206.884C183.423 208.411 181.298 207.538 181.298 207.538C181.298 207.538 182.03 207.138 182.213 205.939C182.397 204.558 181.957 202.995 181.957 202.995ZM174.593 195.181C174.593 195.871 174.043 196.416 173.384 196.416C173.054 196.416 172.761 196.271 172.505 196.053C172.505 196.089 172.505 196.126 172.505 196.162C172.505 197.761 173.824 199.033 175.436 199.033C176.791 199.033 177.927 198.125 178.257 196.853C179.869 198.852 180.565 200.705 180.565 200.705C180.565 200.705 175.326 204.812 170.856 200.996C166.826 197.543 168.987 192.382 168.987 192.382C168.987 192.382 169.061 192.382 169.171 192.382C169.793 192.382 171.992 192.418 174.263 193.509C174.007 193.618 173.787 193.763 173.567 193.909C174.153 194.054 174.593 194.563 174.593 195.181ZM242.592 205.939C242.775 207.138 243.508 207.538 243.508 207.538C243.508 207.538 241.383 208.411 241.309 206.884C241.236 205.357 242.848 202.995 242.848 202.995C242.848 202.995 242.409 204.558 242.592 205.939ZM252.264 196.053C252.044 196.307 251.714 196.416 251.385 196.416C250.725 196.416 250.176 195.871 250.176 195.181C250.176 194.563 250.615 194.054 251.201 193.945C250.982 193.763 250.762 193.618 250.505 193.545C252.777 192.455 254.975 192.382 255.598 192.418C255.708 192.418 255.781 192.418 255.781 192.418C255.781 192.418 257.943 197.579 253.913 201.032C249.443 204.849 244.204 200.742 244.204 200.742C244.204 200.742 244.9 198.888 246.512 196.889C246.842 198.161 248.014 199.07 249.333 199.07C250.945 199.07 252.264 197.798 252.264 196.198C252.264 196.126 252.264 196.089 252.264 196.053ZM319.713 272.415C317.039 263.983 316.086 254.679 315.756 248.754C316.123 249.627 316.636 251.044 317.222 253.152C318.174 256.641 318.138 260.967 318.138 260.967C318.138 260.967 319.786 257.223 319.896 251.299C320.006 245.374 318.797 241.849 318.797 241.849C318.797 241.849 320.666 244.502 321.985 248.536C323.304 252.607 323.707 255.151 323.707 255.151C323.707 255.151 327.773 237.451 325.648 218.733C323.377 198.743 314.547 186.639 314.547 186.639C314.547 186.639 316.306 187.185 319.75 187.112C323.194 187.076 326.088 186.131 326.088 186.131C326.088 186.131 321.875 184.204 315.94 179.552C310.004 174.936 306.634 169.92 306.634 169.92C306.634 169.92 307.916 170.538 310.517 170.538C313.118 170.538 314.73 169.739 314.73 169.739C314.73 169.739 308.649 168.248 305.351 159.089C302.567 151.348 303.41 128.595 302.091 106.461C302.97 107.224 303.886 107.987 304.765 108.75C304.985 113.185 305.315 120.89 305.461 131.612C305.718 149.385 304.472 164.723 319.457 169.121C319.457 169.121 319.713 173.264 312.349 173.01C312.349 173.01 322.901 183.732 331.51 186.167C331.51 186.167 328.799 189.801 319.97 189.801C319.97 189.801 337.885 218.042 324.146 257.986L321.948 254.57C321.948 254.57 321.948 260.421 319.75 263.838C319.75 263.838 323.707 280.448 328.25 288.262C327.883 288.807 327.517 289.353 327.114 289.898C325.062 286.19 322.168 280.193 319.713 272.415Z"/>
</mask>
<path d="M174.776 78.9833C179.099 84.108 192.655 99.9184 195.513 100.5C195.513 100.5 215.407 98.0648 229.622 100.246C229.622 100.246 239.661 91.1954 250.505 79.165C251.385 79.4194 252.264 79.6738 253.18 79.9282C251.531 81.7455 249.883 83.5628 248.234 85.4165C236.107 98.9371 230.428 103.044 230.428 103.044C230.428 103.044 221.672 102.026 212.403 102.026C202.071 102.026 194.377 103.044 194.377 103.044C194.377 103.044 188.698 98.9371 176.571 85.4165C174.886 83.5628 173.237 81.7092 171.552 79.8556C172.615 79.6011 173.677 79.274 174.776 78.9833ZM105.422 272.415C102.857 280.521 99.8163 286.736 97.7646 290.479C97.325 289.861 96.9219 289.28 96.5189 288.662C101.135 280.993 105.202 263.911 105.202 263.911C103.004 260.494 103.004 254.642 103.004 254.642L100.805 258.059C87.0665 218.115 104.982 189.874 104.982 189.874C96.1526 189.874 93.4414 186.24 93.4414 186.24C102.015 183.804 112.603 173.082 112.603 173.082C105.239 173.337 105.495 169.193 105.495 169.193C120.48 164.796 119.234 149.458 119.49 131.685C119.637 120.636 119.967 112.785 120.223 108.423C121.066 107.696 121.909 106.969 122.751 106.279C121.432 128.486 122.275 151.384 119.49 159.162C116.193 168.357 110.111 169.811 110.111 169.811C110.111 169.811 111.723 170.611 114.325 170.611C116.926 170.611 118.208 169.993 118.208 169.993C118.208 169.993 114.838 175.009 108.902 179.625C102.967 184.241 98.7538 186.203 98.7538 186.203C98.7538 186.203 101.612 187.148 105.092 187.185C108.536 187.221 110.295 186.712 110.295 186.712C110.295 186.712 101.465 198.815 99.1935 218.805C97.0685 237.523 101.135 255.224 101.135 255.224C101.135 255.224 101.538 252.68 102.857 248.609C104.176 244.538 106.045 241.921 106.045 241.921C106.045 241.921 104.836 245.447 104.909 251.371C105.019 257.296 106.667 261.039 106.667 261.039C106.667 261.039 106.631 256.714 107.583 253.225C108.536 249.808 109.379 248.027 109.415 247.918C109.122 253.697 108.243 263.511 105.422 272.415ZM143.158 321.337C143.158 321.337 145.1 328.424 148.764 334.857C139.861 330.314 131.508 324.862 123.85 318.611C122.238 316.03 120.297 312.541 118.501 308.034C118.904 308.543 119.307 309.088 119.71 309.633C123.74 315.013 130.555 318.72 130.555 318.72C130.555 318.72 123.337 310.033 120.003 297.058C117.292 286.481 116.633 278.085 116.486 275.178C116.926 276.268 117.402 277.358 117.915 278.449C125.426 294.732 137.186 306.217 137.186 306.217C137.186 306.217 135.684 301.238 135.061 295.64C134.695 292.478 134.732 289.716 134.842 287.79C136.16 293.714 139.311 303.782 147.005 318.72C149.79 324.281 152.977 329.551 155.761 333.876C147.884 327.188 143.158 321.337 143.158 321.337ZM155.102 246.792C155.908 245.919 156.934 245.192 156.934 245.192C156.934 245.192 155.908 246.937 155.395 248.791C154.845 250.681 154.479 253.152 154.479 253.152C154.479 253.152 155.945 249.845 157.63 247.41C158.876 245.629 159.975 244.429 160.488 243.92C161.44 245.592 162.356 247.482 163.162 249.518C161.843 251.08 158.912 255.188 157.227 261.911C154.955 270.707 156.054 278.885 156.054 278.885C156.054 278.885 157.667 273.288 161.33 268.708C163.968 265.401 166.203 263.474 167.229 262.638C168.511 268.199 168.548 270.962 168.548 270.962C168.548 270.962 166.972 275.069 166.606 286.336C166.24 297.603 170.013 307.962 170.013 307.962C170.013 307.962 165.544 301.637 164.151 288.735C162.759 275.868 165.763 267.945 165.763 267.945C165.763 267.945 160.011 273.215 157.776 284.3C155.542 295.386 158.216 307.416 158.216 307.416C158.216 307.416 153.014 296.222 152.244 282.629C151.511 268.999 153.197 256.314 153.197 256.314C153.197 256.314 150.193 261.548 149.277 270.78C148.361 280.048 148.727 288.844 148.727 288.844C148.727 288.844 141.693 276.195 143.634 259.077C145.54 241.994 152.574 233.78 152.574 233.78C152.574 233.78 155.102 235.961 157.996 239.959C157.3 240.795 156.128 242.321 155.285 244.102C154.039 246.719 153.71 248.609 153.71 248.609C153.71 248.609 154.296 247.664 155.102 246.792ZM191.959 348.56C189.431 347.506 185.877 345.979 182.323 344.089C176.058 340.782 173.018 337.474 173.018 337.474C173.018 337.474 174.556 340.782 177.121 343.762C177.964 344.743 178.696 345.47 179.356 346.125C178.916 346.016 178.44 345.907 178 345.798C174.63 343.798 168.658 339.219 161.33 329.115C157.776 324.39 154.736 318.72 152.098 312.977C152.281 313.232 152.464 313.522 152.647 313.777C162.026 327.079 170.636 333.949 170.636 333.949C170.636 333.949 168.255 330.46 166.276 325.771C164.298 321.082 162.759 316.43 162.759 316.43C162.759 316.43 169.574 327.516 181.591 337.329C188.332 342.817 193.278 346.343 197.345 349.214C195.513 349.032 193.718 348.814 191.959 348.56ZM208.592 349.977C207.493 348.414 205.661 346.052 202.84 343.035C197.528 337.438 191.666 334.058 182.836 321.809C174.007 309.561 174.52 296.258 174.52 296.258C175.252 298.148 174.849 301.965 180.382 311.451C185.914 320.937 192.985 327.116 192.985 327.116C192.985 327.116 191.959 324.935 191.3 321.991C190.603 319.047 190.713 316.103 190.713 316.103C190.713 316.103 191.373 319.629 193.644 324.244C195.916 328.86 197.235 331.077 202.437 338.165C205.881 342.854 208.079 347.397 209.142 349.977C208.959 349.977 208.776 349.977 208.592 349.977ZM203.903 310.688C198.004 309.197 193.571 304.618 193.571 304.618C193.571 304.618 195.989 305.09 198.993 304.654C201.998 304.218 204.709 303.019 207.566 302.037C209.142 301.528 210.864 301.274 212.549 301.274C214.234 301.274 215.883 301.565 217.275 302.037C220.133 303.019 222.844 304.218 225.848 304.654C228.816 305.09 231.234 304.581 231.234 304.581C231.234 304.581 226.764 309.052 220.902 310.651C215.15 312.25 208.629 311.851 203.903 310.688ZM221.965 343.035C219.107 346.016 217.312 348.378 216.213 349.977C216.03 349.977 215.883 349.977 215.7 349.977C216.799 347.397 218.961 342.854 222.405 338.165C227.607 331.077 228.926 328.897 231.198 324.244C233.469 319.629 234.128 316.103 234.128 316.103C234.128 316.103 234.202 319.047 233.542 321.991C232.846 324.935 231.857 327.116 231.857 327.116C231.857 327.116 238.928 320.937 244.46 311.451C249.992 301.965 249.553 298.148 250.322 296.258C250.322 296.258 250.872 309.561 242.042 321.809C233.139 334.058 227.277 337.438 221.965 343.035ZM247.648 345.507C247.098 345.652 246.549 345.798 245.999 345.907C246.622 345.289 247.281 344.598 248.014 343.726C250.579 340.745 252.117 337.438 252.117 337.438C252.117 337.438 249.077 340.745 242.812 344.053C239.441 345.834 236.034 347.324 233.506 348.378C231.527 348.669 229.549 348.923 227.534 349.141C231.601 346.27 236.51 342.744 243.215 337.293C255.232 327.479 262.046 316.394 262.046 316.394C262.046 316.394 260.507 321.046 258.529 325.735C256.551 330.423 254.169 333.912 254.169 333.912C254.169 333.912 262.779 327.043 272.158 313.741C272.708 312.977 273.22 312.178 273.733 311.378C270.912 317.666 267.652 323.917 263.768 329.078C256.844 338.71 251.092 343.362 247.648 345.507ZM258.236 286.336C257.869 275.069 256.294 270.962 256.294 270.962C256.294 270.962 256.294 268.199 257.613 262.638C258.639 263.474 260.874 265.401 263.512 268.708C267.175 273.288 268.787 278.885 268.787 278.885C268.787 278.885 269.85 270.744 267.615 261.911C265.893 255.224 262.962 251.117 261.68 249.518C262.486 247.482 263.402 245.592 264.354 243.92C264.867 244.429 265.966 245.629 267.212 247.41C268.897 249.808 270.363 253.152 270.363 253.152C270.363 253.152 269.96 250.681 269.447 248.791C268.861 246.937 267.871 245.192 267.871 245.192C267.871 245.192 268.897 245.919 269.703 246.792C270.509 247.664 271.169 248.645 271.169 248.645C271.169 248.645 270.839 246.755 269.593 244.138C268.751 242.357 267.578 240.831 266.882 239.995C269.74 235.997 272.305 233.816 272.305 233.816C272.305 233.816 279.339 241.994 281.244 259.113C283.149 276.195 276.151 288.88 276.151 288.88C276.151 288.88 276.481 280.084 275.602 270.816C274.686 261.548 271.682 256.351 271.682 256.351C271.682 256.351 273.367 269.035 272.634 282.665C271.902 296.295 266.662 307.453 266.662 307.453C266.662 307.453 269.337 295.422 267.102 284.337C264.867 273.251 259.115 267.981 259.115 267.981C259.115 267.981 262.083 275.905 260.727 288.771C259.335 301.637 254.865 307.998 254.865 307.998C254.865 307.998 258.639 297.603 258.236 286.336ZM304.985 309.67C305.681 308.761 306.341 307.889 307 307.053C305.315 311.414 303.483 314.904 301.907 317.557C294.14 324.026 285.677 329.696 276.591 334.385C280.072 328.097 281.94 321.337 281.94 321.337C281.94 321.337 277.214 327.188 269.374 333.912C272.158 329.587 275.345 324.317 278.13 318.756C285.311 304.763 288.535 295.095 290 289.025C290.037 290.843 290 293.132 289.707 295.64C289.084 301.238 287.582 306.217 287.582 306.217C287.582 306.217 299.306 294.732 306.853 278.449C307.366 277.358 307.806 276.304 308.282 275.25C308.136 282.556 306.011 292.042 304.729 297.094C301.395 310.07 294.177 318.756 294.177 318.756C294.177 318.756 300.955 315.049 304.985 309.67ZM307.586 219.932C303.813 217.279 300.369 215.789 300.369 215.789C300.369 215.789 306.231 227.746 305.022 245.192C303.813 262.675 297.511 275.941 297.511 275.941C297.511 275.941 297.584 267 295.239 257.514C292.895 248.027 288.755 243.302 288.755 243.302C288.755 243.302 290.367 247.264 292.015 253.697C293.664 260.131 293.701 264.456 293.701 264.456C293.701 264.456 291.209 254.969 286.263 245.883C281.281 236.76 274.649 230.727 274.649 230.727C274.649 230.727 276.628 231.635 279.009 233.416C281.391 235.197 283.186 237.451 283.186 237.451C283.186 237.451 282.087 234.761 280.768 232.399C279.449 230.036 277.837 228.255 277.837 228.255C277.837 228.255 279.632 228.873 284.395 232.362C289.121 235.852 293.078 242.176 293.078 242.176C293.078 242.176 290.733 235.634 286.85 231.054C282.966 226.474 278.826 224.403 278.826 224.403C278.826 224.403 280.878 223.967 284.615 224.657C288.462 225.384 291.832 227.129 291.832 227.129C291.832 227.129 288.059 222.585 281.684 220.55C275.309 218.515 268.824 219.06 268.824 219.06C268.824 219.06 275.895 217.097 284.468 218.551C293.041 219.968 298.024 225.566 298.024 225.566C298.024 225.566 296.265 220.986 289.634 216.261C282.966 211.573 276.188 210.7 276.188 210.7C276.188 210.7 277.873 207.466 282.16 202.886C286.41 198.306 290.33 195.835 290.33 195.835C290.33 195.835 282.416 197.18 269.19 209.428C255.964 221.677 248.82 231.381 248.82 231.381C248.82 231.381 250.359 230.4 252.154 229.382C253.949 228.364 255.708 227.456 255.708 227.456C255.708 227.456 252.997 231.854 248.747 239.341C244.497 246.828 241.456 256.823 241.456 256.823C241.456 256.823 247.025 247.628 255.744 237.778C264.464 227.928 273.294 222.985 273.294 222.985C273.294 222.985 267.285 228.873 260.874 239.777C254.462 250.681 250.872 263.656 250.872 263.656C250.872 263.656 249.443 261.911 248.454 258.495C247.464 255.115 248.527 251.698 248.527 251.698C248.527 251.698 247.135 253.298 246.072 256.278C245.01 259.258 244.827 262.602 246.109 269.362C247.391 276.159 247.831 287.281 237.096 294.586C226.325 301.892 215.517 294.259 215.517 294.259C215.517 294.259 218.228 294.441 222.295 293.46C226.361 292.478 228.193 288.517 227.167 287.244C226.142 285.972 222.661 287.79 220.756 285.609C218.851 283.428 219.877 278.303 223.54 278.158C226.545 278.013 227.497 279.975 227.497 279.975C227.497 279.975 226.654 279.321 224.566 279.43C222.514 279.539 220.829 281.938 221.782 283.683C222.698 285.427 227.424 285.936 230.978 281.538C234.532 277.14 232.187 269.108 227.094 265.546C222.844 262.529 214.967 262.566 212.549 262.638C210.094 262.566 202.254 262.566 198.004 265.546C192.912 269.144 190.567 277.177 194.121 281.538C197.674 285.936 202.401 285.427 203.317 283.683C204.232 281.938 202.584 279.539 200.532 279.43C198.48 279.321 197.601 279.975 197.601 279.975C197.601 279.975 198.554 278.013 201.558 278.158C205.222 278.34 206.248 283.428 204.342 285.609C202.437 287.79 198.957 285.972 197.931 287.244C196.905 288.517 198.737 292.478 202.804 293.46C206.87 294.441 209.582 294.259 209.582 294.259C209.582 294.259 198.737 301.892 188.002 294.586C177.231 287.281 177.707 276.159 178.989 269.362C180.272 262.566 180.089 259.258 179.026 256.278C177.964 253.298 176.571 251.698 176.571 251.698C176.571 251.698 177.634 255.078 176.645 258.495C175.655 261.875 174.227 263.656 174.227 263.656C174.227 263.656 170.599 250.681 164.225 239.777C157.813 228.873 151.805 222.985 151.805 222.985C151.805 222.985 160.598 227.928 169.317 237.778C178.037 247.628 183.606 256.823 183.606 256.823C183.606 256.823 180.565 246.828 176.315 239.341C172.065 231.854 169.354 227.456 169.354 227.456C169.354 227.456 171.112 228.364 172.908 229.382C174.703 230.4 176.242 231.381 176.242 231.381C176.242 231.381 168.951 221.713 155.688 209.465C142.462 197.216 134.548 195.871 134.548 195.871C134.548 195.871 138.432 198.343 142.719 202.922C146.968 207.502 148.69 210.737 148.69 210.737C148.69 210.737 141.876 211.573 135.245 216.298C128.577 220.986 126.855 225.602 126.855 225.602C126.855 225.602 131.837 220.005 140.41 218.587C148.984 217.17 156.054 219.096 156.054 219.096C156.054 219.096 149.57 218.515 143.195 220.586C136.82 222.658 133.046 227.165 133.046 227.165C133.046 227.165 136.417 225.42 140.264 224.693C144.001 224.003 146.053 224.439 146.053 224.439C146.053 224.439 141.913 226.511 138.029 231.09C134.145 235.67 131.801 242.212 131.801 242.212C131.801 242.212 135.721 235.888 140.484 232.399C145.21 228.91 147.042 228.292 147.042 228.292C147.042 228.292 145.43 230.073 144.111 232.435C142.792 234.798 141.693 237.487 141.693 237.487C141.693 237.487 143.488 235.234 145.869 233.453C148.251 231.672 150.229 230.763 150.229 230.763C150.229 230.763 143.561 236.797 138.615 245.919C133.632 255.042 131.178 264.492 131.178 264.492C131.178 264.492 131.214 260.167 132.863 253.734C134.512 247.301 136.124 243.339 136.124 243.339C136.124 243.339 131.947 248.064 129.639 257.55C127.294 267.036 127.368 275.977 127.368 275.977C127.368 275.977 121.066 262.675 119.857 245.229C118.648 227.746 124.51 215.825 124.51 215.825C124.51 215.825 121.066 217.315 117.292 219.968C113.519 222.622 111.907 224.766 111.907 224.766C111.907 224.766 114.361 217.024 122.092 210.01C129.859 202.995 135.794 201.141 135.794 201.141C135.794 201.141 125.792 202.486 117.952 208.229C110.111 213.971 108.17 218.842 108.17 218.842C108.17 218.842 109.195 204.485 120.37 188.13C131.544 171.774 144.111 166.177 144.111 166.177C144.111 166.177 141.216 165.595 138.176 166.213C135.135 166.795 132.533 168.139 132.533 168.139C132.533 168.139 134.951 165.05 136.6 161.67C138.249 158.326 139.385 155.673 139.385 155.673C139.385 155.673 138.359 156.909 136.38 158.217C134.402 159.525 132.57 160.143 132.57 160.143C132.57 160.143 136.93 155.382 139.641 149.967C142.352 144.515 143.561 139.572 143.561 139.572C143.561 139.572 139.531 142.661 136.893 145.969C134.219 149.276 133.523 151.239 133.523 151.239C133.523 151.239 132.643 148.476 133.523 144.733C134.402 140.989 136.124 139.136 136.124 139.136C136.124 139.136 133.999 139.681 132.314 141.643C130.665 143.57 130.152 145.205 130.152 145.205C130.152 145.205 128.723 137.246 131.068 133.102C133.413 128.959 137.479 129.649 139.238 130.485C140.997 131.321 141.839 132.811 141.839 132.811C141.839 132.811 141.29 128.741 137.772 126.705C134.292 124.706 131.947 125.251 131.947 125.251C131.947 125.251 130.702 109.804 132.717 94.5029C134.732 79.2013 137.699 72.5501 145.393 71.8958C145.65 71.8595 145.869 71.8595 146.126 71.8595C153.527 71.8231 160.671 80.5098 165.324 89.051C170.123 97.8467 171.259 103.916 171.259 103.916C171.259 103.916 170.16 103.698 168.291 103.989C166.423 104.28 164.921 105.043 164.921 105.043C164.921 105.043 168.181 105.189 170.526 108.641C172.908 112.131 172.908 116.092 172.908 116.092C172.908 116.092 171.589 114.311 169.574 113.003C167.559 111.694 166.313 111.513 166.313 111.513C166.313 111.513 168.401 113.657 168.401 116.856C168.438 120.09 167.632 121.508 166.606 121.581C164.115 121.762 158.399 114.638 153.893 106.097C149.387 97.5559 148.874 91.9343 148.874 91.9343C148.874 91.9343 148.507 98.9734 150.156 107.805C151.805 116.601 154.076 123.689 154.076 123.689C154.076 123.689 150.449 118.237 147.921 108.823C145.356 99.4096 144.917 94.8664 144.917 94.8664C144.917 94.8664 143.561 104.498 146.053 116.201C148.544 127.905 151.621 133.429 151.695 134.992C151.768 136.555 149.13 139.572 147.078 143.279C144.99 146.986 144.367 149.603 144.367 149.603C144.367 149.603 145.43 148.331 146.199 147.386C147.005 146.405 147.958 145.532 147.958 145.532C147.958 145.532 147.445 149.53 145.027 154.582C142.645 159.635 139.934 162.179 139.934 162.179C139.934 162.179 143.378 160.907 147.555 156.945C151.695 152.983 153.124 150.73 153.124 150.73C153.124 150.73 153.673 153.637 155.029 156.909C156.384 160.18 158.07 161.997 158.07 161.997C158.07 161.997 157.08 150.003 161.44 138.663C165.8 127.323 171.589 125.288 171.589 125.288C171.589 125.288 170.343 126.596 168.768 129.322C167.192 132.048 166.899 133.684 166.899 133.684C166.899 133.684 173.86 124.924 185.364 124.016C196.868 123.107 200.349 125.869 200.349 125.869C200.349 125.869 199.726 130.74 191.519 132.484C183.313 134.229 183.642 133.793 180.931 135.283C178.22 136.737 176.791 138.736 176.791 138.736C176.791 138.736 177.011 136.991 178.696 134.374C180.382 131.757 182.104 130.449 182.104 130.449C182.104 130.449 173.604 131.939 167.888 141.062C162.173 150.185 163.345 162.724 160.304 166.686C157.264 170.647 154.223 172.028 154.223 172.028C154.223 172.028 155.175 170.575 155.945 168.648C156.714 166.758 156.567 165.05 156.567 165.05C156.567 165.05 143.854 172.61 133.999 183.732C124.143 194.854 121.652 200.451 121.652 200.451C121.652 200.451 122.385 200.015 123.667 199.506C123.997 199.251 124.363 198.997 124.73 198.743C137.076 190.092 151.878 194.054 151.878 194.054C151.878 194.054 155.651 188.529 164.554 186.349C171.479 184.677 176.608 186.53 178.586 187.439C178.843 189.184 178.477 190.383 178.477 190.383C178.477 190.383 174.336 187.766 165.983 189.402C157.63 191.037 154.772 196.38 154.772 196.38C154.772 196.38 157.227 195.326 160.085 196.126C164.078 197.252 164.518 200.596 169.647 204.376C174.74 208.083 178.367 208.338 182.323 211.863C186.244 215.389 187.379 219.242 187.379 219.242C187.379 219.242 187.819 214.008 187.16 206.993C186.537 199.978 184.851 196.525 184.851 196.525C184.851 196.525 186.903 197.616 189.724 197.979C192.545 198.343 194.231 197.616 194.231 197.616L194.194 197.689C193.901 198.016 193.425 198.452 192.728 198.815C191.3 199.579 189.981 199.688 189.981 199.688C189.981 199.688 191.556 201.977 192.838 209.937C193.058 211.355 193.241 212.845 193.315 214.408C196.355 218.733 199.653 223.24 199.653 223.24C199.653 223.24 199.433 221.677 198.92 219.387C198.371 217.134 198.114 215.098 198.114 215.098C198.114 215.098 200.898 218.26 204.929 225.566C208.592 232.181 211.926 240.358 212.549 241.812C213.135 240.322 216.469 232.181 220.17 225.566C224.2 218.297 226.984 215.098 226.984 215.098C226.984 215.098 226.691 217.097 226.142 219.387C225.592 221.64 225.409 223.24 225.409 223.24C225.409 223.24 228.633 218.842 231.637 214.553C231.747 212.954 231.894 211.391 232.15 209.937C233.432 202.014 235.008 199.688 235.008 199.688C235.008 199.688 233.689 199.542 232.26 198.815C231.601 198.488 231.161 198.088 230.868 197.761C230.831 197.689 230.795 197.579 230.795 197.579C230.795 197.579 232.48 198.306 235.301 197.943C238.122 197.579 240.174 196.489 240.174 196.489C240.174 196.489 238.525 199.942 237.866 206.993C237.243 214.008 237.646 219.242 237.646 219.242C237.646 219.242 238.745 215.389 242.702 211.863C246.622 208.338 250.286 208.083 255.378 204.376C260.544 200.633 260.947 197.252 264.94 196.126C267.798 195.326 270.253 196.38 270.253 196.38C270.253 196.38 267.395 191.074 259.042 189.402C250.689 187.766 246.549 190.383 246.549 190.383C246.549 190.383 246.182 189.147 246.439 187.403C248.454 186.494 253.546 184.677 260.397 186.349C269.3 188.529 273.074 194.054 273.074 194.054C273.074 194.054 287.912 190.092 300.222 198.743C300.515 198.961 300.845 199.179 301.138 199.397C302.567 199.978 303.41 200.451 303.41 200.451C303.41 200.451 300.918 194.854 291.063 183.732C281.207 172.61 268.494 165.05 268.494 165.05C268.494 165.05 268.384 166.722 269.117 168.648C269.886 170.538 270.839 172.028 270.839 172.028C270.839 172.028 267.798 170.647 264.757 166.686C261.716 162.724 262.889 150.185 257.173 141.062C251.458 131.939 242.958 130.449 242.958 130.449C242.958 130.449 244.68 131.757 246.365 134.374C248.051 136.991 248.27 138.736 248.27 138.736C248.27 138.736 246.842 136.773 244.13 135.283C241.419 133.829 241.749 134.229 233.542 132.484C225.336 130.74 224.713 125.869 224.713 125.869L225.116 125.579C226.361 124.888 230.428 123.289 239.624 124.016C251.128 124.924 258.089 133.684 258.089 133.684C258.089 133.684 257.796 132.048 256.221 129.322C254.645 126.596 253.4 125.288 253.4 125.288C253.4 125.288 259.188 127.287 263.548 138.663C267.908 150.003 266.919 161.997 266.919 161.997C266.919 161.997 268.604 160.216 269.96 156.909C271.315 153.637 271.865 150.73 271.865 150.73C271.865 150.73 273.294 152.983 277.434 156.945C281.574 160.907 285.054 162.179 285.054 162.179C285.054 162.179 282.343 159.635 279.962 154.582C277.58 149.53 277.031 145.532 277.031 145.532C277.031 145.532 278.02 146.441 278.789 147.386C279.595 148.367 280.621 149.603 280.621 149.603C280.621 149.603 279.998 146.95 277.91 143.279C275.822 139.572 273.22 136.555 273.294 134.992C273.367 133.429 276.445 127.905 278.936 116.201C281.427 104.498 280.072 94.8664 280.072 94.8664C280.072 94.8664 279.632 99.4096 277.067 108.823C274.503 118.237 270.912 123.689 270.912 123.689C270.912 123.689 273.184 116.601 274.833 107.805C276.481 99.0098 276.115 91.9343 276.115 91.9343C276.115 91.9343 275.602 97.5559 271.096 106.134C266.589 114.675 260.874 121.799 258.382 121.617C257.357 121.544 256.551 120.127 256.587 116.892C256.624 113.657 258.675 111.549 258.675 111.549C258.675 111.549 257.43 111.767 255.415 113.039C253.4 114.348 252.044 116.129 252.044 116.129C252.044 116.129 252.081 112.131 254.426 108.678C256.807 105.189 260.031 105.08 260.031 105.08C260.031 105.08 258.529 104.28 256.66 104.025C254.755 103.771 253.693 103.953 253.693 103.953C253.693 103.953 254.829 97.9194 259.628 89.0874C264.281 80.5461 271.425 71.8595 278.826 71.8958C279.082 71.8958 279.302 71.8958 279.559 71.9322C287.216 72.5501 290.184 79.2013 292.235 94.5392C294.25 109.841 293.005 125.288 293.005 125.288C293.005 125.288 290.66 124.743 287.179 126.742C283.699 128.741 283.113 132.848 283.113 132.848C283.113 132.848 283.955 131.358 285.714 130.522C287.472 129.686 291.576 128.995 293.884 133.138C296.229 137.282 294.8 145.242 294.8 145.242C294.8 145.242 294.324 143.642 292.638 141.68C290.99 139.753 288.828 139.172 288.828 139.172C288.828 139.172 290.55 141.025 291.429 144.769C292.308 148.513 291.429 151.275 291.429 151.275C291.429 151.275 290.696 149.349 288.059 146.005C285.384 142.697 281.391 139.608 281.391 139.608C281.391 139.608 282.6 144.551 285.311 150.003C288.022 155.455 292.382 160.18 292.382 160.18C292.382 160.18 290.587 159.562 288.571 158.253C286.593 156.945 285.567 155.709 285.567 155.709C285.567 155.709 286.703 158.362 288.352 161.706C290 165.05 292.418 168.176 292.418 168.176C292.418 168.176 289.817 166.831 286.776 166.249C283.735 165.668 280.841 166.213 280.841 166.213C280.841 166.213 293.408 171.81 304.582 188.166C315.756 204.522 316.782 218.878 316.782 218.878C316.782 218.878 314.84 214.008 307 208.265C299.16 202.523 289.158 201.178 289.158 201.178C289.158 201.178 295.093 203.031 302.86 210.046C310.627 217.061 313.045 224.802 313.045 224.802C313.045 224.802 311.36 222.585 307.586 219.932ZM217.202 281.502C217.239 279.139 217.935 273.76 222.588 272.961C222.917 272.888 223.211 272.888 223.504 272.888H223.797C227.424 272.997 228.45 276.777 228.45 276.777C228.45 276.777 228.047 275.941 226.545 275.069C225.042 274.196 222.075 273.833 219.73 276.85C217.349 279.83 217.385 284.918 217.385 284.918C217.385 284.918 217.202 283.864 217.202 281.502ZM207.42 284.955C207.42 284.955 207.42 279.866 205.075 276.886C202.694 273.906 199.726 274.233 198.261 275.105C196.758 275.977 196.355 276.813 196.355 276.813C196.355 276.813 197.381 273.033 201.008 272.924C201.118 272.924 201.192 272.924 201.302 272.924C201.595 272.924 201.888 272.961 202.217 273.033C206.834 273.833 207.566 279.176 207.603 281.575C207.603 283.901 207.42 284.955 207.42 284.955ZM181.957 202.995C181.957 202.995 183.569 205.357 183.496 206.884C183.423 208.411 181.298 207.538 181.298 207.538C181.298 207.538 182.03 207.138 182.213 205.939C182.397 204.558 181.957 202.995 181.957 202.995ZM174.593 195.181C174.593 195.871 174.043 196.416 173.384 196.416C173.054 196.416 172.761 196.271 172.505 196.053C172.505 196.089 172.505 196.126 172.505 196.162C172.505 197.761 173.824 199.033 175.436 199.033C176.791 199.033 177.927 198.125 178.257 196.853C179.869 198.852 180.565 200.705 180.565 200.705C180.565 200.705 175.326 204.812 170.856 200.996C166.826 197.543 168.987 192.382 168.987 192.382C168.987 192.382 169.061 192.382 169.171 192.382C169.793 192.382 171.992 192.418 174.263 193.509C174.007 193.618 173.787 193.763 173.567 193.909C174.153 194.054 174.593 194.563 174.593 195.181ZM242.592 205.939C242.775 207.138 243.508 207.538 243.508 207.538C243.508 207.538 241.383 208.411 241.309 206.884C241.236 205.357 242.848 202.995 242.848 202.995C242.848 202.995 242.409 204.558 242.592 205.939ZM252.264 196.053C252.044 196.307 251.714 196.416 251.385 196.416C250.725 196.416 250.176 195.871 250.176 195.181C250.176 194.563 250.615 194.054 251.201 193.945C250.982 193.763 250.762 193.618 250.505 193.545C252.777 192.455 254.975 192.382 255.598 192.418C255.708 192.418 255.781 192.418 255.781 192.418C255.781 192.418 257.943 197.579 253.913 201.032C249.443 204.849 244.204 200.742 244.204 200.742C244.204 200.742 244.9 198.888 246.512 196.889C246.842 198.161 248.014 199.07 249.333 199.07C250.945 199.07 252.264 197.798 252.264 196.198C252.264 196.126 252.264 196.089 252.264 196.053ZM319.713 272.415C317.039 263.983 316.086 254.679 315.756 248.754C316.123 249.627 316.636 251.044 317.222 253.152C318.174 256.641 318.138 260.967 318.138 260.967C318.138 260.967 319.786 257.223 319.896 251.299C320.006 245.374 318.797 241.849 318.797 241.849C318.797 241.849 320.666 244.502 321.985 248.536C323.304 252.607 323.707 255.151 323.707 255.151C323.707 255.151 327.773 237.451 325.648 218.733C323.377 198.743 314.547 186.639 314.547 186.639C314.547 186.639 316.306 187.185 319.75 187.112C323.194 187.076 326.088 186.131 326.088 186.131C326.088 186.131 321.875 184.204 315.94 179.552C310.004 174.936 306.634 169.92 306.634 169.92C306.634 169.92 307.916 170.538 310.517 170.538C313.118 170.538 314.73 169.739 314.73 169.739C314.73 169.739 308.649 168.248 305.351 159.089C302.567 151.348 303.41 128.595 302.091 106.461C302.97 107.224 303.886 107.987 304.765 108.75C304.985 113.185 305.315 120.89 305.461 131.612C305.718 149.385 304.472 164.723 319.457 169.121C319.457 169.121 319.713 173.264 312.349 173.01C312.349 173.01 322.901 183.732 331.51 186.167C331.51 186.167 328.799 189.801 319.97 189.801C319.97 189.801 337.885 218.042 324.146 257.986L321.948 254.57C321.948 254.57 321.948 260.421 319.75 263.838C319.75 263.838 323.707 280.448 328.25 288.262C327.883 288.807 327.517 289.353 327.114 289.898C325.062 286.19 322.168 280.193 319.713 272.415Z" stroke="white" stroke-width="50" mask="url(#path-18-inside-1_248_22859)"/>
<path d="M275.896 255.415L268.268 256.528L266.997 255.415L270.811 249.853L274.625 247.628L275.896 255.415Z" fill="white"/>
<path d="M280.351 211.615L295.608 216.482L298.15 214.211L290.522 202.854L285.436 200.907L280.351 211.615Z" fill="white"/>
<path d="M144.623 211.615L131.273 216.482L129.048 214.211L135.723 202.854L140.173 200.907L144.623 211.615Z" fill="white"/>
<path d="M149.085 255.415L156.713 256.528L157.985 255.415L154.171 249.853L150.356 247.628L149.085 255.415Z" fill="white"/>
<path d="M302.525 94.0178C327.539 112.856 346 139.08 355.297 168.983C364.594 198.885 364.258 230.953 354.336 260.654C344.414 290.355 325.409 316.186 300.005 334.497C274.602 352.807 244.087 362.67 212.773 362.692C181.458 362.714 150.929 352.893 125.5 334.618C100.072 316.343 81.0303 290.538 71.0671 260.851C61.104 231.164 60.7234 199.096 69.9791 169.181C79.2349 139.266 97.6587 113.016 122.646 94.1428" stroke="white" stroke-width="5"/>
<path d="M163.53 72.2814C194.752 61.4034 228.7 61.192 260.055 71.6802" stroke="white" stroke-width="5"/>
</svg>
