<svg width="34" height="27" viewBox="0 0 34 27" fill="none" xmlns="http://www.w3.org/2000/svg">
<path d="M2.05908 13.2136C2.05908 13.2136 3.05343 11.602 4.60427 9.88873C5.17206 9.26391 6.03646 8.33657 6.07601 7.97751C6.11556 7.61845 5.47997 5.69027 5.16076 4.0957C4.89523 2.76407 4.76246 1.07055 5.23986 0.553163C5.71725 0.0357771 8.41216 0.564472 10.011 1.35045C11.6494 2.15338 12.4884 2.8602 12.7144 2.86302C12.9969 2.86585 14.6635 1.54835 17.2483 1.59076C19.833 1.63317 21.6635 2.82344 22.0194 2.82344C22.3754 2.82344 23.5279 1.96396 25.1211 1.13275C26.9912 0.157348 29.1776 0.0781855 29.6154 0.397664C30.0533 0.717143 29.7736 3.02418 29.4572 4.21727C29.0505 5.74116 28.364 7.46012 28.4036 7.7796C28.4431 8.09908 29.138 8.43552 30.5307 9.98768C31.6295 11.2147 32.977 13.6094 32.977 13.6094L18.0872 16.6769L2.05908 13.2136Z" fill="#B0B0B0"/>
<path d="M0.875836 15.4444C0.875836 15.6819 3.34193 17.0361 3.34193 17.0361C3.34193 17.0361 0.398438 18.1105 0.398438 18.3084C0.398438 18.6279 4.89276 23.044 9.30517 24.5566C12.9831 25.8175 20.6667 27.381 26.8023 24.2173C32.1299 21.4721 33.8813 19.3403 33.8813 19.0237C33.8813 18.707 31.4943 17.4319 31.4943 17.4319C31.4943 17.4319 34 15.7214 34 15.4811C34 15.2436 33.0056 13.4907 32.6864 12.9734C32.3672 12.456 31.4152 10.9434 31.0169 10.7851C30.6186 10.6267 23.1836 7.52243 20.7175 9.23291C19.4294 10.1263 19.2458 11.1441 19.2458 12.1393C19.2458 13.8922 19.404 15.402 19.404 15.402C19.404 15.402 18.8079 14.746 17.7741 14.7263C16.7995 14.7065 16.243 15.2634 16.243 15.2634C16.243 15.2634 16.5424 12.815 16.5029 11.899C16.4633 10.983 16.2656 9.82946 14.6724 8.95301C12.3927 7.69772 6.70914 9.97648 4.96904 10.9632C3.77695 11.6389 2.4634 12.5351 2.02555 13.2108C1.5877 13.8866 0.875836 15.1645 0.875836 15.4444Z" fill="#DEDEDE"/>
<path d="M7.9086 6.73969C7.99899 6.73969 8.69955 6.02157 9.44531 5.41371C10.2306 4.77192 11.1148 4.12731 11.1148 4.05946C11.1148 3.92658 7.82668 1.51211 6.90013 2.2274C5.97358 2.9427 7.69673 6.73969 7.9086 6.73969Z" fill="#5D6268"/>
<path d="M23.7427 4.00593C23.7343 4.09923 24.6467 4.63075 25.3614 5.27819C26.0761 5.92846 26.7794 6.59286 26.8727 6.57872C27.0591 6.55328 28.6495 2.94289 27.9066 2.30676C27.1636 1.67062 23.7682 3.743 23.7427 4.00593Z" fill="#5D6268"/>
<path d="M11.4139 23.1911C11.928 22.9904 11.8376 21.0424 12.7134 19.1567C13.5891 17.2737 14.5947 16.3435 15.1794 15.9449C15.7614 15.5463 16.2133 15.4134 16.5325 14.9893C16.8517 14.5652 16.8178 12.5918 16.5071 11.8991C16.0834 10.9576 14.9167 9.65711 12.6088 9.81544C10.3009 9.97377 8.39416 12.3882 7.33202 13.3976C6.27271 14.4069 4.65407 15.4925 4.6795 17.5621C4.70492 19.6316 6.42807 21.0651 7.49021 21.8341C8.54953 22.6087 10.671 23.4823 11.4139 23.1911Z" fill="#464C4F"/>
<path d="M19.3616 15.4174C18.8842 15.0979 19.0707 13.6673 19.0961 13.0029C19.1215 12.3385 19.387 10.6422 21.1893 10.1644C22.9915 9.68655 23.9463 10.4018 25.0339 11.1454C26.1215 11.889 27.2345 12.8842 28.0028 13.427C29.726 14.6484 31.1836 16.1864 30.8135 17.8318C30.4435 19.4773 29.37 20.5036 27.7118 21.6797C25.9887 22.9011 24.3983 23.9076 23.8418 23.5627C23.2853 23.2177 23.4718 20.3792 22.2232 18.4143C20.9802 16.4521 19.9209 15.7906 19.3616 15.4174Z" fill="#464C4F"/>
<path d="M17.5741 17.4326C15.9695 17.475 15.2323 18.5155 15.2153 19.423C15.1899 20.7094 15.7718 20.961 16.0373 21.1222C16.3678 21.3201 16.8481 21.4728 16.6193 21.9053C16.382 22.3577 16.156 22.5415 15.1758 22.4623C14.5684 22.4142 14.3255 21.8177 13.7181 21.9986C12.9102 22.2361 13.639 23.5734 15.4413 23.6441C17.1249 23.7091 17.6673 22.8468 17.6673 22.8468C17.6673 22.8468 18.2916 23.7091 19.8142 23.6158C21.3763 23.5197 22.187 22.1428 21.2859 21.877C20.639 21.6876 20.7435 22.4877 19.8424 22.5273C19.1927 22.5556 18.8509 22.3633 18.6108 22.0495C18.478 21.877 18.4921 21.4671 18.6757 21.3342C18.8622 21.2013 19.7577 20.8564 19.7887 19.6096C19.8142 18.5607 19.0317 17.393 17.5741 17.4326Z" fill="#2F2F2F"/>
<path d="M14.6513 13.2868C14.6513 14.2509 14.2276 15.085 13.3575 15.0312C12.6457 14.9888 12.0383 14.3272 12.0638 13.2868C12.0892 12.3227 12.6344 11.6753 13.3491 11.6753C14.0637 11.6753 14.6513 12.3227 14.6513 13.2868Z" fill="#000101"/>
<path d="M23.4908 13.4544C23.4541 14.4185 23.2789 15.3657 22.2705 15.2724C21.5586 15.2073 21.053 14.5571 21.1179 13.5166C21.1772 12.5554 21.6744 11.8627 22.3891 11.891C23.1038 11.9136 23.5247 12.4903 23.4908 13.4544Z" fill="#000101"/>
<path d="M12.5756 12.4438C12.4455 12.7068 12.4597 13.0517 12.6548 13.1591C12.8922 13.292 13.2541 13.0771 13.3842 12.8142C13.5142 12.5513 13.4125 12.2516 13.2117 12.1498C13.011 12.0509 12.7056 12.1809 12.5756 12.4438Z" fill="#B0B0B0"/>
<path d="M21.576 12.7347C21.4459 12.9976 21.4459 13.2888 21.641 13.3991C21.8785 13.532 22.1867 13.3821 22.3167 13.1192C22.4468 12.8563 22.3959 12.5679 22.198 12.4689C22.0001 12.37 21.706 12.4746 21.576 12.7347Z" fill="#B0B0B0"/>
</svg>
