<?xml version="1.0" encoding="utf-8"?>
<!-- Generator: Adobe Illustrator 26.0.1, SVG Export Plug-In . SVG Version: 6.00 Build 0)  -->
<!DOCTYPE svg PUBLIC "-//W3C//DTD SVG 1.1//EN" "http://www.w3.org/Graphics/SVG/1.1/DTD/svg11.dtd" [
	<!ENTITY ns_extend "http://ns.adobe.com/Extensibility/1.0/">
	<!ENTITY ns_ai "http://ns.adobe.com/AdobeIllustrator/10.0/">
	<!ENTITY ns_graphs "http://ns.adobe.com/Graphs/1.0/">
	<!ENTITY ns_vars "http://ns.adobe.com/Variables/1.0/">
	<!ENTITY ns_imrep "http://ns.adobe.com/ImageReplacement/1.0/">
	<!ENTITY ns_sfw "http://ns.adobe.com/SaveForWeb/1.0/">
	<!ENTITY ns_custom "http://ns.adobe.com/GenericCustomNamespace/1.0/">
	<!ENTITY ns_adobe_xpath "http://ns.adobe.com/XPath/1.0/">
]>
<svg version="1.1" id="Layer_1" xmlns:x="&ns_extend;" xmlns:i="&ns_ai;" xmlns:graph="&ns_graphs;"
	 xmlns="http://www.w3.org/2000/svg" xmlns:xlink="http://www.w3.org/1999/xlink" x="0px" y="0px" viewBox="0 0 17.5 17.5"
	 style="enable-background:new 0 0 17.5 17.5;" xml:space="preserve">
<style type="text/css">
	.st0{fill:#E76F51;}
</style>
<metadata>
	<sfw  xmlns="&ns_sfw;">
		<slices></slices>
		<sliceSourceBounds  bottomLeftOrigin="true" height="13.7" width="16" x="0" y="1.1"></sliceSourceBounds>
	</sfw>
</metadata>
<g>
	<path class="st0" d="M8.7,15.1c-1.6-1.9-3.1-3.3-4.3-4.4c-2-1.9-3.2-3-3.2-4.9c0-1.9,1.6-3.4,3.5-3.4s3.5,1.5,3.5,3.4
		c0,0.3,0.2,0.5,0.5,0.5s0.5-0.2,0.5-0.5c0-1.9,1.6-3.4,3.5-3.4s3.5,1.5,3.5,3.4c0,1.9-1.2,3-3.2,4.9C11.9,11.8,10.4,13.2,8.7,15.1
		L8.7,15.1C8.8,15.1,8.8,15.1,8.7,15.1z"/>
	<path class="st0" d="M12.8,2.9c1.7,0,3,1.3,3,2.9c0,1.6-0.9,2.5-3,4.5c-1.1,1-2.5,2.3-4,4c-1.5-1.7-2.8-3-4-4c-2.1-2-3-2.9-3-4.5
		c0-1.6,1.3-2.9,3-2.9s3,1.3,3,2.9c0,0.6,0.4,1,1,1c0.6,0,1-0.4,1-1C9.8,4.2,11.1,2.9,12.8,2.9 M12.8,1.9c-2.2,0-4,1.8-4,3.9
		c0-2.2-1.8-3.9-4-3.9s-4,1.8-4,3.9c0,3.3,3.2,4.4,7.6,9.6c0,0,0,0,0.1,0.1c0.1,0.1,0.2,0.1,0.3,0.1c0.1,0,0.3-0.1,0.4-0.2
		c4.4-5.2,7.6-6.3,7.6-9.6C16.8,3.7,15,1.9,12.8,1.9L12.8,1.9z"/>
</g>
</svg>
